<svg xmlns="http://www.w3.org/2000/svg" xmlns:xlink="http://www.w3.org/1999/xlink" width="363" height="244" viewBox="0 0 363 244">
  <defs>
    <clipPath id="clip-path">
      <rect id="Rectangle_4011" data-name="Rectangle 4011" width="363" height="244" transform="translate(300 1857.6)" fill="#fff"/>
    </clipPath>
    <clipPath id="clip-path-2">
      <rect id="Rectangle_4010" data-name="Rectangle 4010" width="284.855" height="173.403" fill="none"/>
    </clipPath>
  </defs>
  <g id="Mask_Group_9" data-name="Mask Group 9" transform="translate(-300 -1857.6)" clip-path="url(#clip-path)">
    <g id="Group_11561" data-name="Group 11561" transform="translate(339.016 1894.125)">
      <path id="Path_15490" data-name="Path 15490" d="M214.455,338.144V336.8h-8.943v1.34h3.8v8.476h1.341v-8.476Z" transform="translate(-87.294 -177.233)" fill="#fff"/>
      <g id="Group_11560" data-name="Group 11560" transform="translate(0 0)">
        <g id="Group_11559" data-name="Group 11559" clip-path="url(#clip-path-2)">
          <path id="Path_15491" data-name="Path 15491" d="M196.316,336.8a4.908,4.908,0,1,0,2.661,9.032l.693.783h1.564l-1.354-1.531a4.9,4.9,0,0,0-3.564-8.284m1.564,6.023h-1.564l1.759,1.99a3.586,3.586,0,1,1,.912-.737Z" transform="translate(-91.734 -177.233)" fill="#fff"/>
          <path id="Path_15492" data-name="Path 15492" d="M226.556,339.817a3.012,3.012,0,0,0-2.962-3.006V336.8h-4.137v9.816H220.8v-3.792h2.658l2.148,3.792h1.343l-2.275-4.017a3.009,3.009,0,0,0,1.882-2.787m-5.756-1.673h2.739a1.673,1.673,0,1,1,0,3.347H220.8Z" transform="translate(-82.908 -177.233)" fill="#fff"/>
          <path id="Path_15493" data-name="Path 15493" d="M216.661,336.8h-1.342l-4.024,9.816h1.341l1.007-2.454h4.694l1.007,2.454h1.341Zm1.128,6.023h-3.6l1.8-4.387Z" transform="translate(-85.476 -177.233)" fill="#fff"/>
          <path id="Path_15494" data-name="Path 15494" d="M204.756,336.8h-1.341l-4.025,9.816h1.342l1.006-2.454h4.694l1.007,2.454h1.341Zm1.128,6.023h-3.6l1.8-4.387Z" transform="translate(-89.22 -177.233)" fill="#fff"/>
          <path id="Path_15495" data-name="Path 15495" d="M264.966,342.925a4.024,4.024,0,1,0-7.018,2.676h-5.414a4.009,4.009,0,0,0-2.993-6.692H245.07v-3.123h-1.342V345.6H232.774v-5.354h-1.342v6.694a2.68,2.68,0,0,1-2.683,2.676,2.782,2.782,0,0,1-.447-.045v1.338a3.868,3.868,0,0,0,.447.045,4.018,4.018,0,0,0,4.02-3.926h.005v-.088h28.2a4.019,4.019,0,0,0,3.993-4.013m-19.9-2.678h4.471a2.677,2.677,0,1,1,0,5.354H245.07Zm15.875,5.354h-.007a2.682,2.682,0,1,1,.007,0" transform="translate(-80.127 -177.553)" fill="#fff"/>
          <rect id="Rectangle_4003" data-name="Rectangle 4003" width="1.342" height="1.338" transform="translate(179.025 158.234)" fill="#fff"/>
          <rect id="Rectangle_4004" data-name="Rectangle 4004" width="1.342" height="1.338" transform="translate(181.261 158.234)" fill="#fff"/>
          <path id="Path_15496" data-name="Path 15496" d="M280.213,295.322l-2.359,1.421a.935.935,0,0,0-.464.8v13.437h2.824Z" transform="translate(-64.689 -190.28)" fill="#fff"/>
          <path id="Path_15497" data-name="Path 15497" d="M268.295,302.522h3.427a.937.937,0,0,0,.8-.464l1.424-2.353h-5.647a5.641,5.641,0,0,0-5.647,5.634,5.572,5.572,0,0,0,.783,2.818h-5.175V295.321l-2.36,1.421a.938.938,0,0,0-.464.8v13.437h25.725V295.321l-2.36,1.421a.935.935,0,0,0-.464.8v10.62H268.295a2.818,2.818,0,1,1,0-5.635" transform="translate(-71.594 -190.28)" fill="#fff"/>
          <path id="Path_15498" data-name="Path 15498" d="M237.07,295.321l-2.36,1.421a.938.938,0,0,0-.464.8v10.62H231.11V295.321l-2.36,1.421a.935.935,0,0,0-.464.8v10.62H223.11a5.555,5.555,0,0,0,.785-2.817,5.641,5.641,0,0,0-5.647-5.635h-6.9v-4.384l-2.358,1.421a.935.935,0,0,0-.464.8v10.62h-6.9v-6.9l-2.36,1.421h0a.936.936,0,0,0-.464.794v4.684h-4.392v-6.9l-2.36,1.42h0a.935.935,0,0,0-.464.8v7.5a2.821,2.821,0,0,1-2.824,2.818,2.885,2.885,0,0,1-.627-.075v2.83a5.448,5.448,0,0,0,.627.063,5.643,5.643,0,0,0,5.647-5.637H237.07Zm-18.822,12.836h-6.9v-5.635h6.9a2.818,2.818,0,1,1,0,5.635" transform="translate(-92.761 -190.28)" fill="#fff"/>
          <path id="Path_15499" data-name="Path 15499" d="M189.046,295.322l-2.36,1.421a.938.938,0,0,0-.464.8v13.437h2.824Z" transform="translate(-93.361 -190.28)" fill="#fff"/>
          <path id="Path_15500" data-name="Path 15500" d="M170.43,295.322l-2.36,1.421a.938.938,0,0,0-.464.8v13.437h2.824Z" transform="translate(-99.216 -190.28)" fill="#fff"/>
          <path id="Path_15501" data-name="Path 15501" d="M173.4,310.975V295.322l-2.359,1.42a.937.937,0,0,0-.464.8v10.62h-3.829a5.653,5.653,0,1,0-11.165,0h-5.867a5.567,5.567,0,0,0,.782-2.817,5.641,5.641,0,0,0-5.646-5.635h-5.647l1.424,2.354a.943.943,0,0,0,.8.464h3.427a2.817,2.817,0,1,1,0,5.634h-5.647v2.818h17.529a5.594,5.594,0,0,0,8.862,0Zm-12.235-.638a2.818,2.818,0,1,1,2.824-2.817,2.821,2.821,0,0,1-2.824,2.817" transform="translate(-108.148 -190.28)" fill="#fff"/>
          <path id="Path_15502" data-name="Path 15502" d="M289.956,310.974h51.45V295.321l-2.358,1.421a.936.936,0,0,0-.465.8v10.62h-5.175a5.573,5.573,0,0,0,.785-2.818,5.641,5.641,0,0,0-5.648-5.634h-4.212l-.722-1.681a.857.857,0,0,0-.68-.5l-2.507-.344,1.195,2.782h0a5.56,5.56,0,0,0-3.27,8.2h-5.175v-6.9l-2.36,1.42h0a.936.936,0,0,0-.464.794v4.684h-4.392v-6.9l-2.361,1.42h0a.935.935,0,0,0-.463.794v4.684H294.82a5.571,5.571,0,0,0,.783-2.818,5.647,5.647,0,1,0-5.647,5.635m38.587-8.452h0a2.818,2.818,0,1,1,0,5.635h-.582l-2.42-5.635Zm-5.806.047,2.4,5.588h-1.927a2.813,2.813,0,0,1-.473-5.588m-32.781-.047a2.818,2.818,0,1,1-2.824,2.817,2.821,2.821,0,0,1,2.824-2.817" transform="translate(-62.512 -190.28)" fill="#fff"/>
          <path id="Path_15503" data-name="Path 15503" d="M330.6,296.742h0a.935.935,0,0,0-.464.794v13.438h2.824V295.321Z" transform="translate(-48.101 -190.28)" fill="#fff"/>
          <path id="Path_15504" data-name="Path 15504" d="M143.5,309.927h0V298.656l-2.36,1.421a.938.938,0,0,0-.464.8v6.237h-3.765v-4.227a4.235,4.235,0,0,0-8.469,0v4.227h-7.217a2.818,2.818,0,1,1,0-5.635h2.511l-1.424-2.356h0a.942.942,0,0,0-.8-.464h-.289a5.635,5.635,0,1,0,0,11.271h10.039v-7.044a1.412,1.412,0,0,1,2.824,0h0v7.044Z" transform="translate(-115.579 -189.231)" fill="#fff"/>
          <path id="Path_15505" data-name="Path 15505" d="M254.6,300.837a5.414,5.414,0,0,0-5.583,6.272h-8.376a5.58,5.58,0,0,0,.782-2.817,5.647,5.647,0,1,0-5.647,5.635h14.393a5.632,5.632,0,1,0,4.431-9.09m-18.824,6.272a2.817,2.817,0,1,1,2.824-2.817,2.82,2.82,0,0,1-2.824,2.817m18.824,2.181a2.818,2.818,0,1,1,2.824-2.817,2.821,2.821,0,0,1-2.824,2.817" transform="translate(-79.55 -189.231)" fill="#fff"/>
          <path id="Path_15506" data-name="Path 15506" d="M178.484,325.842l-4.235-10.331h-2.824l5.647,13.775H179.9l5.647-13.775h-2.824Z" transform="translate(-98.015 -183.93)" fill="#fff"/>
          <rect id="Rectangle_4005" data-name="Rectangle 4005" width="2.824" height="13.775" transform="translate(36.078 131.582)" fill="#fff"/>
          <rect id="Rectangle_4006" data-name="Rectangle 4006" width="2.824" height="13.775" transform="translate(15.372 131.582)" fill="#fff"/>
          <path id="Path_15507" data-name="Path 15507" d="M138.169,325.842l-4.235-10.331H131.11l5.647,13.775h2.824l5.647-13.775H142.4Z" transform="translate(-110.694 -183.93)" fill="#fff"/>
          <rect id="Rectangle_4007" data-name="Rectangle 4007" width="2.824" height="13.775" transform="translate(89.409 131.582)" fill="#fff"/>
          <path id="Path_15508" data-name="Path 15508" d="M282.354,321.146h-5.961v-5.635h-2.822v13.776h2.822v-5.635h5.961v5.635h2.823V315.511h-2.823Z" transform="translate(-65.889 -183.93)" fill="#fff"/>
          <path id="Path_15509" data-name="Path 15509" d="M197.439,318.328H202.3v10.958h2.824V318.328h4.862v-2.817H197.439Z" transform="translate(-89.834 -183.93)" fill="#fff"/>
          <path id="Path_15510" data-name="Path 15510" d="M219.854,315.511a6.887,6.887,0,1,0,6.9,6.888,6.9,6.9,0,0,0-6.9-6.888m0,10.958a4.07,4.07,0,1,1,4.078-4.07,4.076,4.076,0,0,1-4.078,4.07" transform="translate(-84.955 -183.93)" fill="#fff"/>
          <path id="Path_15511" data-name="Path 15511" d="M122.481,318.329h3.427a.942.942,0,0,0,.8-.464l1.424-2.354h-5.647a6.888,6.888,0,1,0,0,13.776h5.647v-2.818h-5.647a4.07,4.07,0,1,1,0-8.139" transform="translate(-115.579 -183.93)" fill="#fff"/>
          <rect id="Rectangle_4008" data-name="Rectangle 4008" width="2.824" height="13.775" transform="translate(122.663 131.582)" fill="#fff"/>
          <path id="Path_15512" data-name="Path 15512" d="M234.221,325.011l-6.275-9.5h-2.822v13.775h2.822v-9.5l6.275,9.5h2.824V315.511h-2.824Z" transform="translate(-81.127 -183.93)" fill="#fff"/>
          <path id="Path_15513" data-name="Path 15513" d="M246.044,315.511h0L240.4,329.286h2.824l1.155-2.818h6.16l1.155,2.818h2.824l-5.647-13.775Zm-.641,8.452,2.053-5.01,2.053,5.01Z" transform="translate(-76.323 -183.93)" fill="#fff"/>
          <path id="Path_15514" data-name="Path 15514" d="M251.853,315.511h2.824v8.139a2.824,2.824,0,0,0,5.647,0v-8.139h2.824v8.139h0a5.647,5.647,0,0,1-11.294,0Z" transform="translate(-72.72 -183.93)" fill="#fff"/>
          <path id="Path_15515" data-name="Path 15515" d="M290.735,315.511a6.887,6.887,0,1,0,6.9,6.888,6.9,6.9,0,0,0-6.9-6.888m0,10.958a4.07,4.07,0,1,1,4.078-4.07,4.076,4.076,0,0,1-4.078,4.07" transform="translate(-62.662 -183.93)" fill="#fff"/>
          <rect id="Rectangle_4009" data-name="Rectangle 4009" width="2.824" height="13.775" transform="translate(250.974 131.582)" fill="#fff"/>
          <path id="Path_15516" data-name="Path 15516" d="M307.372,320.208a4.7,4.7,0,0,0-4.7-4.7h-6.9v13.775h2.824V324.9H301.5l3.054,4.383h2.822l-3.231-4.64a4.681,4.681,0,0,0,3.231-4.438m-4.7,1.878h-4.079v-3.758h4.079a1.879,1.879,0,1,1,0,3.758" transform="translate(-58.909 -183.93)" fill="#fff"/>
          <path id="Path_15517" data-name="Path 15517" d="M328.681,322.256l-4.078-6.745H321.78l5.489,9.079v4.7h2.823v-4.7l5.491-9.079H332.76Z" transform="translate(-50.728 -183.93)" fill="#fff"/>
          <path id="Path_15518" data-name="Path 15518" d="M192.823,315.511h0l-5.647,13.775H190l1.156-2.818h6.16l1.155,2.818h2.824l-5.647-13.775Zm-.642,8.452,2.053-5.01,2.053,5.01Z" transform="translate(-93.061 -183.93)" fill="#fff"/>
          <path id="Path_15519" data-name="Path 15519" d="M170.827,315.511H168l-5.647,13.775h2.824l1.155-2.818h6.16l1.156,2.818h2.822Zm.642,8.452h-4.107l2.053-5.008Z" transform="translate(-100.867 -183.93)" fill="#fff"/>
          <path id="Path_15520" data-name="Path 15520" d="M186.762,299.838l-2.36,1.421a.938.938,0,0,0-.464.8v1.865a2.82,2.82,0,0,1-2.824,2.818h-.941a2.821,2.821,0,0,1-2.824-2.818v-4.082l-2.36,1.421a.941.941,0,0,0-.464.8v1.865a5.641,5.641,0,0,0,5.647,5.635h.941a5.641,5.641,0,0,0,5.647-5.635Z" transform="translate(-97.039 -188.859)" fill="#fff"/>
          <path id="Path_15521" data-name="Path 15521" d="M262.115,318.328h4.862v10.958H269.8V318.328h4.862v-2.817H262.115Z" transform="translate(-69.492 -183.93)" fill="#fff"/>
          <path id="Path_15522" data-name="Path 15522" d="M310.563,318.328h4.862v10.958h2.824V318.328h4.862v-2.817H310.563Z" transform="translate(-54.255 -183.93)" fill="#fff"/>
          <path id="Path_15523" data-name="Path 15523" d="M288.8,297.015v-1.694l-1.693,0a.727.727,0,0,0-.727.726v1.694l1.694,0a.727.727,0,0,0,.726-.726" transform="translate(-61.86 -190.28)" fill="#fff"/>
          <path id="Path_15524" data-name="Path 15524" d="M291.408,297.015v-1.694l-1.693,0a.727.727,0,0,0-.727.726v1.694l1.693,0a.726.726,0,0,0,.727-.726" transform="translate(-61.041 -190.28)" fill="#fff"/>
          <path id="Path_15525" data-name="Path 15525" d="M303.124,309.306l0,1.693h1.694a.729.729,0,0,0,.727-.726v-1.694h-1.694a.728.728,0,0,0-.726.727" transform="translate(-56.596 -186.111)" fill="#fff"/>
          <path id="Path_15526" data-name="Path 15526" d="M308.147,310.271v-1.693h-1.693a.728.728,0,0,0-.727.726V311h1.694a.728.728,0,0,0,.726-.727" transform="translate(-55.776 -186.111)" fill="#fff"/>
          <path id="Path_15527" data-name="Path 15527" d="M234.627,297.015v-1.694l-1.693,0a.727.727,0,0,0-.727.726v1.694l1.693,0a.727.727,0,0,0,.727-.726" transform="translate(-78.899 -190.28)" fill="#fff"/>
          <path id="Path_15528" data-name="Path 15528" d="M237.233,297.015v-1.694l-1.693,0a.726.726,0,0,0-.727.726l0,1.694,1.694,0a.726.726,0,0,0,.727-.726" transform="translate(-78.079 -190.28)" fill="#fff"/>
          <path id="Path_15529" data-name="Path 15529" d="M197.515,310.271v-1.693h-1.693a.727.727,0,0,0-.727.726V311h1.694a.728.728,0,0,0,.726-.727" transform="translate(-90.571 -186.111)" fill="#fff"/>
          <path id="Path_15530" data-name="Path 15530" d="M200.121,310.273v-1.694l-1.693,0a.727.727,0,0,0-.727.726V311l1.694,0a.726.726,0,0,0,.726-.726" transform="translate(-89.751 -186.111)" fill="#fff"/>
          <path id="Path_15531" data-name="Path 15531" d="M180.68,297.015v-1.694l-1.693,0a.727.727,0,0,0-.727.726v1.694l1.694,0a.727.727,0,0,0,.726-.726" transform="translate(-95.865 -190.28)" fill="#fff"/>
          <path id="Path_15532" data-name="Path 15532" d="M137.245,297.015v-1.694l-1.693,0a.726.726,0,0,0-.727.726l0,1.694,1.694,0a.727.727,0,0,0,.727-.726" transform="translate(-109.526 -190.28)" fill="#fff"/>
          <path id="Path_15533" data-name="Path 15533" d="M122.935,310.271v-1.693h-1.693a.726.726,0,0,0-.727.726l0,1.694h1.694a.728.728,0,0,0,.727-.727" transform="translate(-114.027 -186.111)" fill="#fff"/>
          <path id="Path_15534" data-name="Path 15534" d="M125.541,310.271v-1.693h-1.693a.727.727,0,0,0-.727.726V311h1.694a.728.728,0,0,0,.726-.727" transform="translate(-113.207 -186.111)" fill="#fff"/>
          <path id="Path_15535" data-name="Path 15535" d="M302.74,297.779h-1.133a.6.6,0,1,1,0-1.2h1.133v-1.254h-1.133a1.861,1.861,0,0,0-1.86,1.856,1.827,1.827,0,0,0,.1.6h-2.011v1.254h4.9Z" transform="translate(-58.257 -190.28)" fill="#fff"/>
          <path id="Path_15536" data-name="Path 15536" d="M150.144,326.469V315.511H147.32v13.775h11.608a.937.937,0,0,0,.8-.463h0l1.424-2.354Z" transform="translate(-105.596 -183.93)" fill="#fff"/>
          <path id="Path_15537" data-name="Path 15537" d="M258.874,241.871l10.489,11.314,23.455-10.67s-15.21,6.555-33.943-.644" transform="translate(-70.512 -207.09)" fill="#fff"/>
          <path id="Path_15538" data-name="Path 15538" d="M175.475,246.427s-4.856,13.693,28.409,13.693,84.924-13.17,84.924-13.17S252.39,260.17,229.88,264.6s-62.222,11.41-54.4-18.176" transform="translate(-97.057 -205.658)" fill="#fff"/>
          <path id="Path_15539" data-name="Path 15539" d="M291.941,251.129s-88.664,36.121-110.754,18.16c0,0,10.131,11.848,25.337,11.848,17.425,0,42.535-7.171,85.417-30.008" transform="translate(-94.945 -204.179)" fill="#fff"/>
          <path id="Path_15540" data-name="Path 15540" d="M199.91,227.372s-5.876,4.155-7.416,10.052-1.468,20.105,89.788,9.863a266.954,266.954,0,0,1-75.546,11.138c-41.9,0-30.916-20.688-6.825-31.053" transform="translate(-95.774 -211.651)" fill="#fff"/>
          <path id="Path_15541" data-name="Path 15541" d="M229.828,291.275a44.777,44.777,0,0,0,43.02-32.384c-30.1,14.979-52.733,22.416-70.247,23.143a44.56,44.56,0,0,0,27.227,9.241" transform="translate(-88.21 -201.738)" fill="#fff"/>
          <path id="Path_15542" data-name="Path 15542" d="M211.71,250.781c14.648,1.161,36.395.163,64.625-2.955a44.768,44.768,0,0,0-84.794-3.77,2.82,2.82,0,0,0,.68,1.316c1.342,1.548,5.658,4.312,19.489,5.409" transform="translate(-91.688 -215.412)" fill="#fff"/>
        </g>
      </g>
    </g>
  </g>
</svg>
