<svg xmlns="http://www.w3.org/2000/svg" xmlns:xlink="http://www.w3.org/1999/xlink" width="251" height="169" viewBox="0 0 251 169">
  <defs>
    <clipPath id="clip-path">
      <rect id="Rectangle_3160" data-name="Rectangle 3160" width="251" height="169" transform="translate(300 1858)" fill="#fff"/>
    </clipPath>
    <clipPath id="clip-path-2">
      <rect id="Rectangle_113" data-name="Rectangle 113" width="197.128" height="120" fill="none"/>
    </clipPath>
  </defs>
  <g id="Mask_Group_3" data-name="Mask Group 3" transform="translate(-300 -1858)" clip-path="url(#clip-path)">
    <g id="Group_10684" data-name="Group 10684" transform="translate(211.421 1667.588)">
      <path id="Path_74" data-name="Path 74" d="M211.7,337.731V336.8h-6.189v.927h2.63V343.6h.928v-5.866Z" transform="translate(-8.123 -10.965)" fill="#fff"/>
      <g id="Group_82" data-name="Group 82" transform="translate(115.579 215.412)">
        <g id="Group_81" data-name="Group 81" clip-path="url(#clip-path-2)">
          <path id="Path_75" data-name="Path 75" d="M194.8,336.8a3.4,3.4,0,1,0,1.841,6.25l.479.542H198.2l-.937-1.06A3.392,3.392,0,0,0,194.8,336.8m1.083,4.168H194.8l1.217,1.377a2.481,2.481,0,1,1,.631-.51Z" transform="translate(-122.427 -226.377)" fill="#fff"/>
          <path id="Path_76" data-name="Path 76" d="M224.37,338.889a2.084,2.084,0,0,0-2.049-2.08v0h-2.863V343.6h.929v-2.624h1.839l1.486,2.624h.93l-1.575-2.78a2.082,2.082,0,0,0,1.3-1.928m-3.983-1.158h1.9a1.158,1.158,0,1,1,0,2.316h-1.9Z" transform="translate(-124.962 -226.377)" fill="#fff"/>
          <path id="Path_77" data-name="Path 77" d="M215.008,336.8h-.929L211.3,343.6h.928l.7-1.7h3.248l.7,1.7h.928Zm.781,4.168H213.3l1.245-3.036Z" transform="translate(-124.224 -226.377)" fill="#fff"/>
          <path id="Path_78" data-name="Path 78" d="M203.1,336.8h-.928L199.39,343.6h.929l.7-1.7h3.248l.7,1.7h.928Zm.781,4.168h-2.49l1.245-3.036Z" transform="translate(-123.149 -226.377)" fill="#fff"/>
          <path id="Path_79" data-name="Path 79" d="M253.675,340.727a2.785,2.785,0,1,0-4.857,1.852h-3.747A2.774,2.774,0,0,0,243,337.947h-3.094v-2.161h-.929v6.793H231.4v-3.705h-.929v4.632a1.855,1.855,0,0,1-1.857,1.852,1.928,1.928,0,0,1-.309-.031v.926a2.68,2.68,0,0,0,.309.031,2.78,2.78,0,0,0,2.782-2.717h0v-.061h19.514a2.781,2.781,0,0,0,2.764-2.777m-13.769-1.853H243a1.853,1.853,0,1,1,0,3.705h-3.1Zm10.986,3.705h0a1.853,1.853,0,1,1,1.858-1.852,1.855,1.855,0,0,1-1.858,1.852" transform="translate(-125.761 -226.285)" fill="#fff"/>
          <rect id="Rectangle_106" data-name="Rectangle 106" width="0.929" height="0.926" transform="translate(123.891 109.502)" fill="#fff"/>
          <rect id="Rectangle_107" data-name="Rectangle 107" width="0.929" height="0.926" transform="translate(125.438 109.502)" fill="#fff"/>
          <path id="Path_80" data-name="Path 80" d="M279.343,295.322l-1.633.983a.647.647,0,0,0-.321.55v9.3h1.954Z" transform="translate(-130.194 -222.63)" fill="#fff"/>
          <path id="Path_81" data-name="Path 81" d="M264.333,300.3H266.7a.648.648,0,0,0,.551-.321l.985-1.628h-3.908a3.9,3.9,0,0,0-3.908,3.9,3.856,3.856,0,0,0,.542,1.95h-3.581v-8.883l-1.633.983a.649.649,0,0,0-.321.55v9.3h17.8V295.321l-1.633.983a.647.647,0,0,0-.321.55V304.2h-6.947a1.95,1.95,0,1,1,0-3.9" transform="translate(-128.211 -222.63)" fill="#fff"/>
          <path id="Path_82" data-name="Path 82" d="M222,295.321l-1.633.983a.649.649,0,0,0-.321.55V304.2h-2.17v-8.883l-1.633.983a.647.647,0,0,0-.321.55V304.2h-3.582a3.844,3.844,0,0,0,.543-1.949,3.9,3.9,0,0,0-3.908-3.9H204.2v-3.034l-1.632.983a.647.647,0,0,0-.321.55V304.2h-4.777v-4.775l-1.633.983h0a.648.648,0,0,0-.321.549V304.2h-3.039V299.43l-1.633.982h0a.647.647,0,0,0-.321.55v5.19a1.952,1.952,0,0,1-1.954,1.95,1.994,1.994,0,0,1-.434-.052v1.958a3.765,3.765,0,0,0,.434.044,3.9,3.9,0,0,0,3.908-3.9H222ZM208.973,304.2H204.2v-3.9h4.777a1.95,1.95,0,1,1,0,3.9" transform="translate(-122.132 -222.63)" fill="#fff"/>
          <path id="Path_83" data-name="Path 83" d="M188.176,295.322l-1.633.983a.649.649,0,0,0-.321.55v9.3h1.954Z" transform="translate(-121.96 -222.63)" fill="#fff"/>
          <path id="Path_84" data-name="Path 84" d="M169.56,295.322l-1.633.983a.649.649,0,0,0-.321.55v9.3h1.954Z" transform="translate(-120.278 -222.63)" fill="#fff"/>
          <path id="Path_85" data-name="Path 85" d="M162.87,306.155V295.322l-1.633.983a.648.648,0,0,0-.321.55V304.2h-2.65a3.912,3.912,0,1,0-7.727,0h-4.06a3.853,3.853,0,0,0,.541-1.949,3.9,3.9,0,0,0-3.907-3.9h-3.908l.985,1.629a.653.653,0,0,0,.551.321h2.372a1.949,1.949,0,1,1,0,3.9h-3.908v1.95h12.131a3.872,3.872,0,0,0,6.133,0Zm-8.467-.441a1.95,1.95,0,1,1,1.954-1.949,1.952,1.952,0,0,1-1.954,1.949" transform="translate(-117.713 -222.63)" fill="#fff"/>
          <path id="Path_86" data-name="Path 86" d="M288.217,306.154h35.6V295.321l-1.632.983a.648.648,0,0,0-.322.55V304.2h-3.581a3.857,3.857,0,0,0,.543-1.95,3.9,3.9,0,0,0-3.909-3.9h-2.915l-.5-1.164a.593.593,0,0,0-.47-.347l-1.735-.238.827,1.925h0a3.848,3.848,0,0,0-2.263,5.674h-3.581V299.43l-1.633.982h0a.648.648,0,0,0-.321.549V304.2H299.29V299.43l-1.634.982h0a.647.647,0,0,0-.32.549V304.2h-5.753a3.856,3.856,0,0,0,.542-1.95,3.908,3.908,0,1,0-3.908,3.9m26.7-5.849h0a1.95,1.95,0,1,1,0,3.9h-.4l-1.675-3.9Zm-4.018.033,1.661,3.867H311.23a1.947,1.947,0,0,1-.328-3.867m-22.685-.033a1.95,1.95,0,1,1-1.954,1.949,1.952,1.952,0,0,1,1.954-1.949" transform="translate(-130.819 -222.63)" fill="#fff"/>
          <path id="Path_87" data-name="Path 87" d="M330.453,296.3h0a.647.647,0,0,0-.321.549v9.3h1.954V295.321Z" transform="translate(-134.958 -222.63)" fill="#fff"/>
          <path id="Path_88" data-name="Path 88" d="M134.9,306.456h0v-7.8l-1.633.983a.649.649,0,0,0-.321.55v4.316h-2.605v-2.926a2.931,2.931,0,0,0-5.861,0v2.926h-4.994a1.95,1.95,0,1,1,0-3.9h1.737l-.985-1.63h0a.652.652,0,0,0-.552-.321h-.2a3.9,3.9,0,1,0,0,7.8h6.947v-4.875a.977.977,0,0,1,1.954,0h0v4.875Z" transform="translate(-115.579 -222.931)" fill="#fff"/>
          <path id="Path_89" data-name="Path 89" d="M247.069,300.165a3.747,3.747,0,0,0-3.863,4.34h-5.8a3.861,3.861,0,0,0,.541-1.949,3.908,3.908,0,1,0-3.908,3.9H244a3.9,3.9,0,1,0,3.067-6.29m-13.027,4.34A1.949,1.949,0,1,1,236,302.556a1.951,1.951,0,0,1-1.954,1.949m13.027,1.509a1.95,1.95,0,1,1,1.954-1.949,1.952,1.952,0,0,1-1.954,1.949" transform="translate(-125.926 -222.931)" fill="#fff"/>
          <path id="Path_90" data-name="Path 90" d="M176.31,322.66l-2.931-7.149h-1.954l3.908,9.533h1.954l3.908-9.533h-1.954Z" transform="translate(-120.623 -224.453)" fill="#fff"/>
          <rect id="Rectangle_108" data-name="Rectangle 108" width="1.954" height="9.533" transform="translate(24.967 91.059)" fill="#fff"/>
          <rect id="Rectangle_109" data-name="Rectangle 109" width="1.954" height="9.533" transform="translate(10.638 91.059)" fill="#fff"/>
          <path id="Path_91" data-name="Path 91" d="M136,322.66l-2.931-7.149H131.11l3.908,9.533h1.954l3.908-9.533h-1.954Z" transform="translate(-116.982 -224.453)" fill="#fff"/>
          <rect id="Rectangle_110" data-name="Rectangle 110" width="1.954" height="9.533" transform="translate(61.873 91.059)" fill="#fff"/>
          <path id="Path_92" data-name="Path 92" d="M279.649,319.411h-4.125v-3.9h-1.953v9.533h1.953v-3.9h4.125v3.9H281.6v-9.533h-1.954Z" transform="translate(-129.849 -224.453)" fill="#fff"/>
          <path id="Path_93" data-name="Path 93" d="M197.439,317.461H200.8v7.583h1.954v-7.583h3.365v-1.949h-8.684Z" transform="translate(-122.973 -224.453)" fill="#fff"/>
          <path id="Path_94" data-name="Path 94" d="M217.728,315.511a4.766,4.766,0,1,0,4.777,4.767,4.772,4.772,0,0,0-4.777-4.767m0,7.583a2.816,2.816,0,1,1,2.822-2.816,2.82,2.82,0,0,1-2.822,2.816" transform="translate(-124.374 -224.453)" fill="#fff"/>
          <path id="Path_95" data-name="Path 95" d="M120.355,317.461h2.371a.652.652,0,0,0,.551-.321l.985-1.629h-3.908a4.767,4.767,0,1,0,0,9.533h3.908v-1.95h-3.908a2.816,2.816,0,1,1,0-5.633" transform="translate(-115.579 -224.453)" fill="#fff"/>
          <rect id="Rectangle_111" data-name="Rectangle 111" width="1.954" height="9.533" transform="translate(84.886 91.059)" fill="#fff"/>
          <path id="Path_96" data-name="Path 96" d="M231.419,322.085l-4.343-6.574h-1.953v9.533h1.953V318.47l4.343,6.574h1.954v-9.533h-1.954Z" transform="translate(-125.473 -224.453)" fill="#fff"/>
          <path id="Path_97" data-name="Path 97" d="M244.3,315.511h0l-3.908,9.533h1.954l.8-1.95h4.263l.8,1.95h1.954l-3.908-9.533Zm-.444,5.849,1.421-3.467,1.421,3.467Z" transform="translate(-126.853 -224.453)" fill="#fff"/>
          <path id="Path_98" data-name="Path 98" d="M251.853,315.511h1.954v5.633a1.954,1.954,0,0,0,3.908,0v-5.633h1.954v5.633h0a3.908,3.908,0,0,1-7.816,0Z" transform="translate(-127.888 -224.453)" fill="#fff"/>
          <path id="Path_99" data-name="Path 99" d="M288.609,315.511a4.766,4.766,0,1,0,4.776,4.767,4.772,4.772,0,0,0-4.776-4.767m0,7.583a2.816,2.816,0,1,1,2.822-2.816,2.82,2.82,0,0,1-2.822,2.816" transform="translate(-130.776 -224.453)" fill="#fff"/>
          <rect id="Rectangle_112" data-name="Rectangle 112" width="1.954" height="9.533" transform="translate(173.681 91.059)" fill="#fff"/>
          <path id="Path_100" data-name="Path 100" d="M303.8,318.761a3.252,3.252,0,0,0-3.256-3.25h-4.777v9.533h1.954v-3.033h2.012l2.113,3.033H303.8l-2.236-3.211a3.24,3.24,0,0,0,2.236-3.071m-3.256,1.3h-2.823v-2.6h2.823a1.3,1.3,0,1,1,0,2.6" transform="translate(-131.854 -224.453)" fill="#fff"/>
          <path id="Path_101" data-name="Path 101" d="M326.555,320.178l-2.822-4.668H321.78l3.8,6.283v3.25h1.954v-3.25l3.8-6.283h-1.954Z" transform="translate(-134.204 -224.453)" fill="#fff"/>
          <path id="Path_102" data-name="Path 102" d="M191.084,315.511h0l-3.908,9.533h1.954l.8-1.95h4.263l.8,1.95h1.954l-3.908-9.533Zm-.444,5.849,1.421-3.467,1.421,3.467Z" transform="translate(-122.046 -224.453)" fill="#fff"/>
          <path id="Path_103" data-name="Path 103" d="M168.218,315.511h-1.954l-3.908,9.533h1.954l.8-1.95h4.263l.8,1.95h1.953Zm.444,5.849H165.82l1.421-3.466Z" transform="translate(-119.804 -224.453)" fill="#fff"/>
          <path id="Path_104" data-name="Path 104" d="M182.994,299.838l-1.633.983a.649.649,0,0,0-.321.55v1.291a1.952,1.952,0,0,1-1.954,1.95h-.651a1.952,1.952,0,0,1-1.954-1.95v-2.825l-1.633.983a.651.651,0,0,0-.321.55v1.291a3.9,3.9,0,0,0,3.908,3.9h.651a3.9,3.9,0,0,0,3.908-3.9Z" transform="translate(-120.903 -223.038)" fill="#fff"/>
          <path id="Path_105" data-name="Path 105" d="M262.115,317.461h3.365v7.583h1.954v-7.583H270.8v-1.949h-8.684Z" transform="translate(-128.815 -224.453)" fill="#fff"/>
          <path id="Path_106" data-name="Path 106" d="M310.563,317.461h3.365v7.583h1.954v-7.583h3.365v-1.949h-8.684Z" transform="translate(-133.191 -224.453)" fill="#fff"/>
          <path id="Path_107" data-name="Path 107" d="M288.057,296.494v-1.173l-1.172,0a.5.5,0,0,0-.5.5V297l1.173,0a.5.5,0,0,0,.5-.5" transform="translate(-131.007 -222.63)" fill="#fff"/>
          <path id="Path_108" data-name="Path 108" d="M290.663,296.494v-1.173l-1.172,0a.5.5,0,0,0-.5.5V297l1.172,0a.5.5,0,0,0,.5-.5" transform="translate(-131.242 -222.63)" fill="#fff"/>
          <path id="Path_109" data-name="Path 109" d="M303.123,309.082l0,1.172h1.172a.5.5,0,0,0,.5-.5v-1.173h-1.173a.5.5,0,0,0-.5.5" transform="translate(-132.519 -223.827)" fill="#fff"/>
          <path id="Path_110" data-name="Path 110" d="M307.4,309.75v-1.172h-1.172a.5.5,0,0,0-.5.5v1.173H306.9a.5.5,0,0,0,.5-.5" transform="translate(-132.754 -223.827)" fill="#fff"/>
          <path id="Path_111" data-name="Path 111" d="M233.882,296.494v-1.173l-1.172,0a.5.5,0,0,0-.5.5V297l1.172,0a.5.5,0,0,0,.5-.5" transform="translate(-126.113 -222.63)" fill="#fff"/>
          <path id="Path_112" data-name="Path 112" d="M236.488,296.494v-1.173l-1.172,0a.5.5,0,0,0-.5.5l0,1.173,1.173,0a.5.5,0,0,0,.5-.5" transform="translate(-126.349 -222.63)" fill="#fff"/>
          <path id="Path_113" data-name="Path 113" d="M196.77,309.75v-1.172H195.6a.5.5,0,0,0-.5.5v1.173h1.173a.5.5,0,0,0,.5-.5" transform="translate(-122.761 -223.827)" fill="#fff"/>
          <path id="Path_114" data-name="Path 114" d="M199.376,309.751v-1.173l-1.172,0a.5.5,0,0,0-.5.5v1.173l1.173,0a.5.5,0,0,0,.5-.5" transform="translate(-122.997 -223.827)" fill="#fff"/>
          <path id="Path_115" data-name="Path 115" d="M179.935,296.494v-1.173l-1.172,0a.5.5,0,0,0-.5.5V297l1.173,0a.5.5,0,0,0,.5-.5" transform="translate(-121.241 -222.63)" fill="#fff"/>
          <path id="Path_116" data-name="Path 116" d="M136.5,296.494v-1.173l-1.172,0a.5.5,0,0,0-.5.5l0,1.173L136,297a.5.5,0,0,0,.5-.5" transform="translate(-117.317 -222.63)" fill="#fff"/>
          <path id="Path_117" data-name="Path 117" d="M122.19,309.75v-1.172h-1.172a.5.5,0,0,0-.5.5l0,1.173h1.173a.5.5,0,0,0,.5-.5" transform="translate(-116.025 -223.827)" fill="#fff"/>
          <path id="Path_118" data-name="Path 118" d="M124.8,309.75v-1.172h-1.172a.5.5,0,0,0-.5.5v1.173h1.173a.5.5,0,0,0,.5-.5" transform="translate(-116.26 -223.827)" fill="#fff"/>
          <path id="Path_119" data-name="Path 119" d="M301.23,297.022h-.784a.417.417,0,1,1,0-.833h.784v-.868h-.784a1.288,1.288,0,0,0-1.287,1.284,1.265,1.265,0,0,0,.071.417h-1.392v.868h3.392Z" transform="translate(-132.041 -222.63)" fill="#fff"/>
          <path id="Path_120" data-name="Path 120" d="M149.274,323.094v-7.583H147.32v9.533h8.033a.648.648,0,0,0,.55-.32h0l.985-1.629Z" transform="translate(-118.446 -224.453)" fill="#fff"/>
          <path id="Path_121" data-name="Path 121" d="M258.874,241.871l7.258,7.83,16.231-7.384a33.353,33.353,0,0,1-23.49-.446" transform="translate(-128.522 -217.802)" fill="#fff"/>
          <path id="Path_122" data-name="Path 122" d="M175.166,246.427s-3.36,9.476,19.66,9.476,58.77-9.114,58.77-9.114-25.2,9.149-40.78,12.216-43.06,7.9-37.65-12.578" transform="translate(-120.898 -218.213)" fill="#fff"/>
          <path id="Path_123" data-name="Path 123" d="M257.832,251.129s-61.358,25-76.645,12.567c0,0,7.011,8.2,17.534,8.2,12.059,0,29.435-4.962,59.111-20.766" transform="translate(-121.505 -218.638)" fill="#fff"/>
          <path id="Path_124" data-name="Path 124" d="M193.332,227.372s-4.066,2.876-5.132,6.956-1.016,13.913,62.136,6.825a184.74,184.74,0,0,1-52.28,7.708c-29,0-21.395-14.316-4.723-21.489" transform="translate(-121.267 -216.492)" fill="#fff"/>
          <path id="Path_125" data-name="Path 125" d="M221.443,281.3a30.987,30.987,0,0,0,29.771-22.411c-20.83,10.366-36.493,15.513-48.613,16.016a30.837,30.837,0,0,0,18.842,6.4" transform="translate(-123.439 -219.339)" fill="#fff"/>
          <path id="Path_126" data-name="Path 126" d="M205.5,239.889c10.137.8,25.186.113,44.722-2.045a30.981,30.981,0,0,0-58.68-2.609,1.951,1.951,0,0,0,.47.911c.929,1.072,3.915,2.984,13.487,3.743" transform="translate(-122.44 -215.412)" fill="#fff"/>
        </g>
      </g>
    </g>
  </g>
</svg>
