<svg xmlns="http://www.w3.org/2000/svg" width="69.486" height="69.486" viewBox="0 0 69.486 69.486">
  <g id="Group_15337" data-name="Group 15337" transform="translate(-1.668 -1.668)">
    <g id="Group_15345" data-name="Group 15345" transform="translate(1.999 1.999)">
      <g id="Group_15344" data-name="Group 15344" transform="translate(0 0)">
        <path id="Path_43040" data-name="Path 43040" d="M4,38.243A34.243,34.243,0,1,1,38.24,72.486,34.243,34.243,0,0,1,4,38.243Z" transform="translate(-3.831 -3.831)" fill="#fff" stroke="#8a1538" stroke-width="1" fill-rule="evenodd"/>
        <path id="Path_43041" data-name="Path 43041" d="M36.408,70.823A34.422,34.422,0,0,1,23.015,4.7,34.421,34.421,0,0,1,49.8,68.119,34.205,34.205,0,0,1,36.408,70.823Zm0-68.478A34.066,34.066,0,1,0,70.477,36.411,34.1,34.1,0,0,0,36.408,2.345Z" transform="translate(-1.999 -1.999)" fill="#70193d"/>
      </g>
    </g>
    <g id="Group_15346" data-name="Group 15346" transform="translate(2.217 33.666)">
      <path id="Path_43042" data-name="Path 43042" d="M17.893,359.031a11.558,11.558,0,0,1-.1-1.179l-1.154,2.087-.586-2.078-.715,2.078-.62-2.078-.683,2.049-.806-2.049-.682,2.049-.745-2.049-.651,2.049-.714-2.049-.621,2.078-.775-2.078-.682,2.078-.715-2.078-.682,2.078-.745-2.078-.589,2.078-.847-2.105a14.5,14.5,0,0,0-.191,3.391c-.246,18.957,15.546,33.747,34.49,33.56,17.82.028,34.043-14.427,33.936-33.484,0-.98-.2-3.455-.2-3.455l-.865,2.093-.652-2.078-.713,2.078-.681-2.078-.654,2.078-.714-2.078-.681,2.078-.712-2.078-.747,2.078-.713-2.078-.714,2.078-.68-2.078-.654,2.078-.713-2.078-.652,2.078-.742-2.078-.594,2.078-1.189-2.083s-.289,3.373-.306,5.857a7.423,7.423,0,0,1-.159.763c-.013.131-.281.66-.31.784a29.1,29.1,0,0,1-1.572,4.71c-1.611,3.24-3.8,4.865-5.758,6.44a18.955,18.955,0,0,1-7.879,4.148c-3.382.7-4.621,1.059-8.5.515a17.825,17.825,0,0,1-8.442-3.058,25.8,25.8,0,0,1-4.466-4.33,21.086,21.086,0,0,1-3.227-5.661,29.751,29.751,0,0,1-.982-4.637,5.209,5.209,0,0,1-.212-1.7c.114-.605-.065-1.614-.038-2.662Z" transform="translate(-4.583 -357.834)" fill="#70193d" fill-rule="evenodd"/>
    </g>
    <g id="Group_15347" data-name="Group 15347" transform="translate(15.7 15.618)">
      <path id="Path_43043" data-name="Path 43043" d="M154.666,174.5a20.758,20.758,0,1,1,20.755,20.758A20.756,20.756,0,0,1,154.666,174.5Z" transform="translate(-154.663 -153.746)" fill="#ffe756" fill-rule="evenodd"/>
      <path id="Path_43044" data-name="Path 43044" d="M175.384,195.229a20.9,20.9,0,0,1-4.183-.422,20.645,20.645,0,0,1-7.423-3.124,20.825,20.825,0,0,1-7.521-9.135,20.655,20.655,0,0,1-1.21-3.9,20.964,20.964,0,0,1,0-8.368,20.646,20.646,0,0,1,3.124-7.423,20.822,20.822,0,0,1,9.133-7.521,20.65,20.65,0,0,1,3.9-1.21,20.963,20.963,0,0,1,8.368,0,20.651,20.651,0,0,1,7.425,3.124,20.819,20.819,0,0,1,7.523,9.133,20.651,20.651,0,0,1,1.21,3.9,20.956,20.956,0,0,1,0,8.368,20.646,20.646,0,0,1-3.125,7.424,20.828,20.828,0,0,1-9.136,7.522,20.661,20.661,0,0,1-3.9,1.21A20.919,20.919,0,0,1,175.384,195.229Zm0-41.514a20.753,20.753,0,1,0,20.758,20.752A20.775,20.775,0,0,0,175.384,153.715Z" transform="translate(-154.625 -153.708)" fill="#70193d"/>
    </g>
    <g id="Group_15348" data-name="Group 15348" transform="translate(38.804 28.48)">
      <path id="Path_43045" data-name="Path 43045" d="M434.5,319.653s-.877,0-1.491,0c-.7,0-.549-.288-1.5-.012a4.832,4.832,0,0,1-1.527.314,4.434,4.434,0,0,1-1.57-.091c-.749-.073-.7-.3-1.461-.3a3.421,3.421,0,0,0-1.237.149s.064-.7.487-.873a2,2,0,0,1,1.322-.349,6.808,6.808,0,0,0,1.57-.123c.272-.07.864-.032.746-.848-.124-.884-.773-3.963-.82-4.784-.04-.578-.326-4.285-.326-4.285s.123-.8.148-1.023.252-.971.252-.971.471.025.55.224.427.248.3.546a9.153,9.153,0,0,0-.179,3.25c.129,1.018.209,2.479.34,3.289a16.784,16.784,0,0,0,1.183,3.8c.183.267.323.126.5.026a12.364,12.364,0,0,0,.471-2.715,29.1,29.1,0,0,0-.061-2.919,9.583,9.583,0,0,0-1.282-4.407c-.237-.393,0,.026.023-.224s.027-.423.027-.423a4.578,4.578,0,0,1,.5.074.715.715,0,0,1,.25.075,9.26,9.26,0,0,1,.893,2.034,11.821,11.821,0,0,1,.54,3.912c-.045,1.322.061,4.419.061,4.419a1.052,1.052,0,0,0,.72.348c.5.049,1.83-.024,2.75.126l-1.938,1.938Z" transform="translate(-425.72 -306.459)" fill="#7d000b" fill-rule="evenodd"/>
    </g>
    <g id="Group_15349" data-name="Group 15349" transform="translate(30.852 36.246)">
      <path id="Path_43046" data-name="Path 43046" d="M335.832,397.807a7.676,7.676,0,0,0,.637,1.786l-.178.2c-.153-.561-.612-1.4-.692-1.914Z" transform="translate(-335.599 -397.807)" fill-rule="evenodd"/>
    </g>
    <g id="Group_15350" data-name="Group 15350" transform="translate(26.072 18.822)">
      <path id="Path_43047" data-name="Path 43047" d="M280.523,194.59s1.546,2.241,3.971,5.993c.773,1.194,3.59,4.992,3.754,5.966.038.223.2,5.134.2,5.134l.025.647a3.685,3.685,0,0,0-3.72-.979,4,4,0,0,0-3.361,3.622,9.132,9.132,0,0,1-1.766-4.611c-.143-1.08-.22-5.316-.226-6.056a58.893,58.893,0,0,1,1.223-8.248c.081-.355-.331-1.085-.244-1.308.069-.181.143-.161.143-.161Z" transform="translate(-279.401 -194.589)" fill="none"/>
    </g>
    <g id="Group_15351" data-name="Group 15351" transform="translate(24.913 41.437)">
      <path id="Path_43048" data-name="Path 43048" d="M263.852,457.213s1.289-.421,1.764-.066c.358.269.817.62,1.175.49a10.954,10.954,0,0,1,2.285-.653c.913,0,1.632.49,2.285.39.425-.062,1.762-.88,2.758-.622a15.9,15.9,0,0,0,2.171.537,18.8,18.8,0,0,0,1.94-.209c1.079-.1,2.465.427,3.479.327,1.036-.1,2.364-.978,4.878-.194a26.519,26.519,0,0,1-2.791,2.282c-1.375,1.007-3.039,2.03-3.655,2.45a47.209,47.209,0,0,1-4.862,2.657s-3.318-1.666-4.832-2.591c-1.048-.642-3.564-2.39-4.473-3.068-.652-.49-2.122-1.729-2.122-1.729Z" transform="translate(-263.852 -456.701)" fill="#fff" fill-rule="evenodd"/>
    </g>
    <g id="Group_15352" data-name="Group 15352" transform="translate(32.318 35.738)">
      <path id="Path_43049" data-name="Path 43049" d="M352.8,391.973a5.647,5.647,0,0,0,.473,1.547l-.178.2c-.153-.561-.448-1.159-.528-1.675Z" transform="translate(-352.572 -391.973)" fill-rule="evenodd"/>
    </g>
    <g id="Group_15353" data-name="Group 15353" transform="translate(34.653 36.081)">
      <path id="Path_43050" data-name="Path 43050" d="M379.872,395.979c.052.415-.045,1.077-.018,1.6l-.226-.221c.032-.4.061-1.006.084-1.4Z" transform="translate(-379.628 -395.953)" fill-rule="evenodd"/>
    </g>
    <g id="Group_15354" data-name="Group 15354" transform="translate(35.064 36.395)">
      <path id="Path_43051" data-name="Path 43051" d="M384.043,400.865l2.638-1.266.063.169-2.7,1.351Z" transform="translate(-384.043 -399.599)" fill-rule="evenodd"/>
    </g>
    <g id="Group_15355" data-name="Group 15355" transform="translate(29.567 36.891)">
      <path id="Path_43052" data-name="Path 43052" d="M320.981,405.232a8.978,8.978,0,0,0,.607,1.95l-.178.2c-.153-.561-.582-1.561-.663-2.078Z" transform="translate(-320.748 -405.232)" fill-rule="evenodd"/>
    </g>
    <g id="Group_15356" data-name="Group 15356" transform="translate(25.638 35.748)">
      <path id="Path_43053" data-name="Path 43053" d="M275.511,391.362s-.379.208-.576.333-.622.348-.622.348a1.072,1.072,0,0,0,.022.476c.076.122.375.222.375.4s-.2,1.7-.3,2.142c-.039.174.025.25.074.4s.143.178.291.38a1.728,1.728,0,0,1,.182.815,1.427,1.427,0,0,0,.817,1.072,2.691,2.691,0,0,0,1.649-.373,2.923,2.923,0,0,1,1.9-.061,3.3,3.3,0,0,0,1.812.21,13.667,13.667,0,0,1,1.466-.422c.574-.073.492-.082.492-.082a9.708,9.708,0,0,0,.852-1.654,3.442,3.442,0,0,0,.154-1.031s-.9-2.015-1.582-1.885a13.719,13.719,0,0,0-2.852,1.534,11.984,11.984,0,0,0-1.793,1.3,1.987,1.987,0,0,1-1.578.465c-.7-.1-.78-.095-1.181-.392a1.808,1.808,0,0,0-.581-.323,1.787,1.787,0,0,1,.15-.423c.075-.1.672-.559.917-.755.326-.26.554-.424.554-.424a6.131,6.131,0,0,0-.228-.587,1.5,1.5,0,0,1-.2-.547c-.126-.474-.213-.911-.213-.911Z" transform="translate(-274.295 -391.362)" fill="#70193d" fill-rule="evenodd"/>
    </g>
    <g id="Group_15357" data-name="Group 15357" transform="translate(36.867 20.128)">
      <path id="Path_43054" data-name="Path 43054" d="M413.972,215.168c.3.074.6.175.6.175a2.911,2.911,0,0,0-.546-1.07,1.306,1.306,0,0,0-1.271-.524,2.335,2.335,0,0,0-.975.249,2.391,2.391,0,0,1,.475-.473,1.11,1.11,0,0,1,.971-.076c.326.076.724.151.724.151a6.024,6.024,0,0,0-1.146-.971,1.6,1.6,0,0,0-1.294-.1,4.964,4.964,0,0,0-1.249,1.12,4.9,4.9,0,0,1-1,.774,1.6,1.6,0,0,1,.075-.3c.049-.125.373-.35.674-.8a1.818,1.818,0,0,0,.345-.872c.126-.447.176-.374.4-.524s1,.249,1,.249a1.519,1.519,0,0,0-.226-.5,2.356,2.356,0,0,0-1.1-.823c-.523-.174-.674.274-.822.474s-.225.049-.225.049a1.022,1.022,0,0,0-.373-.6.9.9,0,0,0-.97.151c-.2.274,0,.647,0,.946a3.546,3.546,0,0,1-.1.748c-.024.1-.074.074-.2-.075s-.1-.3-.126-.724a2.724,2.724,0,0,1,.076-.722c.022-.324-.129-.287-.228-.274a1.1,1.1,0,0,0-.995.622c-.064.2.049.175-.271.225a2.345,2.345,0,0,0-1.227.647,2.218,2.218,0,0,0-.77,1.4.393.393,0,0,0,.25.45,9.2,9.2,0,0,1,.774-.9A.915.915,0,0,1,406,213c.2.025.2.1.273.2s-.048.2-.048.2a2.629,2.629,0,0,0-1.122.349c-.211.13-.4.268-.7.473a4.228,4.228,0,0,0-.647.847,2.778,2.778,0,0,0-.345,1.919,1.065,1.065,0,0,0,.422.748c.148.1.148.161.176.322a1.082,1.082,0,0,0,.547.8,4.429,4.429,0,0,0-.1,1.246,1.442,1.442,0,0,0,.574,1c.425.422.673.422.673.422l-.076-.6a2.194,2.194,0,0,1,.076-1.144.313.313,0,0,1,.322-.25,7.605,7.605,0,0,0,.249,1.37,1.83,1.83,0,0,0,.451.873s.193-1.519.221-1.944a8.9,8.9,0,0,1,.475-1.942c.072-.244.475-.1.352.1a7.527,7.527,0,0,0-.1,2.566c.151.6.5.7.5.7a3.11,3.11,0,0,0,.075-.374,9.1,9.1,0,0,1,.425-2.068c.148.026.428.221.825.744s.068,1.512.242,1.364a2.412,2.412,0,0,0,.8-1.286c.047-.309.016-.408-.014-.437.067.021.239.07.587.162.475.126.2-.173.226-.473s-.053-.548.072-.524a2.08,2.08,0,0,1,.95.848,7.657,7.657,0,0,1,.225,1.4,1.669,1.669,0,0,0,.521-.673,4.592,4.592,0,0,0,.148-.971c.019-.119.225.048.3-.1a6.166,6.166,0,0,0,.1-1.869,2.119,2.119,0,0,0-.6-1.073,1.576,1.576,0,0,0-.871-.473,2.025,2.025,0,0,1,.921-.423,1.735,1.735,0,0,1,.873.151Zm-8.548.274a2.158,2.158,0,0,0-.431.264,3.193,3.193,0,0,0-.266.359c-.205.294-.573.9-.573.9a1.151,1.151,0,0,1-.024-.548,1.738,1.738,0,0,1,.446-1.072,2.2,2.2,0,0,1,1.5-.274c.195.111-.152.1-.65.373Zm4.588.026s-.2-.526.7-1.1c.275-.175.8-.3.5,0a7.788,7.788,0,0,0-.573.548,5.341,5.341,0,0,1-.622.548Zm3.063,2.492a2.067,2.067,0,0,1,.024.522,3.264,3.264,0,0,0-.623-.82,1.612,1.612,0,0,0-1.019-.55c-.375-.074-.649-.148-.649-.148s-.124-.323.2-.375a1.426,1.426,0,0,1,1.172.3,1.686,1.686,0,0,1,.9,1.074Z" transform="translate(-403.374 -210.697)" fill="#02a03b" fill-rule="evenodd"/>
    </g>
    <g id="Group_15370" data-name="Group 15370" transform="translate(10.064 49.891)">
      <g id="Group_15358" data-name="Group 15358">
        <path id="Path_43055" data-name="Path 43055" d="M103.615,550.169l.8,1.885.274-.063a.957.957,0,0,1,.191-.033.109.109,0,0,1,.074.036.082.082,0,0,1,.022.07.081.081,0,0,1-.031.068.581.581,0,0,1-.235.081l-1.72.378.48.509a2.941,2.941,0,0,1,.435.643,2.166,2.166,0,0,1,.255.8,1.706,1.706,0,0,1-.057.731,1.275,1.275,0,0,1-.365.591,1.939,1.939,0,0,1-1.334.471,6.321,6.321,0,0,1-2.306-.581c-.12-.345-.269-.73-.446-1.164a4.808,4.808,0,0,1-1.728-1.1,1.342,1.342,0,0,1-.381-.8.683.683,0,0,1,.894-.743,1.648,1.648,0,0,1,.9.606,5.271,5.271,0,0,1,.408.558l.632-.151-.414-.433a3.358,3.358,0,0,1-.346-.49,1.754,1.754,0,0,1-.245-.611,1.027,1.027,0,0,1,.031-.516.967.967,0,0,1,.253-.4.936.936,0,0,1,.667-.255,1.374,1.374,0,0,1,.611.2l.035-.038a1.589,1.589,0,0,1,.889-.348,6.239,6.239,0,0,1,1.762.1Zm.046,2.057a7.129,7.129,0,0,0-.362-1.085,2.214,2.214,0,0,0-.348-.573.894.894,0,0,0-.59-.338.674.674,0,0,0-.768.66,1.013,1.013,0,0,0,.288.62c.127.143.436.445.933.906Zm-1.744.386a8.9,8.9,0,0,1-.746-.754,1.824,1.824,0,0,1-.438-.71.855.855,0,0,1,.074-.56.546.546,0,0,0-.557.1.523.523,0,0,0-.156.471,1.972,1.972,0,0,0,.544.96q.23.265.62.644Zm-.49.319a14.059,14.059,0,0,1,1.008.986,1.249,1.249,0,0,1,.362.789.755.755,0,0,1-.237.608.79.79,0,0,1-.605.181,3.878,3.878,0,0,1-1.254-.428l.362.811a2.979,2.979,0,0,0,1.1.141,1.373,1.373,0,0,0,.842-.37,1.2,1.2,0,0,0,.323-.56,1.335,1.335,0,0,0-.027-.766,2.14,2.14,0,0,0-.458-.8,8.074,8.074,0,0,0-.755-.738Zm-1.582.352c.139.248.252.456.331.621s.22.469.411.91c.628.274,1.047.31,1.262.113a.337.337,0,0,0,.1-.26.442.442,0,0,0-.121-.3,3.612,3.612,0,0,0-.408-.393,11.871,11.871,0,0,1-.9-.837Zm-.322,1.03a6.6,6.6,0,0,0-.915-1.549.9.9,0,0,0-.474-.314.3.3,0,0,0-.368.341,1.176,1.176,0,0,0,.309.588A4.179,4.179,0,0,0,99.523,554.312Z" transform="translate(-97.538 -550.037)" fill="#fff" fill-rule="evenodd"/>
      </g>
      <g id="Group_15359" data-name="Group 15359" transform="translate(5.7 5.057)">
        <path id="Path_43056" data-name="Path 43056" d="M167.216,610.242l1.827-.3.089.084-.8.855.622.58-.315.36-.621-.578L166.14,613.4l.116.586.338.027-.006.168-1.173-.071a2.539,2.539,0,0,0-.358-1.236l.056-.065a.563.563,0,0,0,.32-.027,1.082,1.082,0,0,0,.351-.293l1.6-1.834-.287-.267Z" transform="translate(-165.056 -609.942)" fill="#fff" fill-rule="evenodd"/>
      </g>
      <g id="Group_15360" data-name="Group 15360" transform="translate(8.05 7.159)">
        <path id="Path_43057" data-name="Path 43057" d="M197.234,636.06l.1.132a2.673,2.673,0,0,0-.521.325,1.646,1.646,0,0,0-.308.41l-.915,1.573a1.4,1.4,0,0,0-.228.527.2.2,0,0,0,.191.217c.024,0,.107-.009.244-.027l.007.17-1.191.185a1.73,1.73,0,0,1-.137-.624,1.322,1.322,0,0,1,.183-.555l-1.6.211a1.467,1.467,0,0,1,.479-1.947,4.525,4.525,0,0,1,1.13-.53l.12-1.212.111-.072a2.284,2.284,0,0,0,.2.142,1.144,1.144,0,0,0,.946.116,3.149,3.149,0,0,0,.42.606,2.17,2.17,0,0,0,.419.393.281.281,0,0,0,.129.044.88.88,0,0,0,.228-.085Zm-1.31.146-1-1.147-.118,1.225.569.868Zm-.638,1.1-.623-.954a2.222,2.222,0,0,0-.658.668,1.408,1.408,0,0,0-.049,1.31l.8-.115Z" transform="translate(-192.894 -634.844)" fill="#fff" fill-rule="evenodd"/>
      </g>
      <g id="Group_15361" data-name="Group 15361" transform="translate(11.785 8.361)">
        <path id="Path_43058" data-name="Path 43058" d="M238.525,649.887l1.673-.81.11.055-.544,1.049.755.381-.207.437-.753-.379-1.228,2.607.266.532.33-.072.042.162-1.146.267a2.522,2.522,0,0,0-.675-1.089l.035-.079a.583.583,0,0,0,.3-.115,1.187,1.187,0,0,0,.257-.383l1.049-2.219-.351-.176Z" transform="translate(-237.148 -649.077)" fill="#fff" fill-rule="evenodd"/>
      </g>
      <g id="Group_15362" data-name="Group 15362" transform="translate(14.539 10.538)">
        <path id="Path_43059" data-name="Path 43059" d="M272.774,674.872l.636,1.746-2.2.611-.26.739.779.713.765-.2.044.153-1.591.439a5.378,5.378,0,0,0-.53-.55,6.484,6.484,0,0,0-.644-.462l.035-.1a.4.4,0,0,0,.244-.132,1.667,1.667,0,0,0,.23-.5l.819-2.316c.277,0,.507-.006.7-.022.137-.013.466-.052.979-.117Zm-.76.239-.065.008-.645,1.835,1.291-.358Z" transform="translate(-269.772 -674.872)" fill="#fff" fill-rule="evenodd"/>
      </g>
      <g id="Group_15363" data-name="Group 15363" transform="translate(21.018 11.654)">
        <path id="Path_43060" data-name="Path 43060" d="M349.712,688.8l-.165,3.218a7.565,7.565,0,0,0-.92.382,2.2,2.2,0,0,0-.428.287,5.649,5.649,0,0,0-.971-.579,2.22,2.22,0,0,0-.671-.166l-.036-.088a.67.67,0,0,0,.211-.239,1.522,1.522,0,0,0,.086-.491l.118-2.363a3.858,3.858,0,0,0,1.341-.668,4.646,4.646,0,0,0,1.437.707Zm-2.074,2.695,1.065.521.137-2.735c-.334-.184-.567-.305-.707-.362a2.038,2.038,0,0,0-.356-.116Z" transform="translate(-346.52 -688.092)" fill="#fff" fill-rule="evenodd"/>
      </g>
      <g id="Group_15364" data-name="Group 15364" transform="translate(25.106 10.114)">
        <path id="Path_43061" data-name="Path 43061" d="M397,670.016l-.094.726-.769-.143.051,1.037.645-.037.024.484-.644.034.148,2.888.489.339.309-.288.1.116-.923.858a2.8,2.8,0,0,0-1.086-.6l-.03-.1a.6.6,0,0,0,.2-.218.838.838,0,0,0,.079-.43l-.129-2.516-.392.021-.025-.481.393-.022-.053-1.035a8.548,8.548,0,0,0,.9-.792Z" transform="translate(-394.948 -669.853)" fill="#fff" fill-rule="evenodd"/>
      </g>
      <g id="Group_15365" data-name="Group 15365" transform="translate(30.371 8.515)">
        <path id="Path_43062" data-name="Path 43062" d="M462.541,656.048a3.358,3.358,0,0,1-1.555,1.356,2.73,2.73,0,0,1-1.38.136,2.441,2.441,0,0,1-1.268-.567,2.7,2.7,0,0,1-.794-1.178,3.918,3.918,0,0,1-.195-.816,5.583,5.583,0,0,1-.021-.987,10.454,10.454,0,0,0,.714-.888q.215-.3,1.081-1.45c.119-.156.246-.338.388-.552a5.66,5.66,0,0,1,1.138-.2,3.255,3.255,0,0,1,1.2.163,2.577,2.577,0,0,1,.974.565,2.346,2.346,0,0,1,.611.946,2.226,2.226,0,0,1,.107,1.056,5.014,5.014,0,0,1-.554,1.646l1.308.385.179-.309.151.085-.571,1.04Zm-3.042-4.027c-.183.056-.358.114-.534.173l.841,2.392a2.032,2.032,0,0,1,.139.55,1.012,1.012,0,0,1-.062.363c-.048.13-.21.471-.483,1.026a2.516,2.516,0,0,0,.838.216,2.542,2.542,0,0,0,.87-.141Zm.547,1.018a2.254,2.254,0,0,0,.662.163,1.485,1.485,0,0,0,.591-.1,1.266,1.266,0,0,0,.466-.3,2.117,2.117,0,0,0,.363-.551,2.266,2.266,0,0,0-.573-.288,3.016,3.016,0,0,0-.9-.127,4.315,4.315,0,0,0-.982.131Zm-1.7-.014a3.25,3.25,0,0,0-.326.611,2.111,2.111,0,0,0-.126.685,2.138,2.138,0,0,0,.129.775,2.477,2.477,0,0,0,1.2,1.36.965.965,0,0,0,.112-.433,2.7,2.7,0,0,0-.183-.7Zm2.29,1.7a2.038,2.038,0,0,1,.378-.59,1.428,1.428,0,0,1,.519-.324,1.55,1.55,0,0,1,.641-.1,2.172,2.172,0,0,1,.722.206,3.013,3.013,0,0,0-.14-.737,2.711,2.711,0,0,0-.2-.457,2.158,2.158,0,0,0-.261-.324,2.86,2.86,0,0,1-.452.611,1.6,1.6,0,0,1-.521.311,1.467,1.467,0,0,1-.541.1,2.268,2.268,0,0,1-.65-.146Zm.639,1.811a2.464,2.464,0,0,0,.741-.467,2.7,2.7,0,0,0,.616-.875,3.23,3.23,0,0,0,.258-1.091,1.665,1.665,0,0,0-1.288-.111,1.3,1.3,0,0,0-.56.418,1.78,1.78,0,0,0-.3.607Z" transform="translate(-457.317 -650.901)" fill="#fff" fill-rule="evenodd"/>
      </g>
      <g id="Group_15366" data-name="Group 15366" transform="translate(37.059 7.641)">
        <path id="Path_43063" data-name="Path 43063" d="M538.682,640.579l.158-.028a3.192,3.192,0,0,0,.033.631,1.925,1.925,0,0,0,.205.473l.916,1.574a1.436,1.436,0,0,0,.34.455.2.2,0,0,0,.2.008.347.347,0,0,0,.079-.078c.008-.023.039-.1.089-.237l.148.074-.4,1.174a1.584,1.584,0,0,1-.6-.167,1.281,1.281,0,0,1-.387-.427l-.574,1.561a1.561,1.561,0,0,1-1.2-.641,1.81,1.81,0,0,1-.234-.713,5.106,5.106,0,0,1,.077-1.279l-.979-.68-.011-.134c.1-.048.172-.086.216-.113a1.223,1.223,0,0,0,.543-.811,2.89,2.89,0,0,0,.716-.1,2.062,2.062,0,0,0,.529-.2.307.307,0,0,0,.1-.1,1.181,1.181,0,0,0,.034-.25Zm-.489,1.264-1.448.372.99.682,1-.107Zm.636,1.1-1.1.122a2.369,2.369,0,0,0,.258.914,1.31,1.31,0,0,0,1.1.659l.28-.785Z" transform="translate(-536.542 -640.551)" fill="#fff" fill-rule="evenodd"/>
      </g>
      <g id="Group_15367" data-name="Group 15367" transform="translate(40.178 5.352)">
        <path id="Path_43064" data-name="Path 43064" d="M573.482,615.426l.06-1.909.1-.075.661.974.669-.52.282.388-.669.521,1.686,2.315.582,0,.089-.338.16.037-.294,1.176a2.368,2.368,0,0,0-1.241.127l-.052-.068a.636.636,0,0,0,.038-.329,1.162,1.162,0,0,0-.214-.412l-1.437-1.975-.31.242Z" transform="translate(-573.482 -613.442)" fill="#fff" fill-rule="evenodd"/>
      </g>
      <g id="Group_15368" data-name="Group 15368" transform="translate(42.621 3.187)">
        <path id="Path_43065" data-name="Path 43065" d="M604.24,587.854l.148-.06a3.032,3.032,0,0,0,.147.613,1.811,1.811,0,0,0,.292.425l1.188,1.363a1.358,1.358,0,0,0,.42.379.185.185,0,0,0,.195-.03.229.229,0,0,0,.062-.094,2.47,2.47,0,0,0,.044-.249l.159.041-.176,1.233a1.585,1.585,0,0,1-.616-.045,1.292,1.292,0,0,1-.461-.344l-.272,1.646a1.548,1.548,0,0,1-1.3-.39,1.759,1.759,0,0,1-.364-.654,5.221,5.221,0,0,1-.159-1.272l-1.087-.473-.032-.131a1.728,1.728,0,0,0,.192-.156,1.23,1.23,0,0,0,.381-.9,2.9,2.9,0,0,0,.686-.238,2.092,2.092,0,0,0,.484-.3.261.261,0,0,0,.077-.113.927.927,0,0,0-.009-.25Zm-.248,1.338-1.353.649,1.1.474.966-.305Zm.827.949-1.064.336a2.242,2.242,0,0,0,.422.848,1.293,1.293,0,0,0,1.2.431l.128-.825Z" transform="translate(-602.428 -587.794)" fill="#fff" fill-rule="evenodd"/>
      </g>
      <g id="Group_15369" data-name="Group 15369" transform="translate(45.18 0.551)">
        <path id="Path_43066" data-name="Path 43066" d="M633.644,556.611l.982-.049.065.866-.842.02.05.577,1.942,1.512.556-.181-.014-.567.166,0,.041,1.414a3.459,3.459,0,0,0-.7.2,2.051,2.051,0,0,0-.47.288l-.072-.056a.69.69,0,0,0-.063-.359,1.469,1.469,0,0,0-.37-.362l-1.355-1.058a.826.826,0,0,0-.387-.2.2.2,0,0,0-.18.063.481.481,0,0,0-.025.321l-.157.006-.073-1.194a2.085,2.085,0,0,1,.665-.107.633.633,0,0,1,.33.15Z" transform="translate(-632.74 -556.562)" fill="#fff" fill-rule="evenodd"/>
      </g>
    </g>
    <g id="Group_15381" data-name="Group 15381" transform="translate(10.473 3.679)">
      <g id="Group_15372" data-name="Group 15372" transform="translate(20.489 0.315)">
        <g id="Group_15371" data-name="Group 15371">
          <path id="Path_43067" data-name="Path 43067" d="M337.4,26.4a.764.764,0,1,1,.762.765A.762.762,0,0,1,337.4,26.4Z" transform="translate(-337.395 -25.634)" fill-rule="evenodd"/>
        </g>
      </g>
      <g id="Group_15374" data-name="Group 15374" transform="translate(22.268)">
        <g id="Group_15373" data-name="Group 15373" transform="translate(0)">
          <path id="Path_43068" data-name="Path 43068" d="M357.8,22.663a.765.765,0,1,1,.765.764.765.765,0,0,1-.765-.764Z" transform="translate(-357.796 -21.899)" fill-rule="evenodd"/>
        </g>
      </g>
      <g id="Group_15375" data-name="Group 15375" transform="translate(27.608 1.065)">
        <path id="Path_43069" data-name="Path 43069" d="M419.05,35.274a.765.765,0,1,1,.766.766A.764.764,0,0,1,419.05,35.274Z" transform="translate(-419.05 -34.512)" fill-rule="evenodd"/>
      </g>
      <g id="Group_15376" data-name="Group 15376" transform="translate(29.418 1.048)">
        <path id="Path_43070" data-name="Path 43070" d="M439.814,35.084a.765.765,0,1,1,.768.764A.766.766,0,0,1,439.814,35.084Z" transform="translate(-439.814 -34.319)" fill-rule="evenodd"/>
      </g>
      <g id="Group_15377" data-name="Group 15377" transform="translate(45.836 15.522)">
        <path id="Path_43071" data-name="Path 43071" d="M628.042,205.768l1.922.1a3.685,3.685,0,0,0,.335.973c.3.64.628,1.309,1.2,2.53a26.363,26.363,0,0,1,1.53,3.946,2.31,2.31,0,0,1-.443,1.975,5.528,5.528,0,0,1-2.371,1.184s-.72-2.83-1.2-4.089a26.764,26.764,0,0,0-2.939-5.4l1.111-.9s2.2,3.546,2.576,4.439a36.589,36.589,0,0,1,1.321,3.777.477.477,0,0,0,.513-.421c.057-.719-.84-2.933-1.577-4.514s-1.971-3.6-1.971-3.6Z" transform="translate(-626.07 -205.768)" fill-rule="evenodd"/>
      </g>
      <g id="Group_15378" data-name="Group 15378" transform="translate(27.971 2.743)">
        <path id="Path_43072" data-name="Path 43072" d="M433.12,59.594a3.361,3.361,0,0,1-1.167-.26l-.062.54-2.756,3.147a32.743,32.743,0,0,0-5.964-3.626c-1.051-.481-5.249-1.65-5.249-1.65l.21-3.358a7.375,7.375,0,0,1-.87.421,8.277,8.277,0,0,1-1.617.24c-.988.107-1.2,1.408-1.2,1.408v2.339a25.226,25.226,0,0,1,7.464,1.648,31.346,31.346,0,0,1,7.464,4.652l4.637-5.352A5.155,5.155,0,0,0,433.12,59.594Zm-17.266-2.149c-.074,0-.069-.455.03-.689.22-.521.628-.3.628-.3l.029,1.048a6.23,6.23,0,0,0-.688-.059Z" transform="translate(-414.444 -54.387)" fill-rule="evenodd"/>
      </g>
      <g id="Group_15379" data-name="Group 15379" transform="translate(40.996 11.958)">
        <path id="Path_43073" data-name="Path 43073" d="M575.493,164.361c-.3-.191-1.077-.527-1.481-.717a1.451,1.451,0,0,0-1.283.222,10.067,10.067,0,0,0-1.407,1.605c-.085.31.9,1.221,1.023,1.343s-.183.6-.6.748a.652.652,0,0,1-.84-.341c-.209-.3-.4-1.029-.573-1.276a1.62,1.62,0,0,0-.684-.6,1.679,1.679,0,0,0-.842.03s-.269.36.211.6a1.874,1.874,0,0,0,.681.183c.243.053.177.095.392.348.274.32.074.3.322.937s.494,1.109,1.306,1.184,1.61-.817,2.215-1.334,2.7-2.518,2.7-2.518A3.358,3.358,0,0,1,575.493,164.361Zm-2.016,1.466s-.444-.124-.368-.395a.49.49,0,0,1,.461-.266,1.194,1.194,0,0,1,.513.179Z" transform="translate(-568.73 -163.559)" fill-rule="evenodd"/>
      </g>
      <g id="Group_15380" data-name="Group 15380" transform="translate(0 1.069)">
        <path id="Path_43074" data-name="Path 43074" d="M126.116,34.9a12.986,12.986,0,0,0-2.126.543c-.663.271-.539,1.553-.565,1.9s.113,1.168.3,1.227a14.868,14.868,0,0,0,1.652-.067l.022.715a26.359,26.359,0,0,0-2.7.34c-1.019.212-2.131.449-2.131.449A4.54,4.54,0,0,0,119.4,38.9a3.486,3.486,0,0,0-2.145.024,27.531,27.531,0,0,0-4.144,2c-.938.566-3.308,2.343-3.308,2.343a22.405,22.405,0,0,0-1.578-1.777c-.474-.437-.79-.715-.79-.715L107,43.067a1.488,1.488,0,0,1,.788.05,29.674,29.674,0,0,1,2.049,2.268.611.611,0,0,1-.1.816,38.619,38.619,0,0,0-3.283,3.911,24.734,24.734,0,0,0-2.291,4.08c-.083.187-.148-.05-.614.024a9.857,9.857,0,0,0-1.163.3l1.111,1.481a3.078,3.078,0,0,1,1.1-.425,1.105,1.105,0,0,1,1.046.277,1.191,1.191,0,0,1,.346.961,1.567,1.567,0,0,1-.567.961.875.875,0,0,0-.437.769c-.029.187.121.63.45.538.6.032.332-.788.332-.788s-.049-.1.049-.495.616-.395.815-.862a2.9,2.9,0,0,0,.1-1.572c-.1-.371-.515-.5-.762-.673a.391.391,0,0,1-.148-.444,23.542,23.542,0,0,1,1.6-2.935,24.942,24.942,0,0,1,3.945-4.489,24.264,24.264,0,0,1,8.551-5.068,27.315,27.315,0,0,1,6.868-1.15v-6.04A2.218,2.218,0,0,1,126.116,34.9Zm-1.286,2.469a2.311,2.311,0,0,1-.03-.569c.075-.247.527-.232.527-.232l.011.8Zm-9.206,4.648a22.517,22.517,0,0,0-4.212,2.824s-.82-.445-.373-.818,1.884-1.328,2.863-1.994a18.663,18.663,0,0,1,3.356-1.727,2.539,2.539,0,0,1,1.111-.173,1.1,1.1,0,0,1,.524.42s-2,.826-3.269,1.468Z" transform="translate(-102.383 -34.559)" fill-rule="evenodd"/>
      </g>
    </g>
    <g id="Group_15382" data-name="Group 15382" transform="translate(25.937 19.006)">
      <path id="Path_43075" data-name="Path 43075" d="M279.5,196.712s1.55,2.241,3.97,5.993c.774,1.194,3.593,4.992,3.757,5.967.036.223.2,5.134.2,5.134l.027.647a3.681,3.681,0,0,0-3.718-.979,4,4,0,0,0-3.362,3.622,19.826,19.826,0,0,1-2.588-10.487,35.815,35.815,0,0,1,1.577-9.735c.065-.18.14-.161.14-.161Z" transform="translate(-277.776 -196.71)" fill="#fff" fill-rule="evenodd"/>
      <path id="Path_43076" data-name="Path 43076" d="M280.356,217.084l0,0a17.811,17.811,0,0,1-1.22-2.5,18.777,18.777,0,0,1-.811-2.6,20.9,20.9,0,0,1-.442-2.672,24.111,24.111,0,0,1-.115-2.716,35.914,35.914,0,0,1,1.577-9.736c.053-.148.112-.162.133-.162h.008c.016.022,1.578,2.284,3.97,5.993.195.3.521.769.9,1.312.556.8,1.247,1.79,1.805,2.66a7.585,7.585,0,0,1,1.052,1.995c.036.22.2,5.085.2,5.134l.027.65,0,0a2.981,2.981,0,0,0-.919-.7,4.09,4.09,0,0,0-2.8-.281,5.042,5.042,0,0,0-.709.213,4.974,4.974,0,0,1,.709-.216,4.6,4.6,0,0,1,1.639-.082,3.68,3.68,0,0,1,1.161.363,3.01,3.01,0,0,1,.917.7l-.027-.643c0-.049-.161-4.914-.2-5.134a7.584,7.584,0,0,0-1.052-1.994c-.558-.87-1.25-1.863-1.805-2.66-.378-.543-.7-1.011-.9-1.312-2.382-3.693-3.942-5.951-3.97-5.992h-.006c-.019,0-.079.013-.132.16a35.908,35.908,0,0,0-1.577,9.735,19.835,19.835,0,0,0,2.586,10.483,3.314,3.314,0,0,1,.333-1.41,3.6,3.6,0,0,1,.81-1.07l.067-.06a3.414,3.414,0,0,0-1.207,2.544Z" transform="translate(-277.763 -196.695)"/>
    </g>
    <g id="Group_15383" data-name="Group 15383" transform="translate(33.339 36.86)">
      <path id="Path_43077" data-name="Path 43077" d="M364.374,409.2h0a8.843,8.843,0,0,0,.728-4.061c0-.24.009-.467.018-.664h0c-.009.2-.013.424-.018.664a18.261,18.261,0,0,1-.12,2.046A5.433,5.433,0,0,1,364.374,409.2Z" transform="translate(-364.372 -404.47)" fill="#fff"/>
    </g>
    <g id="Group_15393" data-name="Group 15393" transform="translate(24.916 41.424)">
      <g id="Group_15384" data-name="Group 15384" transform="translate(1.047 0.826)">
        <path id="Path_43078" data-name="Path 43078" d="M276.253,466.918a5.649,5.649,0,0,0,2.219.281c.428-.121.838-.595,1.661-.595s1.157.423,2.254.5a2.858,2.858,0,0,0,1.775-.527,2.31,2.31,0,0,1,1.741-.016,6.393,6.393,0,0,0,1.705.543,8.492,8.492,0,0,0,1.9-.453,2.857,2.857,0,0,1,1.376.016,7.532,7.532,0,0,0,1.588.334,22.139,22.139,0,0,0,2.971-.585,4.9,4.9,0,0,1,1.5.474l-.217.2a3.142,3.142,0,0,0-1.279-.449c-.721,0-1.536.586-2.612.653-.886.054-1.862-.554-2.873-.457a22.53,22.53,0,0,1-2.219.587c-.574,0-2.194-.816-2.611-.816-.85,0-1.371.686-2.284.782-.823.09-1.925-.554-2.807-.521-.655.024-1.021.537-1.306.62a3.441,3.441,0,0,1-1.859-.132Z" transform="translate(-276.253 -466.398)" fill="#02bee7" fill-rule="evenodd"/>
      </g>
      <g id="Group_15385" data-name="Group 15385" transform="translate(2.833 1.643)">
        <path id="Path_43079" data-name="Path 43079" d="M297.413,477.1c.427-.119,1.271-.815,2.094-.815s1.157.423,2.254.5a2.852,2.852,0,0,0,1.775-.528,2.325,2.325,0,0,1,1.741-.014,6.432,6.432,0,0,0,1.706.542,8.621,8.621,0,0,0,1.9-.451,2.807,2.807,0,0,1,1.376.016,11.678,11.678,0,0,0,1.588.333c1.3.135,2.79-.71,3.735-.35.185.071-.094.309-.265.214-.387-.214-2.037.369-3.112.434-.886.054-1.863-.556-2.873-.457a22.515,22.515,0,0,1-2.219.587c-.573,0-2.194-.816-2.611-.816-.85,0-1.371.686-2.284.783-.823.089-1.925-.555-2.807-.521a4.624,4.624,0,0,0-1.737.783Z" transform="translate(-297.413 -476.076)" fill="#02bee7" fill-rule="evenodd"/>
      </g>
      <g id="Group_15386" data-name="Group 15386" transform="translate(3.608 2.557)">
        <path id="Path_43080" data-name="Path 43080" d="M306.59,487.646a2.24,2.24,0,0,1,1.319-.538c1.144-.091,1.157.423,2.254.5a2.883,2.883,0,0,0,1.775-.527,2.32,2.32,0,0,1,1.741-.016,6.4,6.4,0,0,0,1.706.543,8.676,8.676,0,0,0,1.9-.451,2.815,2.815,0,0,1,1.376.016,7.611,7.611,0,0,0,1.588.332c.914.038,2.445-.643,2.871-.582l-.424.294c-.721,0-1.145.481-2.219.588-.979.1-1.731-.556-2.741-.457a22.8,22.8,0,0,1-2.219.588c-.574,0-2.194-.818-2.611-.818-.85,0-1.371.687-2.284.783-.823.089-1.938-.684-2.807-.521-.522.1-.7.367-.987.448Z" transform="translate(-306.59 -486.902)" fill="#02bee7" fill-rule="evenodd"/>
      </g>
      <g id="Group_15387" data-name="Group 15387" transform="translate(4.325 3.405)">
        <path id="Path_43081" data-name="Path 43081" d="M315.091,497.36c1.176-.326,1.759.22,2.856.293a2.859,2.859,0,0,0,1.775-.527,2.315,2.315,0,0,1,1.742-.014,6.4,6.4,0,0,0,1.706.541,8.737,8.737,0,0,0,1.9-.45,2.815,2.815,0,0,1,1.376.016,17,17,0,0,0,2.317.434l-.37.2c-.915-.033-1.863-.555-2.873-.458a22.514,22.514,0,0,1-2.219.588c-.574,0-2.194-.817-2.611-.817-.85,0-1.375.661-2.284.784-1.21.162-1.925-.685-2.841-.36Z" transform="translate(-315.091 -496.951)" fill="#02bee7" fill-rule="evenodd"/>
      </g>
      <g id="Group_15388" data-name="Group 15388" transform="translate(5.745 4.221)">
        <path id="Path_43082" data-name="Path 43082" d="M331.91,507.069c.822,0,.307.176,1.4.253a2.993,2.993,0,0,0,1.807-.528,2.309,2.309,0,0,1,1.741-.012,6.481,6.481,0,0,0,1.706.54,8.64,8.64,0,0,0,1.9-.451,2.866,2.866,0,0,1,1.376.014c.445.1.6.141,1.236.249.2.032-.27.188-.27.188-.749,0-.881-.36-1.892-.261a22.516,22.516,0,0,1-2.219.588c-.574,0-2.194-.817-2.611-.817-.85,0-1.371.685-2.284.782-.823.09-.98-.227-1.437-.227Z" transform="translate(-331.91 -506.619)" fill="#02bee7" fill-rule="evenodd"/>
      </g>
      <g id="Group_15389" data-name="Group 15389" transform="translate(7.509 5.063)">
        <path id="Path_43083" data-name="Path 43083" d="M352.8,517.272a2.176,2.176,0,0,0,1.532-.473,1.852,1.852,0,0,1,1.657-.035,6.479,6.479,0,0,0,1.706.541,8.675,8.675,0,0,0,1.9-.451,4.1,4.1,0,0,1,1.645.091l-.431.26c-.85-.295-2.409.426-2.982.426s-2.194-.823-2.611-.816c-.945.016-.954.663-1.982.76Z" transform="translate(-352.8 -516.596)" fill="#02bee7" fill-rule="evenodd"/>
      </g>
      <g id="Group_15390" data-name="Group 15390" transform="translate(8.47 5.893)">
        <path id="Path_43084" data-name="Path 43084" d="M364.192,526.922c.57-.115.651-.332,1-.439.261-.081.28-.127,1.248.192a6.928,6.928,0,0,0,1.749.581c.52,0,1.542-.673,1.895-.449.061.026-.29.2-.29.2-.621.047-.963.472-1.646.472-.721,0-2.2-.849-2.629-.766a1.9,1.9,0,0,0-.931.359Z" transform="translate(-364.192 -526.423)" fill="#02bee7" fill-rule="evenodd"/>
      </g>
      <g id="Group_15391" data-name="Group 15391" transform="translate(9.367 6.722)">
        <path id="Path_43085" data-name="Path 43085" d="M374.811,536.354c.182-.05.2-.256,1.168.061a6.391,6.391,0,0,0,1.705.543l-.26.146c-.573,0-1.714-.62-2.287-.587Z" transform="translate(-374.811 -536.242)" fill="#02bee7" fill-rule="evenodd"/>
      </g>
      <g id="Group_15392" data-name="Group 15392">
        <path id="Path_43086" data-name="Path 43086" d="M263.852,457.134s1.228-.441,1.7-.15c.37.234.549.5,1.091.46.635-.045,1.17-.492,2.043-.575a4.465,4.465,0,0,1,1.47.175,2.435,2.435,0,0,0,1.922-.045,3.068,3.068,0,0,1,2.04-.328c.971.173,1.6.537,2.171.537a15.093,15.093,0,0,1,3-.209,10.13,10.13,0,0,0,2.154.327c.685-.034,1.891-.44,2.658-.537a5.788,5.788,0,0,1,2.432.343c.4.125.089.061.089.061l-.3.252a4.876,4.876,0,0,0-.705-.281,2.562,2.562,0,0,0-1.5-.166,18.293,18.293,0,0,1-2.641.524,11.7,11.7,0,0,1-2.448-.294,19.752,19.752,0,0,0-2.775.227c-.83-.031-1.745-.667-2.921-.6-.627.034-1.206.537-1.925.6a4.183,4.183,0,0,1-1.747-.227,2.637,2.637,0,0,0-1.747.064,3.775,3.775,0,0,1-1.387.393,1.535,1.535,0,0,1-.848-.294,1.884,1.884,0,0,0-.9-.2,1.685,1.685,0,0,0-.573.2Z" transform="translate(-263.852 -456.616)" fill="#02bee7" fill-rule="evenodd"/>
      </g>
    </g>
    <g id="Group_15396" data-name="Group 15396" transform="translate(18.666 34.842)">
      <g id="Group_15394" data-name="Group 15394" transform="translate(0 0.002)">
        <path id="Path_43087" data-name="Path 43087" d="M193.921,385.856a16.62,16.62,0,0,0,2.511,4.434,33.457,33.457,0,0,0,4.6,4.57c2.454,2.03,7.176,5.362,10.173,6.359,1.766.59,3.766,1.355,3.766,1.355a.479.479,0,0,1,.226.572,3.664,3.664,0,0,1-.551.724c-.223.3-.262.55-.121.723a.573.573,0,0,0,.77.2c.578-.23.522-.448.723-.972a2.6,2.6,0,0,0,.153-1.026,1.051,1.051,0,0,1,.607.031c.295.148.607.039,1.106.114s.972-.092,1.1.109.25.473.581.534a.922.922,0,0,0,.99-.261.973.973,0,0,0-.076-1.2c-.25-.3-.772-.4-1.646-.547a9.747,9.747,0,0,1-1.642-.225c-.225-.149-.374-.25-.35-.448a1.1,1.1,0,0,1,.151-.672,3.14,3.14,0,0,1,.447-.6.471.471,0,0,0-.123-.7.851.851,0,0,0-1.072.249,1.806,1.806,0,0,0-.324,1.047,2.625,2.625,0,0,1-.049.672c-.1.4-.417.347-1.145.124a29.344,29.344,0,0,1-6.953-3.091,47.85,47.85,0,0,1-10.792-8.287C195.669,388.239,193.921,385.856,193.921,385.856Z" transform="translate(-193.576 -385.207)" fill="#fff" fill-rule="evenodd"/>
        <path id="Path_43088" data-name="Path 43088" d="M211.246,397.925a.662.662,0,0,1-.542-.305c-.1-.122-.219-.4.119-.851.086-.114.175-.214.254-.3a1.325,1.325,0,0,0,.281-.391c.041-.125.048-.265-.178-.445-.187-.071-2.083-.792-3.747-1.348-3.065-1.021-7.783-4.374-10.206-6.378a33.66,33.66,0,0,1-4.617-4.584,16.87,16.87,0,0,1-2.53-4.466l-.246-.685.43.586c.017.024,1.76,2.394,3.052,3.787a48.138,48.138,0,0,0,10.768,8.267,29.288,29.288,0,0,0,6.931,3.081c.4.124.75.219.9.135a.257.257,0,0,0,.113-.184.839.839,0,0,0,.033-.278c0-.08,0-.194.013-.374a1.86,1.86,0,0,1,.321-1.063l.017-.03a.787.787,0,0,1,.518-.365.971.971,0,0,1,.7.08.638.638,0,0,1,.276.458.486.486,0,0,1-.137.4,2.214,2.214,0,0,0-.333.431l-.1.152a.7.7,0,0,0-.126.454,1.271,1.271,0,0,1-.008.175c-.015.123.067.189.3.346a1.559,1.559,0,0,0,.607.1,9.05,9.05,0,0,1,1,.109c.908.154,1.436.257,1.709.583a1.078,1.078,0,0,1,.083,1.323,1.01,1.01,0,0,1-1.1.305.89.89,0,0,1-.6-.5l-.047-.077c-.042-.066-.229-.057-.427-.047a2.939,2.939,0,0,1-.6-.013,3.185,3.185,0,0,0-.525-.029,1.275,1.275,0,0,1-.612-.1.822.822,0,0,0-.45-.038,2.715,2.715,0,0,1-.164.976c-.04.1-.069.2-.1.277a1.134,1.134,0,0,1-1.037.83Zm-20.657-18.385a15.738,15.738,0,0,0,2.182,3.643,33.469,33.469,0,0,0,4.59,4.557c2.319,1.918,7.122,5.336,10.139,6.341,1.748.584,3.75,1.349,3.77,1.357l.015.006.012.01a.579.579,0,0,1,.261.688,1.447,1.447,0,0,1-.324.465c-.08.09-.162.182-.243.289-.132.177-.261.424-.123.593a.474.474,0,0,0,.65.167.76.76,0,0,0,.564-.625c.027-.084.058-.179.1-.287a2.513,2.513,0,0,0,.146-.979l-.008-.09.088-.022a1.147,1.147,0,0,1,.68.039,1.108,1.108,0,0,0,.516.073,3.36,3.36,0,0,1,.558.031,2.789,2.789,0,0,0,.555.011c.273-.013.508-.025.616.145.016.026.033.053.049.08a.7.7,0,0,0,.461.406c.439.079.728.008.884-.217a.871.871,0,0,0-.071-1.068c-.225-.269-.748-.369-1.582-.511a8.87,8.87,0,0,0-.974-.106,1.562,1.562,0,0,1-.709-.134c-.23-.152-.429-.284-.4-.549a1.1,1.1,0,0,0,.006-.147.9.9,0,0,1,.161-.571l.1-.151a2.428,2.428,0,0,1,.361-.465.277.277,0,0,0,.076-.231.428.428,0,0,0-.182-.3.768.768,0,0,0-.538-.05.58.58,0,0,0-.383.263l-.017.03a1.666,1.666,0,0,0-.294.97c-.008.177-.011.29-.012.369a1.037,1.037,0,0,1-.04.326.465.465,0,0,1-.213.314c-.2.115-.506.054-1.065-.117a29.477,29.477,0,0,1-6.975-3.1,48.346,48.346,0,0,1-10.816-8.306C192.285,381.742,191.206,380.354,190.589,379.541Z" transform="translate(-189.834 -378.169)"/>
      </g>
      <g id="Group_15395" data-name="Group 15395" transform="translate(8.07)">
        <path id="Path_43089" data-name="Path 43089" d="M313.5,385.856a16.722,16.722,0,0,1-2.516,4.434,33.344,33.344,0,0,1-4.6,4.57c-2.451,2.03-7.177,5.362-10.174,6.359-1.765.59-3.765,1.355-3.765,1.355a.477.477,0,0,0-.222.572,3.6,3.6,0,0,0,.548.724c.225.3.263.55.124.723a.579.579,0,0,1-.774.2c-.579-.23-.522-.448-.722-.972a2.587,2.587,0,0,1-.156-1.026,1.043,1.043,0,0,0-.605.031,4.717,4.717,0,0,1-1.232.241c-.5.075-.844-.218-.973-.018s-.251.473-.582.534a.919.919,0,0,1-.987-.261.967.967,0,0,1,.076-1.2c.248-.3.772-.4,1.645-.547s1.42-.012,1.645-.161.373-.313.348-.511a1.079,1.079,0,0,0-.147-.672,3.221,3.221,0,0,0-.451-.6.472.472,0,0,1,.126-.7.849.849,0,0,1,1.07.249,1.785,1.785,0,0,1,.323,1.047,2.379,2.379,0,0,0,.053.672c.1.4.416.347,1.146.124a29.39,29.39,0,0,0,6.951-3.091,47.891,47.891,0,0,0,10.793-8.287c1.31-1.413,3.061-3.8,3.061-3.8Z" transform="translate(-286.585 -385.205)" fill="#fff" fill-rule="evenodd"/>
        <path id="Path_43090" data-name="Path 43090" d="M291.281,397.9a.976.976,0,0,1-.35-.073.963.963,0,0,1-.687-.757c-.026-.081-.056-.174-.1-.277a2.707,2.707,0,0,1-.167-.976.813.813,0,0,0-.448.038,2.865,2.865,0,0,1-.9.2c-.117.015-.239.03-.365.049a1.63,1.63,0,0,1-.645-.053c-.159-.038-.231-.05-.255-.013l-.043.071a.9.9,0,0,1-.608.51,1,1,0,0,1-1.093-.3,1.072,1.072,0,0,1,.081-1.324c.271-.326.8-.429,1.708-.583a6.289,6.289,0,0,1,1.073-.082,1.242,1.242,0,0,0,.531-.063c.222-.149.318-.279.3-.41a1.271,1.271,0,0,1-.007-.173.688.688,0,0,0-.124-.454l-.094-.141a2.337,2.337,0,0,0-.344-.441.483.483,0,0,1-.135-.4.643.643,0,0,1,.277-.461.965.965,0,0,1,.7-.08.786.786,0,0,1,.52.366l.012.02a1.858,1.858,0,0,1,.325,1.073c.008.174.011.287.013.367a.786.786,0,0,0,.036.281c.032.129.079.169.113.188.148.084.5-.011.9-.135a29.36,29.36,0,0,0,6.928-3.081,48.164,48.164,0,0,0,10.768-8.267c1.243-1.341,2.907-3.588,3.045-3.775l.2-.553v.281l.242-.329-.248.687a16.975,16.975,0,0,1-2.535,4.466,33.517,33.517,0,0,1-4.617,4.584c-2.326,1.926-7.154,5.361-10.208,6.378-1.662.555-3.555,1.275-3.745,1.348-.226.183-.218.322-.175.444a1.288,1.288,0,0,0,.279.392c.079.089.168.189.254.3.339.45.222.727.122.852A.672.672,0,0,1,291.281,397.9Zm-1.476-2.308a1.414,1.414,0,0,1,.311.035l.087.022-.007.09a2.5,2.5,0,0,0,.15.979c.041.108.072.2.1.287a.757.757,0,0,0,.564.625.474.474,0,0,0,.653-.167c.136-.17.007-.417-.126-.593-.08-.107-.163-.2-.243-.29a1.415,1.415,0,0,1-.322-.465.586.586,0,0,1,.257-.687l.013-.01.015-.006c.02-.008,2.022-.773,3.769-1.357,3.027-1.008,7.826-4.424,10.14-6.341a33.319,33.319,0,0,0,4.59-4.557,15.783,15.783,0,0,0,2.171-3.609c-.685.9-1.869,2.369-2.558,3.112a48.372,48.372,0,0,1-10.817,8.306,29.546,29.546,0,0,1-6.973,3.1c-.561.171-.864.232-1.067.117a.466.466,0,0,1-.212-.316.977.977,0,0,1-.043-.33c0-.079,0-.19-.013-.362a1.663,1.663,0,0,0-.3-.979l-.012-.021a.581.581,0,0,0-.385-.264.76.76,0,0,0-.534.05.432.432,0,0,0-.184.307.275.275,0,0,0,.074.228,2.526,2.526,0,0,1,.37.474l.094.141a.887.887,0,0,1,.159.573,1.076,1.076,0,0,0,0,.145c.036.288-.208.487-.394.612a1.259,1.259,0,0,1-.646.1,6.1,6.1,0,0,0-1.04.079c-.835.141-1.358.242-1.582.51a.866.866,0,0,0-.07,1.069c.153.222.449.295.881.217a.706.706,0,0,0,.465-.411l.046-.076c.109-.168.3-.123.482-.079a1.435,1.435,0,0,0,.564.049c.128-.019.252-.035.371-.05a2.751,2.751,0,0,0,.829-.181A.827.827,0,0,1,289.805,395.6Z" transform="translate(-285.434 -378.145)"/>
      </g>
    </g>
    <g id="Group_15397" data-name="Group 15397" transform="translate(27.496 18.805)">
      <path id="Path_43091" data-name="Path 43091" d="M296.169,195.368l-.209.2c2.173,3.731,5.5,8.082,7.973,12l.086-.351Z" transform="translate(-295.959 -195.367)" fill-rule="evenodd"/>
      <path id="Path_43092" data-name="Path 43092" d="M303.922,207.556v0c-1.07-1.694-2.318-3.5-3.525-5.239-1.581-2.282-3.215-4.642-4.448-6.76h0l.21-.2h0l7.85,11.85h0Zm-7.973-12c1.233,2.118,2.867,4.477,4.448,6.759,1.207,1.742,2.455,3.544,3.524,5.238l.085-.348-7.85-11.849Z" transform="translate(-295.947 -195.352)"/>
    </g>
    <g id="Group_15398" data-name="Group 15398" transform="translate(26.23 37.515)">
      <path id="Path_43093" data-name="Path 43093" d="M282.681,415.549a2.931,2.931,0,0,1-.5-.043,3.725,3.725,0,0,1-.972-.321v0a3.145,3.145,0,0,0,3.271-.211c.744-.455,1.247-.8,1.691-1.1a19.1,19.1,0,0,1,2.741-1.6h0a1.3,1.3,0,0,1,.628.555,13.252,13.252,0,0,1,.766,1.282h0a13.214,13.214,0,0,0-.766-1.282,1.294,1.294,0,0,0-.626-.554,19.089,19.089,0,0,0-2.741,1.6c-.444.3-.947.643-1.691,1.1a3.622,3.622,0,0,1-1.443.552A2.811,2.811,0,0,1,282.681,415.549Z" transform="translate(-281.211 -412.271)" fill="#fff"/>
    </g>
    <g id="Group_15399" data-name="Group 15399" transform="translate(30.404 22.592)">
      <path id="Path_43094" data-name="Path 43094" d="M330.916,240.09a5.93,5.93,0,0,0-.015.935l-.387-.013c.021-.317-.1-.638.011-.921Z" transform="translate(-330.477 -240.09)" fill-rule="evenodd"/>
    </g>
  </g>
</svg>
