<svg xmlns="http://www.w3.org/2000/svg" xmlns:xlink="http://www.w3.org/1999/xlink" width="1366.292" height="180.986" viewBox="0 0 1366.292 180.986"><defs><linearGradient id="a" x1="1.029" y1="1.146" x2="0.014" y2="-0.363" gradientUnits="objectBoundingBox"><stop offset="0" stop-color="#bad1e0"/><stop offset="1" stop-color="#bad1e0" stop-opacity="0.031"/></linearGradient><linearGradient id="b" x1="0.015" y1="-0.629" x2="0.714" y2="1.787" xlink:href="#a"/></defs><g transform="translate(-9.33 -240.03)"><path d="M2592.063,843.9h-103.7a19.5,19.5,0,0,1-19.474-19.474V797.094a9.817,9.817,0,0,0-9.817-9.817H2084.74V777.62h374.331a19.474,19.474,0,0,1,19.474,19.474v27.327a9.828,9.828,0,0,0,9.817,9.817h103.7Z" transform="translate(-2075.41 -510.547)" fill="url(#a)"/><path d="M2055.74,777.62h103.7a19.5,19.5,0,0,1,19.474,19.474v27.328a9.817,9.817,0,0,0,9.817,9.817h394.331V843.9H2188.733a19.474,19.474,0,0,1-19.474-19.474V797.094a9.828,9.828,0,0,0-9.817-9.817h-103.7Z" transform="translate(-1207.442 -452.334)" fill="url(#b)"/><rect width="48.046" height="39.237" rx="19.618" transform="translate(862.289 349.803) rotate(180)" fill="#b2c9d8"/><path d="M385.3,32.422H365.29V12.4" transform="translate(346.578 247.636)" fill="#39bb9d"/><path d="M365.29,104.552H385.3V84.53" transform="translate(346.578 291.877)" fill="#0095da"/><path d="M315.99,20.006V0H336" transform="translate(312.34 240.03)" fill="#013b82"/><path d="M320.326,99.78v20.006H300.32" transform="translate(341.729 301.23)" fill="#8a1538"/><rect width="88" height="80.184" rx="12" transform="translate(838.275 369.324) rotate(180)" fill="#bad1e0"/><path d="M0,0H28V80.184H10Z" transform="translate(778.275 369.324) rotate(-180)" fill="#b2c9d8"/><rect width="19.215" height="98.334" rx="4" transform="translate(769.481 378.391) rotate(180)" fill="#bad1e0"/><rect width="48.046" height="39.237" rx="19.618" transform="translate(504.586 309.433)" fill="#b2c9d8"/><g transform="translate(106.806 240.014)"><rect width="54" height="16" rx="8" transform="translate(494.524 60.995)" fill="#b2c9d8"/><rect width="54" height="16" rx="8" transform="translate(494.524 101.409)" fill="#b2c9d8"/></g><rect width="88" height="80.184" rx="12" transform="translate(528.275 289.433)" fill="#bad1e0"/><path d="M0,0H18L28,80.184H0Z" transform="translate(616.275 369.617) rotate(180)" fill="#b2c9d8"/><rect width="19.215" height="98.334" rx="4" transform="translate(597.394 280.058)" fill="#bad1e0"/></g></svg>