<svg xmlns="http://www.w3.org/2000/svg" xmlns:xlink="http://www.w3.org/1999/xlink" width="1920" height="600" viewBox="0 0 1920 600">
  <defs>
    <clipPath id="clip-path">
      <rect id="Rectangle_12805" data-name="Rectangle 12805" width="1920" height="600" fill="#00053e"/>
    </clipPath>
  </defs>
  <g id="Mask_Group_13" data-name="Mask Group 13" clip-path="url(#clip-path)">
    <g id="Group_11681" data-name="Group 11681" transform="translate(-141.635 -238.612)" opacity="0.36">
      <path id="Path_22409" data-name="Path 22409" d="M685.051,28.847S382.916,159.925,406.45,306.39c23.5,146.431,351.986,128.7,409.387,129.152,57.4.505,300.122-11.994,425.815-31.959,125.625-19.928,385.714-64.615,520.756-113.618,0,0-354.813,34.651-425.19,39.4-70.309,4.708-336.769,20.752-505.858-3.426C662.307,301.8,599.571,254.248,589.3,219.19c-10.2-35.027-11.972-101.163,95.756-190.343" transform="translate(635.991 97.838)" fill="#003178" stroke="rgba(0,0,0,0)" stroke-width="1"/>
      <path id="Path_22410" data-name="Path 22410" d="M371.6,246.343s-62.191,185.913,87.154,259.583c149.273,73.637,562.229-4.356,650.955-24.868,94.452-21.873,316.072-82.171,387.99-104.692,69.9-21.889,352.212-123.077,352.212-123.077s-225.048,49.778-287.708,63.184c-68.366,14.625-371.732,69.5-455.14,81.089-84.449,11.731-425.985,63.507-618.641-3C387.777,359.849,364.041,317.283,371.6,246.343" transform="translate(613.244 204.49)" fill="#003178" stroke="rgba(0,0,0,0)" stroke-width="1"/>
      <path id="Path_22411" data-name="Path 22411" d="M434.451,540.271S550.7,678.316,740.8,693.185c190.026,14.868,381-59.865,468.365-86.645,87.359-26.8,279.85-107.566,335.758-129.888,55.9-22.3,336.31-173.709,336.31-173.709s-287.454,112.189-357.355,133.59c-69.929,21.4-252.268,74.465-330.64,93.666-79.542,19.49-307.9,80-459.158,77.975-151.3-2.024-194.745,1.371-299.629-67.9" transform="translate(650.361 232.244)" fill="#003178" stroke="rgba(0,0,0,0)" stroke-width="1"/>
      <path id="Path_22412" data-name="Path 22412" d="M922.752,1088.619s169.171-16.862,174.036-161.562c4.862-144.634-204.352-444.446-252.27-507.526-51.04-67.138-177.895-221.471-221.4-270.5C580.843,101.371,399.981-86.548,399.981-86.548s119.766,160.8,152.752,205.733C588.722,168.209,740.5,389.32,779.467,451.359c39.449,62.813,202.419,315.308,218.7,491.812,8.523,92.2-16.64,126.185-75.413,145.448" transform="translate(633.456 41.252)" fill="#fff" opacity="0.31" style="mix-blend-mode: overlay;isolation: isolate"/>
      <path id="Path_22413" data-name="Path 22413" d="M1129.338,921.2s67.931-141.494,11.814-297.553c-56.093-156-183.572-280.756-236.013-340.467S719.881,99.677,682.209,63.314c-37.651-36.36-257.875-204.648-257.875-204.648S615.976,46.546,657.916,94.335C699.868,142.142,807.075,267.786,850.3,323.076c43.867,56.117,173.419,215.6,225.847,336.262,52.443,120.706,70.654,153.944,53.193,261.86" transform="translate(645.4 14.387)" fill="#fff" opacity="0.31" style="mix-blend-mode: overlay;isolation: isolate"/>
    </g>
  </g>
</svg>
