<svg xmlns="http://www.w3.org/2000/svg" width="1169.19" height="941.604" viewBox="0 0 1169.19 941.604">
  <g id="Group_12408" data-name="Group 12408" transform="translate(-9601.858 -4276.441)" opacity="0.59">
    <g id="Group_12403" data-name="Group 12403" transform="translate(9602.367 4276.441)" opacity="0.36">
      <path id="Path_22461" data-name="Path 22461" d="M614.85,28.847s-226.36,98.2-208.728,207.935c17.606,109.706,263.707,96.423,306.712,96.76,43.007.378,224.851-8.986,319.02-23.944,94.118-14.93,288.976-48.409,390.15-85.122,0,0-265.825,25.96-318.551,29.518-52.676,3.527-252.306,15.547-378.988-2.567-126.654-18.082-173.656-53.71-181.354-79.975-7.641-26.242-8.97-75.791,71.74-142.6" transform="translate(-353.35 161.174)" fill="#003178" stroke="rgba(0,0,0,0)" stroke-width="1"/>
      <path id="Path_22462" data-name="Path 22462" d="M368.378,246.343s-46.594,139.285,65.3,194.479c111.835,55.169,421.221-3.264,487.694-18.631,70.763-16.387,236.8-61.562,290.681-78.435,52.371-16.4,263.876-92.209,263.876-92.209s-168.605,37.294-215.55,47.337c-51.22,10.957-278.5,52.069-340.99,60.752-63.269,8.789-319.147,47.58-463.484-2.244-75.4-26.01-93.185-57.9-87.523-111.048" transform="translate(-358.758 186.528)" fill="#003178" stroke="rgba(0,0,0,0)" stroke-width="1"/>
      <path id="Path_22463" data-name="Path 22463" d="M434.451,480.748s87.094,103.423,229.516,114.563c142.367,11.139,285.448-44.851,350.9-64.915s209.663-80.588,251.549-97.312c41.877-16.708,251.963-130.143,251.963-130.143s-215.36,84.052-267.73,100.086c-52.391,16.036-189,55.789-247.715,70.175-59.593,14.6-230.681,59.932-344,58.418-113.355-1.516-145.9,1.027-224.482-50.872" transform="translate(-349.934 193.127)" fill="#003178" stroke="rgba(0,0,0,0)" stroke-width="1"/>
      <path id="Path_22464" data-name="Path 22464" d="M791.64,793.884s126.743-12.633,130.387-121.042c3.642-108.359-153.1-332.978-189-380.237-38.239-50.3-133.278-165.926-165.869-202.66C535.482,54.24,399.981-86.548,399.981-86.548S489.709,33.923,514.422,67.587C541.386,104.315,655.1,269.971,684.291,316.451c29.555,47.059,151.652,236.228,163.848,368.464,6.386,69.076-12.467,94.537-56.5,108.969" transform="translate(-353.954 147.721)" fill="#fff" opacity="0.31" style="mix-blend-mode: overlay;isolation: isolate"/>
      <path id="Path_22465" data-name="Path 22465" d="M952.522,654.713s50.894-106.007,8.851-222.926C919.348,314.91,823.841,221.445,784.552,176.71S645.757,39.231,617.533,11.988c-28.208-27.241-193.2-153.322-193.2-153.322S567.911-.575,599.333,35.228,711.083,165.178,743.466,206.6c32.865,42.043,129.925,161.524,169.2,251.927,39.29,90.433,52.934,115.335,39.852,196.185" transform="translate(-351.113 141.334)" fill="#fff" opacity="0.31" style="mix-blend-mode: overlay;isolation: isolate"/>
    </g>
  </g>
</svg>
