<svg xmlns="http://www.w3.org/2000/svg" width="33.071" height="30.281" viewBox="0 0 33.071 30.281">
  <g id="Group_21977" data-name="Group 21977" transform="translate(-1181.538 -1189.554)">
    <path id="Path_54692" data-name="Path 54692" d="M42.448,21.721a2.963,2.963,0,0,1-2.454,2.918V18.8A2.963,2.963,0,0,1,42.448,21.721Z" transform="translate(1168.314 1183.237)" fill="#39bb9d" stroke="#39bb9d" stroke-width="1"/>
    <path id="Path_55613" data-name="Path 55613" d="M-2723.97,4728.04l-2.772-9.516h3.576l4.185.991,5.318,2.963,3.7,5.292v-27.494l-2.242,2.764-3.241,2.95-1.688,1.153-3,1.061-3.406.643h-8.434l-2.2.709-1.426,2.17-.479,2.6,1.176,2.646,2.236,1.208,1.422,1.338,2.43,8.916Z" transform="translate(3918 -3509)" fill="none"/>
    <path id="Path_54689" data-name="Path 54689" d="M29.859,4.354V30.038c-1.6-2.727-6.6-8.181-13.355-8.311H10.187" transform="translate(1178.009 1187.957)" fill="none" stroke="#1183c1" stroke-width="1"/>
    <path id="Path_54690" data-name="Path 54690" d="M26.891,28.684V3c-1.6,2.727-6.5,8.214-13.257,8.344h-1.7m-.851,9.941H5.992A4.981,4.981,0,0,1,1,16.315H1a4.981,4.981,0,0,1,4.992-4.971h5.941m0,0v7.268m0,2.673V18.613m0,0H1.426" transform="translate(1181.038 1188.394)" fill="none" stroke="#1183c1" stroke-width="1"/>
    <path id="Path_54691" data-name="Path 54691" d="M7.431,30.124l2.684,9.394H14.7l-.967-3.7-1.488-5.7" transform="translate(1178.961 1179.524)" fill="none" stroke="#1183c1" stroke-width="1"/>
    <path id="Path_54693" data-name="Path 54693" d="M44.224,15.933l2.586-2.586" transform="translate(1166.948 1185.022)" fill="none" stroke="#39bb9d" stroke-width="1"/>
    <path id="Path_54694" data-name="Path 54694" d="M44.176,29.112l2.653,2.517" transform="translate(1166.964 1179.883)" fill="none" stroke="#39bb9d" stroke-width="1"/>
    <path id="Path_54695" data-name="Path 54695" d="M45.336,23.307H48.02" transform="translate(1166.589 1181.781)" fill="none" stroke="#39bb9d" stroke-width="1"/>
  </g>
</svg>
