<svg id="Group_62" data-name="Group 62" xmlns="http://www.w3.org/2000/svg" width="128.853" height="32.44" viewBox="0 0 128.853 32.44">
  <path id="Path_113" data-name="Path 113" d="M184.159,22.166a6.411,6.411,0,0,1,3.052-5.376A6.562,6.562,0,0,0,182.043,14c-2.175-.228-4.282,1.3-5.39,1.3-1.129,0-2.836-1.278-4.673-1.241a6.882,6.882,0,0,0-5.792,3.532c-2.5,4.335-.636,10.707,1.764,14.212,1.2,1.716,2.6,3.633,4.437,3.565,1.8-.075,2.467-1.145,4.635-1.145,2.147,0,2.776,1.145,4.65,1.1,1.927-.031,3.141-1.724,4.3-3.456a14.2,14.2,0,0,0,1.967-4,6.193,6.193,0,0,1-3.781-5.7Z" transform="translate(-165 -6.805)" fill="#fff"/>
  <path id="Path_114" data-name="Path 114" d="M178.023,13.24a6.31,6.31,0,0,0,1.442-4.52,6.415,6.415,0,0,0-4.152,2.149,6,6,0,0,0-1.481,4.352,5.31,5.31,0,0,0,4.191-1.982Z" transform="translate(-162.4 -8.354)" fill="#fff"/>
  <path id="Path_115" data-name="Path 115" d="M199.652,29.811h-6.13l-1.471,4.346h-2.6l5.8-16.079h2.7l5.8,16.079h-2.64Zm-5.494-2.006h4.858l-2.4-7.053h-.067Z" transform="translate(-157.79 -5.595)" fill="#fff"/>
  <path id="Path_116" data-name="Path 116" d="M212.7,27.333c0,3.643-1.95,5.983-4.892,5.983a3.975,3.975,0,0,1-3.689-2.051h-.056v5.806H201.66v-15.6h2.329v1.95h.044a4.157,4.157,0,0,1,3.733-2.072C210.74,21.348,212.7,23.7,212.7,27.333Zm-2.473,0c0-2.373-1.226-3.934-3.1-3.934-1.839,0-3.075,1.593-3.075,3.934,0,2.362,1.237,3.944,3.075,3.944C209,31.277,210.229,29.728,210.229,27.333Z" transform="translate(-154.193 -4.632)" fill="#fff"/>
  <path id="Path_117" data-name="Path 117" d="M222.667,27.333c0,3.643-1.95,5.983-4.892,5.983a3.975,3.975,0,0,1-3.689-2.051h-.056v5.806h-2.406v-15.6h2.328v1.95H214a4.157,4.157,0,0,1,3.732-2.072C220.705,21.348,222.667,23.7,222.667,27.333Zm-2.473,0c0-2.373-1.226-3.934-3.1-3.934-1.839,0-3.075,1.593-3.075,3.934,0,2.362,1.237,3.944,3.075,3.944,1.872,0,3.1-1.549,3.1-3.944Z" transform="translate(-151.255 -4.632)" fill="#fff"/>
  <path id="Path_118" data-name="Path 118" d="M227.3,29.738c.179,1.594,1.727,2.641,3.844,2.641,2.028,0,3.487-1.047,3.487-2.485,0-1.248-.88-2-2.964-2.507l-2.083-.5c-2.953-.713-4.323-2.094-4.323-4.334,0-2.774,2.417-4.68,5.85-4.68,3.4,0,5.727,1.906,5.806,4.68h-2.429c-.146-1.6-1.472-2.573-3.41-2.573s-3.265.98-3.265,2.406c0,1.137.848,1.806,2.92,2.318l1.771.435c3.3.78,4.67,2.105,4.67,4.457,0,3.008-2.4,4.892-6.207,4.892-3.566,0-5.973-1.84-6.128-4.748Z" transform="translate(-147.36 -5.656)" fill="#fff"/>
  <path id="Path_119" data-name="Path 119" d="M239.314,19.3v2.774h2.228V23.98h-2.228v6.463c0,1,.445,1.472,1.426,1.472a7.531,7.531,0,0,0,.792-.056v1.894a6.616,6.616,0,0,1-1.338.111c-2.373,0-3.3-.891-3.3-3.165V23.98h-1.7V22.074h1.7V19.3Z" transform="translate(-144.308 -5.235)" fill="#fff"/>
  <path id="Path_120" data-name="Path 120" d="M241.093,27.337c0-3.688,2.173-6.006,5.56-6.006s5.561,2.318,5.561,6.006-2.151,6.006-5.561,6.006S241.093,31.036,241.093,27.337Zm8.67,0c0-2.53-1.16-4.023-3.11-4.023s-3.108,1.5-3.108,4.023c0,2.54,1.159,4.022,3.108,4.022s3.11-1.482,3.11-4.022Z" transform="translate(-142.568 -4.636)" fill="#fff"/>
  <path id="Path_121" data-name="Path 121" d="M251.214,21.471h2.3v2h.056a2.795,2.795,0,0,1,2.82-2.118,3.71,3.71,0,0,1,.824.09v2.251a3.355,3.355,0,0,0-1.081-.145,2.425,2.425,0,0,0-2.507,2.7v6.953h-2.407Z" transform="translate(-139.584 -4.632)" fill="#fff"/>
  <path id="Path_122" data-name="Path 122" d="M266.821,29.755c-.324,2.128-2.4,3.589-5.048,3.589-3.41,0-5.526-2.285-5.526-5.95s2.127-6.062,5.425-6.062c3.243,0,5.283,2.228,5.283,5.782v.824h-8.279v.145a3.052,3.052,0,0,0,3.153,3.32,2.652,2.652,0,0,0,2.707-1.649Zm-8.135-3.5h5.862a2.819,2.819,0,0,0-2.876-2.975,2.962,2.962,0,0,0-2.112.866,2.941,2.941,0,0,0-.647.968,2.98,2.98,0,0,0-.227,1.142Z" transform="translate(-138.101 -4.636)" fill="#fff"/>
  <path id="Path_123" data-name="Path 123" d="M193.491,8.733a3.418,3.418,0,0,1,3.634,3.839c0,2.468-1.334,3.887-3.634,3.887H190.7V8.733ZM191.9,15.366h1.457a2.43,2.43,0,0,0,2.548-2.779,2.436,2.436,0,0,0-2.548-2.763H191.9Z" transform="translate(-157.424 -8.352)" fill="#fff"/>
  <path id="Path_124" data-name="Path 124" d="M196.712,13.133a2.762,2.762,0,0,1,1.633-2.789,2.761,2.761,0,0,1,3.866,2.789,2.763,2.763,0,1,1-5.5,0Zm4.316,0c0-1.264-.567-2-1.564-2s-1.563.739-1.563,2,.563,2.007,1.563,2.007,1.564-.738,1.564-2.007Z" transform="translate(-155.655 -7.944)" fill="#fff"/>
  <path id="Path_125" data-name="Path 125" d="M208.077,16.025h-1.194l-1.205-4.294h-.091l-1.2,4.294H203.2l-1.607-5.83h1.167l1.045,4.449h.085l1.2-4.449h1.1l1.2,4.449h.092l1.038-4.449h1.151Z" transform="translate(-154.211 -7.919)" fill="#fff"/>
  <path id="Path_126" data-name="Path 126" d="M208.882,10.222h1.107v.926h.087a1.744,1.744,0,0,1,1.74-1.039,1.9,1.9,0,0,1,2.017,2.169v3.774h-1.15V12.567c0-.937-.408-1.4-1.259-1.4a1.337,1.337,0,0,0-1.33.909,1.322,1.322,0,0,0-.062.568v3.411h-1.151Z" transform="translate(-152.064 -7.946)" fill="#fff"/>
  <path id="Path_127" data-name="Path 127" d="M214.122,8.437h1.151v8.106h-1.151Z" transform="translate(-150.519 -8.437)" fill="#fff"/>
  <path id="Path_128" data-name="Path 128" d="M216.249,13.133a2.763,2.763,0,1,1,5.5,0,2.763,2.763,0,1,1-5.5,0Zm4.316,0c0-1.264-.567-2-1.564-2s-1.563.739-1.563,2S218,15.141,219,15.141s1.564-.738,1.564-2.007Z" transform="translate(-149.896 -7.944)" fill="#fff"/>
  <path id="Path_129" data-name="Path 129" d="M221.429,14.4c0-1.049.782-1.654,2.169-1.74l1.58-.091v-.5c0-.616-.408-.963-1.194-.963-.642,0-1.088.236-1.215.648h-1.115c.118-1,1.06-1.644,2.382-1.644,1.462,0,2.287.728,2.287,1.959v3.984h-1.108v-.819h-.091a1.962,1.962,0,0,1-1.752.915,1.764,1.764,0,0,1-1.789-1.031A1.783,1.783,0,0,1,221.429,14.4Zm3.748-.5v-.487l-1.424.091c-.8.054-1.167.327-1.167.841s.454.83,1.081.83a1.374,1.374,0,0,0,1.51-1.275Z" transform="translate(-148.365 -7.944)" fill="#fff"/>
  <path id="Path_130" data-name="Path 130" d="M226.377,13.626c0-1.842.947-3.009,2.42-3.009a1.923,1.923,0,0,1,1.788,1.023h.085v-3.2h1.151v8.106h-1.1v-.921h-.091A2.026,2.026,0,0,1,228.8,16.64C227.313,16.64,226.377,15.472,226.377,13.626Zm1.189,0c0,1.237.583,1.981,1.558,1.981s1.569-.755,1.569-1.976-.606-1.981-1.569-1.981-1.558.749-1.558,1.976Z" transform="translate(-146.906 -8.437)" fill="#fff"/>
  <path id="Path_131" data-name="Path 131" d="M234.261,13.133a2.762,2.762,0,1,1,5.5,0,2.762,2.762,0,1,1-5.5,0Zm4.316,0c0-1.264-.567-2-1.564-2s-1.563.739-1.563,2,.563,2.007,1.563,2.007S238.576,14.4,238.576,13.133Z" transform="translate(-144.586 -7.944)" fill="#fff"/>
  <path id="Path_132" data-name="Path 132" d="M239.7,10.222h1.107v.926h.087a1.744,1.744,0,0,1,1.74-1.039,1.9,1.9,0,0,1,2.017,2.169v3.774H243.5V12.567c0-.937-.407-1.4-1.257-1.4a1.337,1.337,0,0,0-1.33.909,1.323,1.323,0,0,0-.062.568v3.411H239.7Z" transform="translate(-142.979 -7.946)" fill="#fff"/>
  <path id="Path_133" data-name="Path 133" d="M249.017,9.074v1.478h1.262v.969h-1.262v3c0,.611.251.878.823.878a3.806,3.806,0,0,0,.439-.027v.958a3.746,3.746,0,0,1-.625.059c-1.281,0-1.789-.45-1.789-1.574V11.521h-.926v-.969h.926V9.074Z" transform="translate(-140.845 -8.249)" fill="#fff"/>
  <path id="Path_134" data-name="Path 134" d="M250.733,8.437h1.141V11.65h.091a1.794,1.794,0,0,1,1.778-1.045,1.921,1.921,0,0,1,2.008,2.174v3.764H254.6v-3.48c0-.931-.434-1.4-1.246-1.4a1.361,1.361,0,0,0-1.468,1.478v3.405h-1.151Z" transform="translate(-139.726 -8.437)" fill="#fff"/>
  <path id="Path_135" data-name="Path 135" d="M260.984,14.477a2.367,2.367,0,0,1-2.527,1.687,2.648,2.648,0,0,1-2.693-3.009,2.69,2.69,0,0,1,2.689-3.046c1.621,0,2.6,1.108,2.6,2.939v.4h-4.116v.064a1.54,1.54,0,0,0,1.552,1.67,1.4,1.4,0,0,0,1.387-.707ZM256.937,12.6h2.944a1.411,1.411,0,0,0-.078-.577,1.407,1.407,0,0,0-1.357-.933,1.489,1.489,0,0,0-1.51,1.51Z" transform="translate(-138.25 -7.944)" fill="#fff"/>
</svg>
