<svg id="_809245" data-name="809245" xmlns="http://www.w3.org/2000/svg" width="12.09" height="11.909" viewBox="0 0 12.09 11.909">
  <g id="Group_15683" data-name="Group 15683">
    <path id="Path_43283" data-name="Path 43283" d="M12.09,3.579a.662.662,0,0,0-.662-.662H.663A.662.662,0,0,0,.121,3.961l3.9,5.549.011,4.037A1.282,1.282,0,0,0,6.029,14.61l1.394-.929a1.325,1.325,0,0,0,.59-1.109L8,9.534l3.969-5.57A.663.663,0,0,0,12.09,3.579ZM6.672,9.113l.016,3.465-1.328.886L5.348,9.089,1.939,4.242h8.2Z" transform="translate(0 -2.917)" fill="#013b82"/>
  </g>
</svg>
