<svg xmlns="http://www.w3.org/2000/svg" width="375.846" height="154.312" viewBox="0 0 375.846 154.312"><g style="isolation:isolate"><path d="M265.34,739.439c.757.183,1.507.367,2.256.55,134.045,32.588,198.361,30.834,228.134,24.511,19-4.027,23.929-9.919,23.929-9.919,30.9-35.65-42.89-65-43.847-65.376,17.67,15.963,20.508,27.621,13.611,36.041-26.7,32.628-199.509,16.633-221.763,14.424C266.321,739.535,265.523,739.455,265.34,739.439Z" transform="translate(-166.376 -689.205)" fill="#1d508f" opacity="0.75"/><path d="M694.361,748.195l-29.5,28.705-63.043-28.705S666.453,765.737,694.361,748.195Z" transform="translate(-601.816 -701.158)" fill="#1d508f" opacity="0.75"/><path d="M246.52,768.2c.407.16,5.526,2.169,14.137,5.334,39.5,14.512,152.536,53.408,221.333,50.1,37.947-1.826,62.434-16.49,53.687-55.178.478,2.751,3.038,25.938-46.845,32.652v.008c-37.859,5.087-105.938.686-228.079-29.359Q253.756,770.039,246.52,768.2Z" transform="translate(-161.605 -705.212)" fill="#1d508f" opacity="0.75"/><path d="M274.826,788.285c.391.239,13.037,8.133,33.019,18.722,46.311,24.527,132.052,63.558,196.128,55.513,21.928-2.751,41.319-11.012,55.72-27.254-.383.271-11.474,8.037-41.965,9.72-36.878,2.033-102.119-4.84-211.095-44.629v-.008Q291.312,794.763,274.826,788.285Z" transform="translate(-206.417 -709.281)" fill="#1d508f" opacity="0.75"/></g></svg>