<svg xmlns="http://www.w3.org/2000/svg" width="17.367" height="18.252" viewBox="0 0 17.367 18.252">
  <g id="Group" transform="translate(-12.7 -10.8)">
    <path id="Path" d="M32.767,10.8a.931.931,0,0,0-.931.931V21.975l-2.747-2.747a.931.931,0,0,0-1.3,1.327l4.33,4.307a.931.931,0,0,0,1.3,0l4.353-4.307a.938.938,0,1,0-1.327-1.327L33.7,21.975V11.731A.931.931,0,0,0,32.767,10.8Z" transform="translate(-11.384)" fill="#fff"/>
    <path id="Path-2" data-name="Path" d="M29.136,61.8a.931.931,0,0,0-.931.931v3.12a.466.466,0,0,1-.466.466H15.028a.466.466,0,0,1-.466-.466V62.964a.931.931,0,1,0-1.862,0v2.887a2.328,2.328,0,0,0,2.328,2.328H27.739a2.328,2.328,0,0,0,2.328-2.328v-3.12A.931.931,0,0,0,29.136,61.8Z" transform="translate(0 -39.127)" fill="#fff"/>
  </g>
</svg>
