<svg xmlns="http://www.w3.org/2000/svg" width="16.879" height="26.924" viewBox="0 0 16.879 26.924">
  <g id="Smartphone" transform="translate(-120 -8)">
    <path id="Path_45022" data-name="Path 45022" d="M134.4,8H122.482A2.345,2.345,0,0,0,120,10.171V32.753a2.345,2.345,0,0,0,2.482,2.171H134.4a2.345,2.345,0,0,0,2.482-2.171V10.171A2.345,2.345,0,0,0,134.4,8Zm-2.591.869-.3,1.3h-6.136l-.3-1.3Zm4.081,23.884a1.407,1.407,0,0,1-1.489,1.3H122.482a1.407,1.407,0,0,1-1.489-1.3V10.171a1.407,1.407,0,0,1,1.489-1.3h1.579l.417,1.822a.485.485,0,0,0,.487.349h6.95a.485.485,0,0,0,.487-.349l.417-1.822H134.4a1.407,1.407,0,0,1,1.489,1.3Z" fill="#00053e"/>
    <path id="Path_45023" data-name="Path 45023" d="M154.607,456h-2.234a.372.372,0,0,0,0,.745h2.234a.372.372,0,0,0,0-.745Z" transform="translate(-30.51 -423.31)" fill="#00053e"/>
    <path id="Path_45024" data-name="Path 45024" d="M224.745,456h-.372a.372.372,0,0,0,0,.745h.372a.372.372,0,1,0,0-.745Z" transform="translate(-97.39 -423.31)" fill="#00053e"/>
  </g>
</svg>
