<svg xmlns="http://www.w3.org/2000/svg" width="26" height="26" viewBox="0 0 26 26">
  <g id="Group_23974" data-name="Group 23974" transform="translate(-384 -848)">
    <g id="Ellipse_2879" data-name="Ellipse 2879" transform="translate(384 848)" fill="#fff" stroke="#39bb9d" stroke-width="1">
      <circle cx="13" cy="13" r="13" stroke="none"/>
      <circle cx="13" cy="13" r="12.5" fill="none"/>
    </g>
    <g id="_1008001" data-name="1008001" transform="translate(351.849 854.3)">
      <g id="Group_16331" data-name="Group 16331" transform="translate(39.451)">
        <g id="Group_16330" data-name="Group 16330">
          <path id="Path_45027" data-name="Path 45027" d="M49.23,1.678a5.728,5.728,0,0,0-9.779,4.051c0,3.1,2.927,5.67,4.5,7.053.219.192.407.358.558.5a.987.987,0,0,0,1.344,0c.15-.14.339-.306.558-.5,1.572-1.383,4.5-3.958,4.5-7.053A5.691,5.691,0,0,0,49.23,1.678ZM45.885,12.186c-.223.2-.416.366-.575.515a.191.191,0,0,1-.26,0c-.159-.149-.352-.318-.575-.515-1.478-1.3-4.23-3.721-4.23-6.457a4.935,4.935,0,0,1,9.87,0C50.114,8.465,47.363,10.885,45.885,12.186Z" transform="translate(-39.451)" fill="#39bb9d" stroke="#39bb9d" stroke-width="0.2"/>
        </g>
      </g>
      <g id="Group_16333" data-name="Group 16333" transform="translate(42.655 2.988)">
        <g id="Group_16332" data-name="Group 16332">
          <path id="Path_45028" data-name="Path 45028" d="M163.094,112.938a2.524,2.524,0,1,0,2.524,2.524A2.527,2.527,0,0,0,163.094,112.938Zm0,4.255a1.731,1.731,0,1,1,1.731-1.731A1.733,1.733,0,0,1,163.094,117.193Z" transform="translate(-160.57 -112.938)" fill="#39bb9d" stroke="#39bb9d" stroke-width="0.2"/>
        </g>
      </g>
    </g>
  </g>
</svg>
