<svg xmlns="http://www.w3.org/2000/svg" width="26" height="26" viewBox="0 0 26 26">
  <g id="Group_23970" data-name="Group 23970" transform="translate(17349 -13961)">
    <g id="Ellipse_2879" data-name="Ellipse 2879" transform="translate(-17349 13961)" fill="#fff" stroke="#39bb9d" stroke-width="1">
      <circle cx="13" cy="13" r="13" stroke="none"/>
      <circle cx="13" cy="13" r="12.5" fill="none"/>
    </g>
    <path id="Path_55962" data-name="Path 55962" d="M137.015,136.054l-.977,1.547a.311.311,0,0,1-.421.1,12.465,12.465,0,0,1-4.27-4.27.311.311,0,0,1,.1-.421l1.546-.977-1.659-3.316-2.685,1.074A13.243,13.243,0,0,0,139.258,140.4l1.074-2.686Zm-3.356-.665a11.588,11.588,0,0,0,2.017,1.621l.964-1.525a.311.311,0,0,1,.4-.112l3.823,1.912a.311.311,0,0,1,.149.393l-1.274,3.187a.311.311,0,0,1-.341.191,13.867,13.867,0,0,1-11.4-11.4.311.311,0,0,1,.191-.341l3.187-1.274a.311.311,0,0,1,.393.149l1.912,3.823a.311.311,0,0,1-.112.4l-1.525.964a11.589,11.589,0,0,0,1.62,2.017Z" transform="translate(-17470.49 13839.487)" fill="#39bb9d" stroke="#39bb9d" stroke-width="0.35"/>
  </g>
</svg>
