<svg xmlns="http://www.w3.org/2000/svg" width="16.033" height="14.299" viewBox="0 0 16.033 14.299">
  <g id="_77481" data-name="77481" transform="translate(0 -33.095)">
    <path id="Fax_1_" d="M15.378,35.516H13.415V33.749a.654.654,0,0,0-.654-.654H3.272a.654.654,0,0,0-.654.654v1.767H.654A.654.654,0,0,0,0,36.171v6.413a.654.654,0,0,0,.654.654H2.618v3.449a.647.647,0,0,0,.213.535.63.63,0,0,0,.265.147,1.028,1.028,0,0,0,.284.024h9.273a1.028,1.028,0,0,0,.285-.024.63.63,0,0,0,.265-.147.648.648,0,0,0,.212-.536V43.238h1.963a.654.654,0,0,0,.654-.654V36.171A.654.654,0,0,0,15.378,35.516ZM1.636,37.823a.573.573,0,1,1,.573-.573A.573.573,0,0,1,1.636,37.823Zm11.125,8.916H3.272v-5.17h9.489v5.17Zm0-11.223H3.272V34.4a.654.654,0,0,1,.654-.654h8.18a.654.654,0,0,1,.654.654Q12.761,34.96,12.761,35.516Z" fill="#eee"/>
  </g>
</svg>
