<svg xmlns="http://www.w3.org/2000/svg" width="13.534" height="16" viewBox="0 0 13.534 16">
  <g id="_1007950" data-name="1007950" transform="translate(-39.451)">
    <g id="Group_17158" data-name="Group 17158" transform="translate(44.173 4.467)">
      <g id="Group_17157" data-name="Group 17157">
        <path id="Path_47650" data-name="Path 47650" d="M192.608,142.93a2.045,2.045,0,1,0,2.045,2.045A2.047,2.047,0,0,0,192.608,142.93Z" transform="translate(-190.563 -142.93)" fill="#eee"/>
      </g>
    </g>
    <g id="Group_17160" data-name="Group 17160" transform="translate(39.451)">
      <g id="Group_17159" data-name="Group 17159">
        <path id="Path_47651" data-name="Path 47651" d="M51,1.982A6.767,6.767,0,0,0,39.451,6.767c0,3.657,3.458,6.7,5.315,8.332.258.227.481.423.659.589a1.166,1.166,0,0,0,1.587,0c.178-.166.4-.362.659-.589,1.858-1.634,5.315-4.675,5.315-8.332A6.723,6.723,0,0,0,51,1.982ZM46.218,9.494A2.982,2.982,0,1,1,49.2,6.511,2.986,2.986,0,0,1,46.218,9.494Z" transform="translate(-39.451 0)" fill="#eee"/>
      </g>
    </g>
  </g>
</svg>
