<svg xmlns="http://www.w3.org/2000/svg" width="13.272" height="12.8" viewBox="0 0 13.272 12.8">
  <g id="_953780" data-name="953780" transform="translate(0 -9.1)">
    <g id="Group_17152" data-name="Group 17152" transform="translate(0 9.1)">
      <g id="Group_17151" data-name="Group 17151">
        <path id="Path_47647" data-name="Path 47647" d="M12.763,11.574a5.768,5.768,0,0,0-2.511-1.781,9.825,9.825,0,0,0-7.223-.011A5.766,5.766,0,0,0,.512,11.555,2.277,2.277,0,0,0,.1,13.648a1.1,1.1,0,0,0,1.051.758l1.658,0h0a1.107,1.107,0,0,0,.852-.4,1.089,1.089,0,0,0,.237-.9q0-.014-.006-.028l-.087-.339a6.763,6.763,0,0,1,2.827-.669,6.943,6.943,0,0,1,2.826.682l-.089.337q0,.014-.006.029a1.089,1.089,0,0,0,.235.9,1.107,1.107,0,0,0,.853.4l1.658,0h0a1.1,1.1,0,0,0,1.052-.755A2.279,2.279,0,0,0,12.763,11.574Z" transform="translate(0 -9.1)" fill="#eee"/>
      </g>
    </g>
    <g id="Group_17154" data-name="Group 17154" transform="translate(1.385 13.76)">
      <g id="Group_17153" data-name="Group 17153">
        <path id="Path_47648" data-name="Path 47648" d="M62.431,191.247l-1.236-1.3a.4.4,0,0,0-.287-.123h-.8v-.54a.4.4,0,0,0-.792,0v.54H58.049v-.54a.4.4,0,0,0-.792,0v.54h-.8a.4.4,0,0,0-.287.123l-1.236,1.3a5.426,5.426,0,0,0-1.5,3.758v1.629a.4.4,0,0,0,.4.4h9.71a.4.4,0,0,0,.4-.4V195A5.426,5.426,0,0,0,62.431,191.247Zm-3.748,4.335a2.073,2.073,0,1,1,2.073-2.073A2.075,2.075,0,0,1,58.683,195.582Z" transform="translate(-53.432 -188.89)" fill="#eee"/>
      </g>
    </g>
    <g id="Group_17156" data-name="Group 17156" transform="translate(5.356 17.099)">
      <g id="Group_17155" data-name="Group 17155">
        <path id="Path_47649" data-name="Path 47649" d="M207.884,317.691a1.281,1.281,0,1,0,1.281,1.281A1.282,1.282,0,0,0,207.884,317.691Z" transform="translate(-206.603 -317.691)" fill="#eee"/>
      </g>
    </g>
  </g>
</svg>
