<svg xmlns="http://www.w3.org/2000/svg" width="16.876" height="20" viewBox="0 0 16.876 20">
  <g id="_67275" data-name="67275" transform="translate(-35.11)">
    <g id="Group_17146" data-name="Group 17146" transform="translate(35.11)">
      <path id="Path_47637" data-name="Path 47637" d="M78.35,58.507a.556.556,0,0,0,.556.556H89.56V72.874a.556.556,0,1,0,1.112,0V58.507a.556.556,0,0,0-.556-.556H78.906A.556.556,0,0,0,78.35,58.507Z" transform="translate(-76.427 -55.373)" fill="#013b82"/>
      <path id="Path_47638" data-name="Path 47638" d="M51.43,0H37.309a.556.556,0,0,0-.46.243L35.208,2.657a.556.556,0,0,0-.1.313V18.194c0,.013,0,.026,0,.039v1.21a.556.556,0,0,0,.556.556H48.943a.7.7,0,0,0,.379-.127L51.768,18a.556.556,0,0,0,.218-.442v-17A.556.556,0,0,0,51.43,0Zm-.556,17.285-2.1,1.6H36.223v-.694c0-.013,0-.026,0-.039V3.141L37.6,1.112H50.874V17.285Z" transform="translate(-35.11)" fill="#013b82"/>
      <path id="Path_47639" data-name="Path 47639" d="M108.648,184.38a.3.3,0,0,0-.286-.2H107.8a.3.3,0,0,0-.286.2l-1.59,4.678a.3.3,0,0,0,.286.4h.343a.3.3,0,0,0,.287-.207l.449-1.36h1.551l.463,1.362a.3.3,0,0,0,.286.2h.366a.3.3,0,0,0,.286-.4Zm-1.121,2.708.421-1.244,0-.005c.039-.122.077-.249.115-.386.036.128.077.261.124.4l.421,1.236Z" transform="translate(-102.763 -175.984)" fill="#013b82"/>
      <path id="Path_47640" data-name="Path 47640" d="M215.719,185.229a1.56,1.56,0,0,0-1.085.4V184.2a.3.3,0,0,0-.3-.3h-.342a.3.3,0,0,0-.3.3v4.691a.3.3,0,0,0,.3.3h.271a.3.3,0,0,0,.3-.3s0-.008,0-.012a1.458,1.458,0,0,0,1.059.395,1.676,1.676,0,0,0,1.207-.521,2.181,2.181,0,0,0,.547-1.542,2.11,2.11,0,0,0-.549-1.524A1.528,1.528,0,0,0,215.719,185.229Zm.532,3a.784.784,0,0,1-.591.225.72.72,0,0,1-.553-.213,1.625,1.625,0,0,1-.3-1.027s0-.009,0-.013c0-.047.03-1.154.878-1.154s.913,1.112.915,1.157A1.615,1.615,0,0,1,216.251,188.227Z" transform="translate(-205.745 -175.714)" fill="#013b82"/>
    </g>
  </g>
</svg>
