<svg xmlns="http://www.w3.org/2000/svg" width="15" height="11.234" viewBox="0 0 15 11.234">
  <g id="_2099199" data-name="2099199" transform="translate(0 -64.266)">
    <path id="Path_47645" data-name="Path 47645" d="M8.754,175.388a2.343,2.343,0,0,1-2.507,0L.1,171.47c-.034-.022-.067-.044-.1-.068v6.42a1.351,1.351,0,0,0,1.381,1.32H13.619A1.351,1.351,0,0,0,15,177.822V171.4c-.033.023-.066.046-.1.068Z" transform="translate(0 -103.642)" fill="#eee"/>
    <path id="Path_47646" data-name="Path 47646" d="M.587,67.025l6.147,4.562a1.262,1.262,0,0,0,1.532,0l6.147-4.562A1.515,1.515,0,0,0,15,65.8a1.466,1.466,0,0,0-1.38-1.537H1.38A1.467,1.467,0,0,0,0,65.8a1.515,1.515,0,0,0,.587,1.221Z" fill="#eee"/>
  </g>
</svg>
