<svg xmlns="http://www.w3.org/2000/svg" width="43" height="43" viewBox="0 0 43 43">
  <g id="Group_15238" data-name="Group 15238" transform="translate(-1361.5 -1696.835)">
    <path id="Path_42877" data-name="Path 42877" d="M-1027.547-1337.729l4.334-4.334a2.819,2.819,0,0,0,.209-3.842,2.715,2.715,0,0,0-3.939-.106l-4.443,4.443a9.328,9.328,0,0,1-13.191,0l-4.335-4.334a2.818,2.818,0,0,0-3.841-.209,2.714,2.714,0,0,0-.106,3.939l4.443,4.443a9.328,9.328,0,0,1,0,13.192l-4.334,4.334a2.818,2.818,0,0,0-.209,3.842,2.713,2.713,0,0,0,3.939.106l4.444-4.443a9.328,9.328,0,0,1,13.191,0l4.393,4.393a2.757,2.757,0,0,0,3.448.41,2.717,2.717,0,0,0,.441-4.2l-4.443-4.443A9.328,9.328,0,0,1-1027.547-1337.729Z" transform="translate(2421.261 3049.616)" fill="#0095da"/>
    <path id="Path_42878" data-name="Path 42878" d="M6.5,0A6.5,6.5,0,1,1,0,6.5,6.5,6.5,0,0,1,6.5,0Z" transform="translate(1391.5 1696.835)" fill="#39bb9d"/>
    <circle id="Ellipse_997" data-name="Ellipse 997" cx="2.5" cy="2.5" r="2.5" transform="translate(1395.5 1700.835)" fill="#fff"/>
    <circle id="Ellipse_1019" data-name="Ellipse 1019" cx="6.5" cy="6.5" r="6.5" transform="translate(1361.5 1696.835)" fill="#39bb9d"/>
    <circle id="Ellipse_1018" data-name="Ellipse 1018" cx="2.5" cy="2.5" r="2.5" transform="translate(1365.5 1700.835)" fill="#fff"/>
    <circle id="Ellipse_1015" data-name="Ellipse 1015" cx="6.5" cy="6.5" r="6.5" transform="translate(1391.5 1726.835)" fill="#39bb9d"/>
    <circle id="Ellipse_1014" data-name="Ellipse 1014" cx="2.5" cy="2.5" r="2.5" transform="translate(1395.5 1730.835)" fill="#fff"/>
    <path id="Path_42879" data-name="Path 42879" d="M3.5,0A3.5,3.5,0,1,1,0,3.5,3.5,3.5,0,0,1,3.5,0Z" transform="translate(1379.5 1714.835)" fill="#fff"/>
    <circle id="Ellipse_1017" data-name="Ellipse 1017" cx="6.5" cy="6.5" r="6.5" transform="translate(1361.5 1726.835)" fill="#39bb9d"/>
    <circle id="Ellipse_1016" data-name="Ellipse 1016" cx="2.5" cy="2.5" r="2.5" transform="translate(1365.5 1730.835)" fill="#fff"/>
  </g>
</svg>
