<svg xmlns="http://www.w3.org/2000/svg" width="15.812" height="16.788" viewBox="0 0 15.812 16.788">
  <path id="_8111409_export_arrow_share_navigation_location_icon" data-name="8111409_export_arrow_share_navigation_location_icon" d="M60.669,43.343H61.8v5.683a1.763,1.763,0,0,1-1.762,1.762H48.672a1.763,1.763,0,0,1-1.762-1.762V37.66A1.763,1.763,0,0,1,48.672,35.9h5.683v1.13H48.672a.632.632,0,0,0-.631.631V49.026a.632.632,0,0,0,.631.631H60.038a.632.632,0,0,0,.631-.631ZM53.1,45.375l1.128.064.137-2.4a5.594,5.594,0,0,1,2.046-4.13,5.653,5.653,0,0,1,3.463-1.191h.681L58.771,39.5l.8.8,3.152-3.152L59.57,34l-.8.8,1.787,1.787h-.681a6.579,6.579,0,0,0-6.638,6.387Z" transform="translate(-46.91 -34)" fill="#fff"/>
</svg>
