<svg xmlns="http://www.w3.org/2000/svg" width="24.627" height="30.258" viewBox="0 0 24.627 30.258">
  <g id="Group_15722" data-name="Group 15722" transform="translate(-519.686 -313.742)">
    <g id="Group_15721" data-name="Group 15721">
      <path id="Path_43342" data-name="Path 43342" d="M80.794,51.458a16,16,0,0,1-24.076,0,154.946,154.946,0,0,1,.2-21.3q.1-1.31.226-2.619,1.79-.271,3.579-.46A76.727,76.727,0,0,1,73.356,26.8l7.511,7.511A154.7,154.7,0,0,1,80.794,51.458Z" transform="translate(463.243 287.082)" fill="#e6e6e6"/>
      <g id="Group_15719" data-name="Group 15719" transform="translate(523.235 330.105)">
        <path id="Path_43343" data-name="Path 43343" d="M111.523,278.672H127.6a.727.727,0,0,0,.727-.727h0a.727.727,0,0,0-.727-.727H111.523a.727.727,0,0,0-.727.727h0A.727.727,0,0,0,111.523,278.672Z" transform="translate(-110.796 -277.218)" fill="#0095da"/>
        <path id="Path_43344" data-name="Path 43344" d="M111.523,328.22H127.6a.727.727,0,0,0,.727-.727h0a.727.727,0,0,0-.727-.727H111.523a.727.727,0,0,0-.727.727h0A.727.727,0,0,0,111.523,328.22Z" transform="translate(-110.796 -323.53)" fill="#0095da"/>
        <path id="Path_43345" data-name="Path 43345" d="M111.523,377.769h11.61a.727.727,0,0,0,.727-.727h0a.727.727,0,0,0-.727-.727h-11.61a.727.727,0,0,0-.727.727h0A.727.727,0,0,0,111.523,377.769Z" transform="translate(-110.796 -369.844)" fill="#0095da"/>
      </g>
      <g id="Group_15720" data-name="Group 15720" transform="translate(524.033 319.121)">
        <path id="Path_43346" data-name="Path 43346" d="M123.006,110.491c0-.337.359-.506.717-.506h3.659c.348,0,.5.369.5.707,0,.39-.179.728-.5.728h-2.731V113.2h1.592c.316,0,.5.306.5.643,0,.285-.148.622-.5.622h-1.592v2.72c0,.337-.411.506-.822.506s-.822-.169-.822-.506Z" transform="translate(-123.006 -109.922)" fill="#013b82"/>
        <path id="Path_43347" data-name="Path 43347" d="M185.823,116.112a.542.542,0,0,1,.021-.116l1.961-6.432c.116-.369.59-.548,1.076-.548s.96.179,1.076.548L191.928,116a.546.546,0,0,1,.021.116c0,.39-.6.675-1.054.675-.264,0-.475-.084-.538-.306L190,115.163h-2.225l-.359,1.318c-.063.221-.274.306-.538.306C186.424,116.787,185.823,116.5,185.823,116.112Zm3.828-2.214-.77-2.826-.77,2.826Z" transform="translate(-181.721 -109.016)" fill="#013b82"/>
        <path id="Path_43348" data-name="Path 43348" d="M289.789,118.336v-.612a2.2,2.2,0,0,1-2.077-2.457v-2.794a2.591,2.591,0,0,1,5.177,0v2.794a2.206,2.206,0,0,1-2.088,2.457v.612a.506.506,0,0,1-1.012,0Zm1.455-5.863c0-.717-.359-1.054-.949-1.054s-.939.337-.939,1.054v2.794a.98.98,0,0,0,.432.949v-.464a.506.506,0,0,1,1.012,0v.464a1,1,0,0,0,.443-.949v-2.794Z" transform="translate(-276.956 -109.922)" fill="#013b82"/>
      </g>
    </g>
    <path id="Path_43349" data-name="Path 43349" d="M315.433,28.779l7.511,7.511q-3.509-.211-7.017-.743Q315.606,32.163,315.433,28.779Z" transform="translate(221.166 285.102)" fill="#ccc"/>
  </g>
</svg>
