<svg xmlns="http://www.w3.org/2000/svg" width="26.412" height="22.924" viewBox="0 0 26.412 22.924">
  <g id="_249294" data-name="249294" transform="translate(0 -33.811)">
    <g id="Group_16335" data-name="Group 16335" transform="translate(6.478 41.784)">
      <g id="Group_16334" data-name="Group 16334">
        <rect id="Rectangle_13899" data-name="Rectangle 13899" width="7.475" height="0.997" fill="#00053e"/>
      </g>
    </g>
    <g id="Group_16337" data-name="Group 16337" transform="translate(6.478 45.273)">
      <g id="Group_16336" data-name="Group 16336">
        <rect id="Rectangle_13900" data-name="Rectangle 13900" width="9.967" height="0.997" fill="#00053e"/>
      </g>
    </g>
    <g id="Group_16339" data-name="Group 16339" transform="translate(6.478 48.761)">
      <g id="Group_16338" data-name="Group 16338">
        <rect id="Rectangle_13901" data-name="Rectangle 13901" width="9.967" height="0.997" fill="#00053e"/>
      </g>
    </g>
    <g id="Group_16341" data-name="Group 16341" transform="translate(0 33.811)">
      <g id="Group_16340" data-name="Group 16340">
        <path id="Path_45032" data-name="Path 45032" d="M23.982,33.811H2.555A2.5,2.5,0,0,0,0,36.243v8.965A2.5,2.5,0,0,0,2.492,47.7a2.374,2.374,0,0,0,1.5-.511v8.982a.611.611,0,0,0,.561.561H21.989c.275,0,.436-.285.436-.561V47.192a2.659,2.659,0,0,0,1.5.511,2.5,2.5,0,0,0,2.492-2.494V36.243A2.391,2.391,0,0,0,23.982,33.811Zm-2.553,11.4V55.738H4.983V40.227c0-.275.287-.436.564-.436H20.989a.4.4,0,0,1,.44.436v4.985Zm3.987,0a1.5,1.5,0,1,1-2.99,0V39.791h1v-1H2.99v1h1v5.421a1.5,1.5,0,1,1-2.99,0V36.243a1.5,1.5,0,0,1,1.558-1.435H23.982a1.394,1.394,0,0,1,1.434,1.435v8.965Z" transform="translate(0 -33.811)" fill="#00053e"/>
      </g>
    </g>
  </g>
</svg>
