<svg xmlns="http://www.w3.org/2000/svg" width="65.449" height="24" viewBox="0 0 65.449 24">
  <g id="Group_24022" data-name="Group 24022" transform="translate(-1131.971 -3463.056)">
    <path id="Path_59978" data-name="Path 59978" d="M1.52,0V-13.34H5.74a5.9,5.9,0,0,1,2.25.37A3.709,3.709,0,0,1,9.4-12a3.628,3.628,0,0,1,.74,1.31,4.682,4.682,0,0,1,.22,1.39,4.067,4.067,0,0,1-.58,2.23A3.611,3.611,0,0,1,8.18-5.7a5.638,5.638,0,0,1-2.34.46H3.42V0Zm1.9-6.88h2.4a2.657,2.657,0,0,0,1.91-.64A2.292,2.292,0,0,0,8.4-9.26a2.347,2.347,0,0,0-.69-1.78,2.621,2.621,0,0,0-1.89-.66H3.42ZM12.84,0V-13.34H17.3a9.313,9.313,0,0,1,3.75.71,5.586,5.586,0,0,1,2.56,2.19,7.037,7.037,0,0,1,.93,3.8,6.873,6.873,0,0,1-.93,3.72,5.637,5.637,0,0,1-2.57,2.2A9.272,9.272,0,0,1,17.28,0Zm1.92-1.72h2.48a5.673,5.673,0,0,0,3.89-1.23A4.618,4.618,0,0,0,22.52-6.6a4.918,4.918,0,0,0-1.35-3.73,5.567,5.567,0,0,0-3.99-1.29H14.76ZM27.04,0V-13.34h8.38v1.72H28.96v4.08h4.92v1.7H28.96V0Z" transform="translate(1162 3482.055)" fill="#013b82"/>
    <g id="Group_24021" data-name="Group 24021" transform="translate(73.35 2094.016)">
      <path id="Path_55931" data-name="Path 55931" d="M511.412,44h15.529a1.412,1.412,0,0,0,1.412-1.412V28.471a1.412,1.412,0,0,0-1.412-1.412h-4.235a1.412,1.412,0,0,1-1.412-1.412V20.706a.706.706,0,0,0-.706-.706h-9.176A1.411,1.411,0,0,0,510,21.412V42.588A1.411,1.411,0,0,0,511.412,44Z" transform="translate(548.621 1349.04)" fill="#0095da"/>
      <path id="Path_55932" data-name="Path 55932" d="M528,24.984V20.5l5.174,5.174H528.69A.69.69,0,0,1,528,24.984Z" transform="translate(543.456 1348.885)" fill="#0095da"/>
      <rect id="Rectangle_14657" data-name="Rectangle 14657" width="14.62" height="14.204" rx="2" transform="translate(1060.893 1377.7)" fill="#39bb9d"/>
      <g id="Group_22956" data-name="Group 22956" transform="translate(1062.88 1383.876)">
        <path id="Path_55933" data-name="Path 55933" d="M519,41h-2.568a.428.428,0,1,0,0,.856H519A.428.428,0,1,0,519,41Z" transform="translate(-516 -41)" fill="#fff"/>
      </g>
      <g id="Group_22957" data-name="Group 22957" transform="translate(1062.987 1388.115)">
        <path id="Path_55934" data-name="Path 55934" d="M525.9,47h-9.467a.428.428,0,1,0,0,.856H525.9a.428.428,0,1,0,0-.856Z" transform="translate(-516 -47)" fill="#fff"/>
      </g>
      <g id="Group_22958" data-name="Group 22958" transform="translate(1062.905 1386.045)">
        <path id="Path_55935" data-name="Path 55935" d="M521.565,44.07h-5.137a.428.428,0,1,0,0,.856h5.137a.428.428,0,1,0,0-.856Z" transform="translate(-516 -44.07)" fill="#fff"/>
      </g>
    </g>
  </g>
</svg>
