<svg xmlns="http://www.w3.org/2000/svg" width="13.867" height="18.31" viewBox="0 0 13.867 18.31">
  <g id="file_1_" data-name="file (1)" transform="translate(-63.75 0.287)">
    <g id="Group_15290" data-name="Group 15290" transform="translate(64)">
      <g id="Group_15289" data-name="Group 15289">
        <path id="Path_42942" data-name="Path 42942" d="M76.959,4.443h-3.7a.371.371,0,0,1-.37-.37V.37a.37.37,0,0,0-.37-.37H65.111A1.112,1.112,0,0,0,64,1.111V16.662a1.112,1.112,0,0,0,1.111,1.111H76.219a1.112,1.112,0,0,0,1.111-1.111V4.813A.37.37,0,0,0,76.959,4.443Zm-.37,12.219a.371.371,0,0,1-.37.37H65.111a.371.371,0,0,1-.37-.37V1.111a.371.371,0,0,1,.37-.37h7.035V4.073a1.112,1.112,0,0,0,1.111,1.111h3.332Z" transform="translate(-64)" fill="#0095da" stroke="#0095da" stroke-width="0.5"/>
      </g>
    </g>
    <g id="Group_15292" data-name="Group 15292" transform="translate(72.146 0.001)">
      <g id="Group_15291" data-name="Group 15291">
        <path id="Path_42943" data-name="Path 42943" d="M303.736,4.567,299.293.124a.37.37,0,0,0-.524.524l4.443,4.443a.37.37,0,1,0,.524-.524Z" transform="translate(-298.661 -0.016)" fill="#0095da" stroke="#0095da" stroke-width="0.5"/>
      </g>
    </g>
  </g>
</svg>
