<svg xmlns="http://www.w3.org/2000/svg" width="22.695" height="20.479" viewBox="0 0 22.695 20.479">
  <g id="Group_16567" data-name="Group 16567" transform="translate(-1474.652 -506.262)">
    <g id="_695676" data-name="695676" transform="translate(1474.652 481.262)">
      <g id="Group_16559" data-name="Group 16559" transform="translate(0 25)">
        <g id="Group_16558" data-name="Group 16558" transform="translate(0 0)">
          <path id="Path_45188" data-name="Path 45188" d="M19.237,331H3.457a3.457,3.457,0,0,0,0,6.915h15.78a3.457,3.457,0,0,0,0-6.915Zm0,5.142H3.457a1.684,1.684,0,0,1,0-3.369h15.78a1.684,1.684,0,0,1,0,3.369Z" transform="translate(0 -317.436)" fill="#013b82"/>
          <path id="Path_45189" data-name="Path 45189" d="M159.8,36.974a.889.889,0,0,0,1.254,0l3.546-3.546a.887.887,0,1,0-1.254-1.254l-2.033,2.033V25.887a.887.887,0,1,0-1.773,0v8.321l-2.033-2.033a.887.887,0,1,0-1.254,1.254Z" transform="translate(-149.084 -25)" fill="#013b82"/>
        </g>
      </g>
    </g>
    <rect id="Rectangle_13979" data-name="Rectangle 13979" width="20" height="5" transform="translate(1476 521)" fill="#013b82"/>
  </g>
</svg>
