<svg id="Group_11908" data-name="Group 11908" xmlns="http://www.w3.org/2000/svg" width="20.728" height="13.581" viewBox="0 0 20.728 13.581">
  <rect id="Rectangle_1192" data-name="Rectangle 1192" width="20.728" height="13.581" rx="2" transform="translate(0)" fill="#fff"/>
  <g id="US-flag" transform="translate(0)">
    <path id="Path_9690" data-name="Path 9690" d="M19.173,88.276H1.552A1.552,1.552,0,0,0,0,89.828V100.3a1.552,1.552,0,0,0,1.552,1.552H19.173a1.552,1.552,0,0,0,1.552-1.552V89.828A1.552,1.552,0,0,0,19.173,88.276Z" transform="translate(0 -88.276)" fill="#f5f5f5"/>
    <g id="Group_2711" data-name="Group 2711" transform="translate(0 0)">
      <path id="Path_9691" data-name="Path 9691" d="M2.109,89.321H22.663A1.552,1.552,0,0,0,21.2,88.276H3.576A1.552,1.552,0,0,0,2.109,89.321Z" transform="translate(-2.024 -88.276)" fill="#ff4b55"/>
      <rect id="Rectangle_1188" data-name="Rectangle 1188" width="20.725" height="1.044" transform="translate(0 4.178)" fill="#ff4b55"/>
      <rect id="Rectangle_1189" data-name="Rectangle 1189" width="20.725" height="1.044" transform="translate(0 2.089)" fill="#ff4b55"/>
      <path id="Path_9692" data-name="Path 9692" d="M0,243.785a.357.357,0,0,0,.357.357H20.725V243.1H0Z" transform="translate(0 -236.831)" fill="#ff4b55"/>
      <rect id="Rectangle_1190" data-name="Rectangle 1190" width="20.725" height="1.045" transform="translate(0 10.445)" fill="#ff4b55"/>
      <path id="Path_9693" data-name="Path 9693" d="M22.663,397.92H2.109a1.552,1.552,0,0,0,1.467,1.045H21.2A1.552,1.552,0,0,0,22.663,397.92Z" transform="translate(-2.024 -385.386)" fill="#ff4b55"/>
      <rect id="Rectangle_1191" data-name="Rectangle 1191" width="20.725" height="1.044" transform="translate(0 8.356)" fill="#ff4b55"/>
    </g>
    <path id="Path_9694" data-name="Path 9694" d="M.357,95.587H9.291a.357.357,0,0,0,.357-.357v-6.6a.357.357,0,0,0-.357-.357H1.552A1.552,1.552,0,0,0,0,89.827v5.4A.357.357,0,0,0,.357,95.587Z" transform="translate(0 -88.275)" fill="#41479b"/>
    <g id="Group_2712" data-name="Group 2712" transform="translate(0.577 0.797)">
      <path id="Path_9695" data-name="Path 9695" d="M14.679,107.991l.079.237.25,0a.034.034,0,0,1,.02.061l-.2.149.075.238a.034.034,0,0,1-.052.038l-.2-.145-.2.145a.034.034,0,0,1-.052-.038l.075-.238-.2-.149a.034.034,0,0,1,.02-.061l.25,0,.079-.237A.034.034,0,0,1,14.679,107.991Z" transform="translate(-14.253 -107.968)" fill="#f5f5f5"/>
      <path id="Path_9696" data-name="Path 9696" d="M14.679,138.646l.079.237.25,0a.034.034,0,0,1,.02.061l-.2.149.075.238a.034.034,0,0,1-.052.038l-.2-.145-.2.145a.034.034,0,0,1-.052-.038l.075-.238-.2-.149a.034.034,0,0,1,.02-.061l.25,0,.079-.237A.034.034,0,0,1,14.679,138.646Z" transform="translate(-14.253 -137.382)" fill="#f5f5f5"/>
      <path id="Path_9697" data-name="Path 9697" d="M14.679,169.3l.079.237.25,0a.034.034,0,0,1,.02.061l-.2.149.075.238a.034.034,0,0,1-.052.038l-.2-.145-.2.145a.034.034,0,0,1-.052-.038l.075-.238-.2-.149a.034.034,0,0,1,.02-.061l.25,0,.079-.237A.034.034,0,0,1,14.679,169.3Z" transform="translate(-14.253 -166.795)" fill="#f5f5f5"/>
      <path id="Path_9698" data-name="Path 9698" d="M14.679,199.954l.079.237.25,0a.034.034,0,0,1,.02.061l-.2.149.075.238a.034.034,0,0,1-.052.038l-.2-.145-.2.145a.034.034,0,0,1-.052-.038l.075-.238-.2-.149a.034.034,0,0,1,.02-.061l.25,0,.079-.237A.034.034,0,0,1,14.679,199.954Z" transform="translate(-14.253 -196.208)" fill="#f5f5f5"/>
      <path id="Path_9699" data-name="Path 9699" d="M14.679,230.609l.079.237.25,0a.034.034,0,0,1,.02.061l-.2.149.075.238a.034.034,0,0,1-.052.038l-.2-.145-.2.145a.034.034,0,0,1-.052-.038l.075-.238-.2-.149a.034.034,0,0,1,.02-.061l.25,0,.079-.237A.034.034,0,0,1,14.679,230.609Z" transform="translate(-14.253 -225.622)" fill="#f5f5f5"/>
      <path id="Path_9700" data-name="Path 9700" d="M38.472,123.021l.079.237.25,0a.034.034,0,0,1,.02.061l-.2.149.075.238a.034.034,0,0,1-.052.038l-.2-.145-.2.145a.034.034,0,0,1-.052-.038l.075-.238-.2-.149a.034.034,0,0,1,.02-.061l.25,0,.079-.237A.034.034,0,0,1,38.472,123.021Z" transform="translate(-37.083 -122.389)" fill="#f5f5f5"/>
      <path id="Path_9701" data-name="Path 9701" d="M38.472,153.675l.079.237.25,0a.034.034,0,0,1,.02.061l-.2.149.075.238a.034.034,0,0,1-.052.038l-.2-.145-.2.145a.034.034,0,0,1-.052-.038l.075-.238-.2-.149a.034.034,0,0,1,.02-.061l.25,0,.079-.237A.034.034,0,0,1,38.472,153.675Z" transform="translate(-37.083 -151.803)" fill="#f5f5f5"/>
      <path id="Path_9702" data-name="Path 9702" d="M38.472,184.329l.079.237.25,0a.034.034,0,0,1,.02.061l-.2.149.075.238a.034.034,0,0,1-.052.038l-.2-.145-.2.145a.034.034,0,0,1-.052-.038l.075-.238-.2-.149a.034.034,0,0,1,.02-.061l.25,0,.079-.237A.034.034,0,0,1,38.472,184.329Z" transform="translate(-37.083 -181.216)" fill="#f5f5f5"/>
      <path id="Path_9703" data-name="Path 9703" d="M38.472,214.984l.079.237.25,0a.034.034,0,0,1,.02.061l-.2.149.075.238a.034.034,0,0,1-.052.038l-.2-.145-.2.145a.034.034,0,0,1-.052-.038l.075-.238-.2-.149a.034.034,0,0,1,.02-.061l.25,0,.079-.237A.034.034,0,0,1,38.472,214.984Z" transform="translate(-37.083 -210.63)" fill="#f5f5f5"/>
      <path id="Path_9704" data-name="Path 9704" d="M62.265,107.991l.079.237.25,0a.034.034,0,0,1,.02.061l-.2.149.075.238a.034.034,0,0,1-.052.038l-.2-.145-.2.145a.034.034,0,0,1-.052-.038l.075-.238-.2-.149a.034.034,0,0,1,.02-.061l.25,0,.079-.237A.034.034,0,0,1,62.265,107.991Z" transform="translate(-59.912 -107.968)" fill="#f5f5f5"/>
      <path id="Path_9705" data-name="Path 9705" d="M62.265,138.646l.079.237.25,0a.034.034,0,0,1,.02.061l-.2.149.075.238a.034.034,0,0,1-.052.038l-.2-.145-.2.145a.034.034,0,0,1-.052-.038l.075-.238-.2-.149a.034.034,0,0,1,.02-.061l.25,0,.079-.237A.034.034,0,0,1,62.265,138.646Z" transform="translate(-59.912 -137.382)" fill="#f5f5f5"/>
      <path id="Path_9706" data-name="Path 9706" d="M62.265,169.3l.079.237.25,0a.034.034,0,0,1,.02.061l-.2.149.075.238a.034.034,0,0,1-.052.038l-.2-.145-.2.145a.034.034,0,0,1-.052-.038l.075-.238-.2-.149a.034.034,0,0,1,.02-.061l.25,0,.079-.237A.034.034,0,0,1,62.265,169.3Z" transform="translate(-59.912 -166.795)" fill="#f5f5f5"/>
      <path id="Path_9707" data-name="Path 9707" d="M62.265,199.954l.079.237.25,0a.034.034,0,0,1,.02.061l-.2.149.075.238a.034.034,0,0,1-.052.038l-.2-.145-.2.145a.034.034,0,0,1-.052-.038l.075-.238-.2-.149a.034.034,0,0,1,.02-.061l.25,0,.079-.237A.034.034,0,0,1,62.265,199.954Z" transform="translate(-59.912 -196.208)" fill="#f5f5f5"/>
      <path id="Path_9708" data-name="Path 9708" d="M62.265,230.609l.079.237.25,0a.034.034,0,0,1,.02.061l-.2.149.075.238a.034.034,0,0,1-.052.038l-.2-.145-.2.145a.034.034,0,0,1-.052-.038l.075-.238-.2-.149a.034.034,0,0,1,.02-.061l.25,0,.079-.237A.034.034,0,0,1,62.265,230.609Z" transform="translate(-59.912 -225.622)" fill="#f5f5f5"/>
      <path id="Path_9709" data-name="Path 9709" d="M86.059,123.021l.079.237.25,0a.034.034,0,0,1,.02.061l-.2.149.075.238a.034.034,0,0,1-.052.038l-.2-.145-.2.145a.034.034,0,0,1-.052-.038l.075-.238-.2-.149a.034.034,0,0,1,.02-.061l.25,0,.079-.237A.034.034,0,0,1,86.059,123.021Z" transform="translate(-82.743 -122.389)" fill="#f5f5f5"/>
      <path id="Path_9710" data-name="Path 9710" d="M86.059,153.675l.079.237.25,0a.034.034,0,0,1,.02.061l-.2.149.075.238a.034.034,0,0,1-.052.038l-.2-.145-.2.145a.034.034,0,0,1-.052-.038l.075-.238-.2-.149a.034.034,0,0,1,.02-.061l.25,0,.079-.237A.034.034,0,0,1,86.059,153.675Z" transform="translate(-82.743 -151.803)" fill="#f5f5f5"/>
      <path id="Path_9711" data-name="Path 9711" d="M86.059,184.329l.079.237.25,0a.034.034,0,0,1,.02.061l-.2.149.075.238a.034.034,0,0,1-.052.038l-.2-.145-.2.145a.034.034,0,0,1-.052-.038l.075-.238-.2-.149a.034.034,0,0,1,.02-.061l.25,0,.079-.237A.034.034,0,0,1,86.059,184.329Z" transform="translate(-82.743 -181.216)" fill="#f5f5f5"/>
      <path id="Path_9712" data-name="Path 9712" d="M86.059,214.984l.079.237.25,0a.034.034,0,0,1,.02.061l-.2.149.075.238a.034.034,0,0,1-.052.038l-.2-.145-.2.145a.034.034,0,0,1-.052-.038l.075-.238-.2-.149a.034.034,0,0,1,.02-.061l.25,0,.079-.237A.034.034,0,0,1,86.059,214.984Z" transform="translate(-82.743 -210.63)" fill="#f5f5f5"/>
      <path id="Path_9713" data-name="Path 9713" d="M109.851,107.991l.079.237.25,0a.034.034,0,0,1,.02.061l-.2.149.075.238a.034.034,0,0,1-.052.038l-.2-.145-.2.145a.034.034,0,0,1-.052-.038l.075-.238-.2-.149a.034.034,0,0,1,.02-.061l.25,0,.079-.237A.034.034,0,0,1,109.851,107.991Z" transform="translate(-105.572 -107.968)" fill="#f5f5f5"/>
      <path id="Path_9714" data-name="Path 9714" d="M109.851,138.646l.079.237.25,0a.034.034,0,0,1,.02.061l-.2.149.075.238a.034.034,0,0,1-.052.038l-.2-.145-.2.145a.034.034,0,0,1-.052-.038l.075-.238-.2-.149a.034.034,0,0,1,.02-.061l.25,0,.079-.237A.034.034,0,0,1,109.851,138.646Z" transform="translate(-105.572 -137.382)" fill="#f5f5f5"/>
      <path id="Path_9715" data-name="Path 9715" d="M109.851,169.3l.079.237.25,0a.034.034,0,0,1,.02.061l-.2.149.075.238a.034.034,0,0,1-.052.038l-.2-.145-.2.145a.034.034,0,0,1-.052-.038l.075-.238-.2-.149a.034.034,0,0,1,.02-.061l.25,0,.079-.237A.034.034,0,0,1,109.851,169.3Z" transform="translate(-105.572 -166.795)" fill="#f5f5f5"/>
      <path id="Path_9716" data-name="Path 9716" d="M109.851,199.954l.079.237.25,0a.034.034,0,0,1,.02.061l-.2.149.075.238a.034.034,0,0,1-.052.038l-.2-.145-.2.145a.034.034,0,0,1-.052-.038l.075-.238-.2-.149a.034.034,0,0,1,.02-.061l.25,0,.079-.237A.034.034,0,0,1,109.851,199.954Z" transform="translate(-105.572 -196.208)" fill="#f5f5f5"/>
      <path id="Path_9717" data-name="Path 9717" d="M109.851,230.609l.079.237.25,0a.034.034,0,0,1,.02.061l-.2.149.075.238a.034.034,0,0,1-.052.038l-.2-.145-.2.145a.034.034,0,0,1-.052-.038l.075-.238-.2-.149a.034.034,0,0,1,.02-.061l.25,0,.079-.237A.034.034,0,0,1,109.851,230.609Z" transform="translate(-105.572 -225.622)" fill="#f5f5f5"/>
      <path id="Path_9718" data-name="Path 9718" d="M133.645,123.021l.079.237.25,0a.034.034,0,0,1,.02.061l-.2.149.075.238a.034.034,0,0,1-.052.038l-.2-.145-.2.145a.034.034,0,0,1-.052-.038l.075-.238-.2-.149a.034.034,0,0,1,.02-.061l.25,0,.079-.237A.034.034,0,0,1,133.645,123.021Z" transform="translate(-128.403 -122.389)" fill="#f5f5f5"/>
      <path id="Path_9719" data-name="Path 9719" d="M133.645,153.675l.079.237.25,0a.034.034,0,0,1,.02.061l-.2.149.075.238a.034.034,0,0,1-.052.038l-.2-.145-.2.145a.034.034,0,0,1-.052-.038l.075-.238-.2-.149a.034.034,0,0,1,.02-.061l.25,0,.079-.237A.034.034,0,0,1,133.645,153.675Z" transform="translate(-128.403 -151.803)" fill="#f5f5f5"/>
      <path id="Path_9720" data-name="Path 9720" d="M133.645,184.329l.079.237.25,0a.034.034,0,0,1,.02.061l-.2.149.075.238a.034.034,0,0,1-.052.038l-.2-.145-.2.145a.034.034,0,0,1-.052-.038l.075-.238-.2-.149a.034.034,0,0,1,.02-.061l.25,0,.079-.237A.034.034,0,0,1,133.645,184.329Z" transform="translate(-128.403 -181.216)" fill="#f5f5f5"/>
      <path id="Path_9721" data-name="Path 9721" d="M133.645,214.984l.079.237.25,0a.034.034,0,0,1,.02.061l-.2.149.075.238a.034.034,0,0,1-.052.038l-.2-.145-.2.145a.034.034,0,0,1-.052-.038l.075-.238-.2-.149a.034.034,0,0,1,.02-.061l.25,0,.079-.237A.034.034,0,0,1,133.645,214.984Z" transform="translate(-128.403 -210.63)" fill="#f5f5f5"/>
      <path id="Path_9722" data-name="Path 9722" d="M157.439,107.991l.079.237.25,0a.034.034,0,0,1,.02.061l-.2.149.075.238a.034.034,0,0,1-.052.038l-.2-.145-.2.145a.034.034,0,0,1-.052-.038l.075-.238-.2-.149a.034.034,0,0,1,.02-.061l.25,0,.079-.237A.034.034,0,0,1,157.439,107.991Z" transform="translate(-151.234 -107.968)" fill="#f5f5f5"/>
      <path id="Path_9723" data-name="Path 9723" d="M157.439,138.646l.079.237.25,0a.034.034,0,0,1,.02.061l-.2.149.075.238a.034.034,0,0,1-.052.038l-.2-.145-.2.145a.034.034,0,0,1-.052-.038l.075-.238-.2-.149a.034.034,0,0,1,.02-.061l.25,0,.079-.237A.034.034,0,0,1,157.439,138.646Z" transform="translate(-151.234 -137.382)" fill="#f5f5f5"/>
      <path id="Path_9724" data-name="Path 9724" d="M157.439,169.3l.079.237.25,0a.034.034,0,0,1,.02.061l-.2.149.075.238a.034.034,0,0,1-.052.038l-.2-.145-.2.145a.034.034,0,0,1-.052-.038l.075-.238-.2-.149a.034.034,0,0,1,.02-.061l.25,0,.079-.237A.034.034,0,0,1,157.439,169.3Z" transform="translate(-151.234 -166.795)" fill="#f5f5f5"/>
      <path id="Path_9725" data-name="Path 9725" d="M157.439,199.954l.079.237.25,0a.034.034,0,0,1,.02.061l-.2.149.075.238a.034.034,0,0,1-.052.038l-.2-.145-.2.145a.034.034,0,0,1-.052-.038l.075-.238-.2-.149a.034.034,0,0,1,.02-.061l.25,0,.079-.237A.034.034,0,0,1,157.439,199.954Z" transform="translate(-151.234 -196.208)" fill="#f5f5f5"/>
      <path id="Path_9726" data-name="Path 9726" d="M157.439,230.609l.079.237.25,0a.034.034,0,0,1,.02.061l-.2.149.075.238a.034.034,0,0,1-.052.038l-.2-.145-.2.145a.034.034,0,0,1-.052-.038l.075-.238-.2-.149a.034.034,0,0,1,.02-.061l.25,0,.079-.237A.034.034,0,0,1,157.439,230.609Z" transform="translate(-151.234 -225.622)" fill="#f5f5f5"/>
      <path id="Path_9727" data-name="Path 9727" d="M181.232,123.021l.079.237.25,0a.034.034,0,0,1,.02.061l-.2.149.075.238a.034.034,0,0,1-.052.038l-.2-.145-.2.145a.034.034,0,0,1-.052-.038l.075-.238-.2-.149a.034.034,0,0,1,.02-.061l.25,0,.079-.237A.034.034,0,0,1,181.232,123.021Z" transform="translate(-174.064 -122.389)" fill="#f5f5f5"/>
      <path id="Path_9728" data-name="Path 9728" d="M181.232,153.675l.079.237.25,0a.034.034,0,0,1,.02.061l-.2.149.075.238a.034.034,0,0,1-.052.038l-.2-.145-.2.145a.034.034,0,0,1-.052-.038l.075-.238-.2-.149a.034.034,0,0,1,.02-.061l.25,0,.079-.237A.034.034,0,0,1,181.232,153.675Z" transform="translate(-174.064 -151.803)" fill="#f5f5f5"/>
      <path id="Path_9729" data-name="Path 9729" d="M181.232,184.329l.079.237.25,0a.034.034,0,0,1,.02.061l-.2.149.075.238a.034.034,0,0,1-.052.038l-.2-.145-.2.145a.034.034,0,0,1-.052-.038l.075-.238-.2-.149a.034.034,0,0,1,.02-.061l.25,0,.079-.237A.034.034,0,0,1,181.232,184.329Z" transform="translate(-174.064 -181.216)" fill="#f5f5f5"/>
      <path id="Path_9730" data-name="Path 9730" d="M181.232,214.984l.079.237.25,0a.034.034,0,0,1,.02.061l-.2.149.075.238a.034.034,0,0,1-.052.038l-.2-.145-.2.145a.034.034,0,0,1-.052-.038l.075-.238-.2-.149a.034.034,0,0,1,.02-.061l.25,0,.079-.237A.034.034,0,0,1,181.232,214.984Z" transform="translate(-174.064 -210.63)" fill="#f5f5f5"/>
      <path id="Path_9731" data-name="Path 9731" d="M205.026,107.991l.079.237.25,0a.034.034,0,0,1,.02.061l-.2.149.075.238a.034.034,0,0,1-.052.038l-.2-.145-.2.145a.034.034,0,0,1-.052-.038l.076-.238-.2-.149a.034.034,0,0,1,.02-.061l.25,0,.079-.237A.034.034,0,0,1,205.026,107.991Z" transform="translate(-196.895 -107.968)" fill="#f5f5f5"/>
      <path id="Path_9732" data-name="Path 9732" d="M205.026,138.646l.079.237.25,0a.034.034,0,0,1,.02.061l-.2.149.075.238a.034.034,0,0,1-.052.038l-.2-.145-.2.145a.034.034,0,0,1-.052-.038l.076-.238-.2-.149a.034.034,0,0,1,.02-.061l.25,0,.079-.237A.034.034,0,0,1,205.026,138.646Z" transform="translate(-196.895 -137.382)" fill="#f5f5f5"/>
      <path id="Path_9733" data-name="Path 9733" d="M205.026,169.3l.079.237.25,0a.034.034,0,0,1,.02.061l-.2.149.075.238a.034.034,0,0,1-.052.038l-.2-.145-.2.145a.034.034,0,0,1-.052-.038l.076-.238-.2-.149a.034.034,0,0,1,.02-.061l.25,0,.079-.237A.034.034,0,0,1,205.026,169.3Z" transform="translate(-196.895 -166.795)" fill="#f5f5f5"/>
      <path id="Path_9734" data-name="Path 9734" d="M205.026,199.954l.079.237.25,0a.034.034,0,0,1,.02.061l-.2.149.075.238a.034.034,0,0,1-.052.038l-.2-.145-.2.145a.034.034,0,0,1-.052-.038l.076-.238-.2-.149a.034.034,0,0,1,.02-.061l.25,0,.079-.237A.034.034,0,0,1,205.026,199.954Z" transform="translate(-196.895 -196.208)" fill="#f5f5f5"/>
      <path id="Path_9735" data-name="Path 9735" d="M205.026,230.609l.079.237.25,0a.034.034,0,0,1,.02.061l-.2.149.075.238a.034.034,0,0,1-.052.038l-.2-.145-.2.145a.034.034,0,0,1-.052-.038l.076-.238-.2-.149a.034.034,0,0,1,.02-.061l.25,0,.079-.237A.034.034,0,0,1,205.026,230.609Z" transform="translate(-196.895 -225.622)" fill="#f5f5f5"/>
    </g>
  </g>
</svg>
