<svg xmlns="http://www.w3.org/2000/svg" width="24.421" height="16" viewBox="0 0 24.421 16"><g transform="translate(0 -88.276)"><path d="M10.562,103.5a.112.112,0,0,0,0-.215l-2.21-.675a.112.112,0,0,1,0-.215l2.209-.673a.112.112,0,0,0,0-.215l-2.209-.673a.112.112,0,0,1,0-.215l2.21-.675a.112.112,0,0,0,0-.215l-2.21-.673a.112.112,0,0,1,0-.215l2.21-.675a.112.112,0,0,0,0-.215l-2.21-.673a.112.112,0,0,1,0-.215l2.21-.675a.112.112,0,0,0,0-.215L8.352,95.5a.112.112,0,0,1,0-.215l2.21-.675a.112.112,0,0,0,0-.215l-2.209-.673a.112.112,0,0,1,0-.215l2.209-.673a.112.112,0,0,0,0-.215l-2.21-.675a.112.112,0,0,1,0-.215l2.21-.673a.112.112,0,0,0,0-.215l-2.21-.675a.112.112,0,0,1,0-.215l2.21-.673a.112.112,0,0,0,0-.215l-2.546-.778a.109.109,0,0,0-.033,0H1.829A1.829,1.829,0,0,0,0,90.109v12.342a1.829,1.829,0,0,0,1.829,1.829H7.983a.112.112,0,0,0,.033,0Z" transform="translate(0 -0.004)" fill="#f5f5f5"/><path d="M181.981,88.276H167.372a.112.112,0,0,1,.033,0l2.546.778a.112.112,0,0,1,0,.215l-2.21.673a.112.112,0,0,0,0,.215l2.21.675a.112.112,0,0,1,0,.215l-2.21.673a.112.112,0,0,0,0,.215l2.21.675a.112.112,0,0,1,0,.215l-2.209.673a.112.112,0,0,0,0,.215l2.209.673a.112.112,0,0,1,0,.215l-2.21.675a.112.112,0,0,0,0,.215l2.21.673a.112.112,0,0,1,0,.215l-2.21.675a.112.112,0,0,0,0,.215l2.21.673a.112.112,0,0,1,0,.215l-2.21.675a.112.112,0,0,0,0,.215l2.21.673a.112.112,0,0,1,0,.215l-2.21.675a.112.112,0,0,0,0,.215l2.209.673a.112.112,0,0,1,0,.215l-2.209.673a.112.112,0,0,0,0,.215l2.21.675a.112.112,0,0,1,0,.215l-2.546.775a.113.113,0,0,1-.033,0h14.609a1.829,1.829,0,0,0,1.829-1.829V90.1A1.829,1.829,0,0,0,181.981,88.276Z" transform="translate(-159.389)" fill="#873250"/></g></svg>