<svg xmlns="http://www.w3.org/2000/svg" width="41.575" height="41.571" viewBox="0 0 41.575 41.571">
  <g id="travel-insurance" transform="translate(0.004 0.001)">
    <path id="Path_42893" data-name="Path 42893" d="M40.359,1.213A5.1,5.1,0,0,0,36.722,0a4.8,4.8,0,0,0-3.412,1.23L25.775,9.25a.984.984,0,0,1-.953.294L3.761,5.093a2.319,2.319,0,0,0-2.182.641A2.772,2.772,0,0,0,.8,7.985,2.716,2.716,0,0,0,2.15,10.012L16.578,17.65a.962.962,0,0,1,.468.727,1,1,0,0,1-.242.814L8.2,28.458l-4.417-1.94a2.713,2.713,0,0,0-3.014.572A2.568,2.568,0,0,0,1.059,31l5.439,4a1.981,1.981,0,0,1,.416.433l3.707,5.075a2.6,2.6,0,0,0,1.888,1.057H12.7a2.626,2.626,0,0,0,1.836-.762,2.707,2.707,0,0,0,.572-3.014l-1.94-4.434,4.174-3.88c-.017-.26-.017-.537-.017-.814V21.72A4.771,4.771,0,0,1,20.562,17.2l9.076-3.083a4.7,4.7,0,0,1,3.083,0l1.022.346,6.6-6.2a4.772,4.772,0,0,0,1.23-3.412,5.15,5.15,0,0,0-1.212-3.637Z" transform="translate(0 0)" fill="#0095da"/>
    <path id="Path_42894" data-name="Path 42894" d="M31.9,13.163,22.81,10.07a1.277,1.277,0,0,0-.835,0l-9.093,3.093A1.3,1.3,0,0,0,12,14.393v6.959c0,8.494,9.481,12.623,9.885,12.795a1.306,1.306,0,0,0,1.015,0c.4-.173,9.885-4.3,9.885-12.795V14.393a1.3,1.3,0,0,0-.882-1.23Zm-3.819,6.568-4.763,6.062a1.733,1.733,0,0,1-2.489.246l-3.031-2.6a1.731,1.731,0,0,1,2.253-2.629l1.659,1.422,3.646-4.64a1.731,1.731,0,0,1,2.724,2.137Z" transform="translate(8.787 7.321)" fill="#39bb9d"/>
  </g>
</svg>
