<svg xmlns="http://www.w3.org/2000/svg" width="41.571" height="41.571" viewBox="0 0 41.571 41.571">
  <g id="Group_15218" data-name="Group 15218" transform="translate(-5171.064 -8489.611)">
    <path id="Path_42893" data-name="Path 42893" d="M40.355,1.213A5.1,5.1,0,0,0,36.718,0a4.8,4.8,0,0,0-3.412,1.23L25.773,9.249a.984.984,0,0,1-.953.294L3.761,5.092a2.319,2.319,0,0,0-2.182.641A2.771,2.771,0,0,0,.8,7.985,2.716,2.716,0,0,0,2.15,10.011l14.426,7.638a.962.962,0,0,1,.468.727,1,1,0,0,1-.242.814L8.194,28.455l-4.416-1.94a2.712,2.712,0,0,0-3.013.572A2.568,2.568,0,0,0,1.059,31L6.5,35a1.98,1.98,0,0,1,.416.433l3.706,5.074a2.6,2.6,0,0,0,1.888,1.056H12.7a2.626,2.626,0,0,0,1.836-.762A2.707,2.707,0,0,0,15.1,37.79l-1.94-4.434,4.174-3.879c-.017-.26-.017-.537-.017-.814V21.718A4.771,4.771,0,0,1,20.56,17.2l9.075-3.083a4.7,4.7,0,0,1,3.083,0l1.022.346,6.6-6.2a4.772,4.772,0,0,0,1.23-3.412,5.15,5.15,0,0,0-1.212-3.637Z" transform="translate(5171.067 8489.614)" fill="#0095da"/>
    <path id="Path_42895" data-name="Path 42895" d="M1.213,1.214A5.1,5.1,0,0,1,4.85,0a4.8,4.8,0,0,1,3.412,1.23L15.8,9.25a.984.984,0,0,0,.953.294L37.807,5.094a2.319,2.319,0,0,1,2.182.641,2.771,2.771,0,0,1,.779,2.251,2.716,2.716,0,0,1-1.351,2.026L24.991,17.65a.962.962,0,0,0-.468.727,1,1,0,0,0,.242.814l8.607,9.266,4.416-1.94a2.712,2.712,0,0,1,3.013.572A2.568,2.568,0,0,1,40.509,31l-5.438,4a1.98,1.98,0,0,0-.416.433l-3.706,5.074a2.6,2.6,0,0,1-1.888,1.056h-.191a2.626,2.626,0,0,1-1.836-.762,2.707,2.707,0,0,1-.572-3.013l1.94-4.434-4.174-3.879c.017-.26.017-.537.017-.814L13.6,18.377c0-2.044,1.69-1.633-.25-2.291l-1.42-1.969a4.7,4.7,0,0,0-3.083,0l-1.022.346-6.6-6.2A4.772,4.772,0,0,1,0,4.851,5.15,5.15,0,0,1,1.213,1.214Z" transform="translate(5212.633 8489.611) rotate(90)" fill="#0095da"/>
  </g>
</svg>
