<svg xmlns="http://www.w3.org/2000/svg" width="15.85" height="15.856" viewBox="0 0 15.85 15.856">
  <g id="Group_23408" data-name="Group 23408" transform="translate(-413.8 -1474.8)">
    <rect id="Rectangle_16657" data-name="Rectangle 16657" width="15.45" height="15.52" transform="translate(414 1475)" fill="#551515" opacity="0"/>
    <g id="Group_23407" data-name="Group 23407" transform="translate(413 1474)">
      <path id="Path_56022" data-name="Path 56022" d="M14.207,1H3.243A2.245,2.245,0,0,0,1,3.243v7.476a2.245,2.245,0,0,0,2.243,2.243h.5V16.2a.249.249,0,0,0,.432.17l3.166-3.409h6.869a2.245,2.245,0,0,0,2.243-2.243V3.243A2.245,2.245,0,0,0,14.207,1Zm1.744,9.719a1.746,1.746,0,0,1-1.744,1.744H7.23a.249.249,0,0,0-.183.08L4.24,15.566V12.712a.249.249,0,0,0-.249-.249H3.243A1.746,1.746,0,0,1,1.5,10.719V3.243A1.746,1.746,0,0,1,3.243,1.5H14.207a1.746,1.746,0,0,1,1.744,1.744ZM8.725,5.485A1.246,1.246,0,1,0,9.971,6.731,1.246,1.246,0,0,0,8.725,5.485Zm0,1.994a.748.748,0,1,1,.748-.748.748.748,0,0,1-.748.748Zm3.738-1.994a1.246,1.246,0,1,0,1.246,1.246,1.246,1.246,0,0,0-1.246-1.246Zm0,1.994a.748.748,0,1,1,.748-.748.748.748,0,0,1-.748.748ZM4.987,5.485A1.246,1.246,0,1,0,6.233,6.731,1.246,1.246,0,0,0,4.987,5.485Zm0,1.994a.748.748,0,1,1,.748-.748A.748.748,0,0,1,4.987,7.479Z" fill="#85849e" stroke="#85849e" stroke-width="0.4"/>
    </g>
  </g>
</svg>
