<svg xmlns="http://www.w3.org/2000/svg" width="15.45" height="15.72" viewBox="0 0 15.45 15.72">
  <g id="Group_23311" data-name="Group 23311" transform="translate(-509 -6998.9)">
    <path id="Path_55978" data-name="Path 55978" d="M0,0H15.45V15.52H0Z" transform="translate(509 6999)" fill="#190101" opacity="0"/>
    <g id="Group_23310" data-name="Group 23310" transform="translate(493.2 6996.5)">
      <path id="Path_55979" data-name="Path 55979" d="M23.06,2.5A5.268,5.268,0,0,0,17.8,7.76c0,2.091,2.663,6.96,4.231,9.671a1.174,1.174,0,0,0,1.013.588,1.14,1.14,0,0,0,1.013-.588c1.585-2.712,4.231-7.58,4.231-9.671A5.219,5.219,0,0,0,23.06,2.5Zm.425,14.589a.488.488,0,0,1-.425.245.474.474,0,0,1-.425-.245c-3.741-6.42-4.15-8.659-4.15-9.328a4.566,4.566,0,0,1,9.132,0C27.618,8.43,27.226,10.668,23.485,17.089Z" fill="#85849e" stroke="#85849e" stroke-width="0.2"/>
      <path id="Path_55980" data-name="Path 55980" d="M37.283,19.5a2.483,2.483,0,1,0,2.483,2.483A2.482,2.482,0,0,0,37.283,19.5Zm0,4.264a1.781,1.781,0,1,1,1.781-1.781A1.785,1.785,0,0,1,37.283,23.764Z" transform="translate(-14.223 -14.223)" fill="#85849e" stroke="#85849e" stroke-width="0.2"/>
    </g>
  </g>
</svg>
