<svg xmlns="http://www.w3.org/2000/svg" width="15.5" height="15.52" viewBox="0 0 15.5 15.52">
  <g id="Group_23313" data-name="Group 23313" transform="translate(-424.975 -7151)">
    <rect id="Rectangle_16657" data-name="Rectangle 16657" width="15.45" height="15.52" transform="translate(425 7151)" fill="#551515" opacity="0"/>
    <g id="Group_23312" data-name="Group 23312" transform="translate(425 7152)">
      <path id="Path_55981" data-name="Path 55981" d="M1.506,0H13.9A1.534,1.534,0,0,1,15.45,1.506V12.286A1.534,1.534,0,0,1,13.9,13.792H1.506A1.525,1.525,0,0,1,0,12.286V1.506A1.525,1.525,0,0,1,1.506,0Zm.086.861L7.7,5.81,13.858.861Zm12.954.559C12.395,3.142,10.2,5.035,8,6.671a.452.452,0,0,1-.559,0L.861,1.42V12.286a.662.662,0,0,0,.646.646H13.9a.672.672,0,0,0,.689-.646V1.506C14.589,1.463,14.589,1.42,14.546,1.42Z" fill="#85849e" stroke="#85849e" stroke-width="0.05"/>
    </g>
  </g>
</svg>
