<svg xmlns="http://www.w3.org/2000/svg" width="15.449" height="15.519" viewBox="0 0 15.449 15.519">
  <g id="Group_14991" data-name="Group 14991" transform="translate(0 -1.283)">
    <g id="Group_652" data-name="Group 652" transform="translate(0 1.283)">
      <path id="Path_846" data-name="Path 846" d="M13.35,36.657a1.62,1.62,0,0,0-1.175-.539,1.675,1.675,0,0,0-1.189.535l-1.1,1.1c-.09-.049-.181-.094-.268-.139-.125-.063-.243-.122-.344-.184a11.939,11.939,0,0,1-2.861-2.607,7.044,7.044,0,0,1-.939-1.481c.285-.261.549-.532.807-.793.1-.1.195-.2.292-.3a1.6,1.6,0,0,0,0-2.406l-.949-.949c-.108-.108-.219-.219-.323-.33-.209-.216-.428-.438-.654-.647a1.646,1.646,0,0,0-1.165-.511,1.7,1.7,0,0,0-1.182.511l-.007.007L1.113,29.116a2.543,2.543,0,0,0-.754,1.616A6.094,6.094,0,0,0,.8,33.312a14.968,14.968,0,0,0,2.659,4.436,16.359,16.359,0,0,0,5.447,4.265,8.487,8.487,0,0,0,3.059.9c.073,0,.149.007.219.007a2.619,2.619,0,0,0,2.006-.862c0-.007.01-.01.014-.017a7.9,7.9,0,0,1,.608-.629c.149-.143.3-.292.452-.448a1.734,1.734,0,0,0,.525-1.2,1.671,1.671,0,0,0-.535-1.192Zm1.245,3.661s0,0,0,0c-.136.146-.275.278-.424.424a9.14,9.14,0,0,0-.671.7,1.676,1.676,0,0,1-1.307.553c-.052,0-.108,0-.16,0a7.54,7.54,0,0,1-2.712-.813A15.442,15.442,0,0,1,4.19,37.154a14.113,14.113,0,0,1-2.5-4.168A4.964,4.964,0,0,1,1.3,30.809a1.6,1.6,0,0,1,.48-1.032l1.185-1.185a.79.79,0,0,1,.528-.247A.744.744,0,0,1,4,28.588l.01.01c.212.2.414.4.626.622.108.111.219.222.33.337l.949.949a.663.663,0,0,1,0,1.078c-.1.1-.2.2-.3.3-.292.3-.57.577-.873.848-.007.007-.014.01-.017.017a.709.709,0,0,0-.181.789l.01.031A7.619,7.619,0,0,0,5.678,35.4l0,0a12.759,12.759,0,0,0,3.087,2.809,4.745,4.745,0,0,0,.428.233c.125.063.243.122.344.184.014.007.028.017.042.024a.754.754,0,0,0,.344.087.743.743,0,0,0,.528-.24l1.189-1.189a.786.786,0,0,1,.525-.261.708.708,0,0,1,.5.254l.007.007,1.915,1.915A.687.687,0,0,1,14.594,40.317Z" transform="translate(-0.345 -27.406)" fill="#85849e"/>
    </g>
  </g>
</svg>
