<svg xmlns="http://www.w3.org/2000/svg" width="33.041" height="16.4" viewBox="0 0 33.041 16.4">
  <g id="Group_23581" data-name="Group 23581" transform="translate(-177.996 -1049)">
    <g id="Group_23579" data-name="Group 23579" transform="translate(178 1049)">
      <rect id="Rectangle_14539" data-name="Rectangle 14539" width="16.392" height="16.4" fill="none"/>
      <g id="Group_2891" data-name="Group 2891">
        <path id="Path_2943" data-name="Path 2943" d="M-619.675,128.671a5.9,5.9,0,0,0-.987-2.256c-.056-.071-.113-.155-.169-.226s-.127-.141-.183-.226c-.028-.042-.071-.071-.1-.113-.057-.056-.113-.127-.169-.183a6.073,6.073,0,0,0-.564-.494,6.27,6.27,0,0,0-.592-.409c-.042-.028-.085-.042-.127-.071-.085-.042-.169-.1-.253-.141-.042-.028-.085-.042-.127-.071a1.485,1.485,0,0,0-.268-.113c-.141-.056-.268-.113-.409-.155s-.31-.1-.465-.141a2.17,2.17,0,0,0-.437-.085c-.169-.028-.353-.056-.522-.071s-.326-.014-.494-.014h-.155a7.852,7.852,0,0,0-6.654-3.737,10.87,10.87,0,0,0-2.54.424,7.839,7.839,0,0,0-4.893,4.78,5.264,5.264,0,0,0-4.6,5.849,5.264,5.264,0,0,0,5.225,4.642h13.58a5.933,5.933,0,0,0,3.553-1.17,2.676,2.676,0,0,0,.24-.183c.042-.028.07-.071.113-.1a3.412,3.412,0,0,0,.325-.31,5.948,5.948,0,0,0,1.678-3.285.972.972,0,0,0,.026-.138.858.858,0,0,0,.037-.179,9.662,9.662,0,0,0-.064-1.824Zm-5.922,5.118h-13.565a3.212,3.212,0,0,1-3.144-3.187,3.146,3.146,0,0,1,3.13-3.146l.155.014h.014a1.059,1.059,0,0,0,1.029-.8,5.73,5.73,0,0,1,4.1-4.171c.042-.014.085-.014.127-.028a5.864,5.864,0,0,1,1.325-.155A5.651,5.651,0,0,1-628,124.431a5.83,5.83,0,0,0-2.1,1.551,1.066,1.066,0,0,0,.1,1.495,1.02,1.02,0,0,0,.776.253.977.977,0,0,0,.719-.367,3.885,3.885,0,0,1,2.242-1.269h.071a1.392,1.392,0,0,1,.226-.028h.367a3.863,3.863,0,0,1,3.864,3.864,3.864,3.864,0,0,1-3.866,3.859Z" transform="translate(646.51 -119.463)" fill="#da4081"/>
        <path id="Path_2945" data-name="Path 2945" d="M421.2,378.318a1.736,1.736,0,0,1-1.734-1.738.578.578,0,0,0-1.156,0,1.736,1.736,0,0,1-1.734,1.738.579.579,0,0,0,0,1.159,1.736,1.736,0,0,1,1.734,1.738.578.578,0,1,0,1.156,0,1.736,1.736,0,0,1,1.734-1.738.579.579,0,0,0,0-1.159Zm-2.312,1.159a2.935,2.935,0,0,0-.578-.579,2.93,2.93,0,0,0,.578-.579,2.933,2.933,0,0,0,.578.579,2.935,2.935,0,0,0-.577.579Z" transform="translate(-416 -376)" fill="#da4081"/>
        <path id="Path_2946" data-name="Path 2946" d="M421.2,378.318a1.736,1.736,0,0,1-1.734-1.738.578.578,0,0,0-1.156,0,1.736,1.736,0,0,1-1.734,1.738.579.579,0,0,0,0,1.159,1.736,1.736,0,0,1,1.734,1.738.578.578,0,1,0,1.156,0,1.736,1.736,0,0,1,1.734-1.738.579.579,0,0,0,0-1.159Zm-2.312,1.159a2.935,2.935,0,0,0-.578-.579,2.93,2.93,0,0,0,.578-.579,2.933,2.933,0,0,0,.578.579,2.935,2.935,0,0,0-.577.579Z" transform="translate(-388.742 -365.805)" fill="#da4081"/>
      </g>
    </g>
  </g>
</svg>
