<svg xmlns="http://www.w3.org/2000/svg" width="128.907" height="30.377" viewBox="0 0 128.907 30.377">
  <g id="Group_63" data-name="Group 63" transform="translate(0 0.1)">
    <path id="Path_95" data-name="Path 95" d="M48.1,10.624a3.012,3.012,0,0,1-.829,2.229,3.236,3.236,0,0,1-2.453.988,3.487,3.487,0,1,1,1.37-6.695,2.754,2.754,0,0,1,1.044.746l-.587.587a2.255,2.255,0,0,0-1.828-.792,2.581,2.581,0,0,0-2.593,2.667,2.625,2.625,0,0,0,4.457,1.921,2.1,2.1,0,0,0,.56-1.352H44.82v-.8h3.235A2.834,2.834,0,0,1,48.1,10.624Z" transform="translate(-6.432 -6.866)" fill="#fff" stroke="#fff" stroke-miterlimit="10" stroke-width="0.2"/>
    <path id="Path_96" data-name="Path 96" d="M52.423,7.821h-3.04V9.937h2.742v.8H49.382v2.117h3.04v.82h-3.9V7h3.9Z" transform="translate(-5.623 -6.851)" fill="#fff" stroke="#fff" stroke-miterlimit="10" stroke-width="0.2"/>
    <path id="Path_97" data-name="Path 97" d="M55.555,13.676H54.7V7.821H52.831V7h4.588v.82H55.555Z" transform="translate(-5.138 -6.851)" fill="#fff" stroke="#fff" stroke-miterlimit="10" stroke-width="0.2"/>
    <path id="Path_98" data-name="Path 98" d="M59.938,13.676V7H60.8v6.676Z" transform="translate(-4.337 -6.851)" fill="#fff" stroke="#fff" stroke-miterlimit="10" stroke-width="0.2"/>
    <path id="Path_99" data-name="Path 99" d="M64.4,13.676h-.858V7.821H61.681V7h4.588v.82H64.4Z" transform="translate(-4.14 -6.851)" fill="#fff" stroke="#fff" stroke-miterlimit="10" stroke-width="0.2"/>
    <path id="Path_100" data-name="Path 100" d="M74.2,12.829a3.467,3.467,0,0,1-4.9,0,3.413,3.413,0,0,1-.983-2.475,3.413,3.413,0,0,1,.983-2.475,3.455,3.455,0,0,1,4.891,0,3.413,3.413,0,0,1,.988,2.471,3.418,3.418,0,0,1-.983,2.475Zm-4.262-.559a2.567,2.567,0,0,0,3.627,0,2.613,2.613,0,0,0,.742-1.916,2.613,2.613,0,0,0-.742-1.916,2.567,2.567,0,0,0-3.627,0,2.617,2.617,0,0,0-.741,1.916,2.616,2.616,0,0,0,.741,1.916Z" transform="translate(-3.391 -6.866)" fill="#fff" stroke="#fff" stroke-miterlimit="10" stroke-width="0.2"/>
    <path id="Path_101" data-name="Path 101" d="M75.575,13.676V7h1.044l3.245,5.194H79.9l-.037-1.287V7h.858v6.676h-.9L76.432,8.231H76.4l.037,1.287v4.159Z" transform="translate(-2.574 -6.851)" fill="#fff" stroke="#fff" stroke-miterlimit="10" stroke-width="0.2"/>
    <path id="Path_102" data-name="Path 102" d="M71.19,22.282a4.733,4.733,0,1,0,4.75,4.732,4.665,4.665,0,0,0-4.75-4.732Zm0,7.6a2.875,2.875,0,1,1,2.671-2.868,2.738,2.738,0,0,1-2.671,2.868Zm-10.363-7.6a4.733,4.733,0,1,0,4.75,4.732,4.665,4.665,0,0,0-4.75-4.732Zm0,7.6A2.875,2.875,0,1,1,63.5,27.014a2.738,2.738,0,0,1-2.671,2.868ZM48.5,23.734v2.008h4.8a4.19,4.19,0,0,1-1.094,2.528,4.918,4.918,0,0,1-3.711,1.47,5.343,5.343,0,0,1,0-10.684,5.121,5.121,0,0,1,3.621,1.434l1.416-1.416A7,7,0,0,0,48.5,17.047a7.351,7.351,0,1,0,0,14.7,6.719,6.719,0,0,0,5.127-2.062,6.634,6.634,0,0,0,1.739-4.7,6.537,6.537,0,0,0-.108-1.255Zm50.415,1.559a4.4,4.4,0,0,0-4.051-3.012A4.5,4.5,0,0,0,90.4,27.014a4.631,4.631,0,0,0,4.7,4.733,4.707,4.707,0,0,0,3.944-2.1l-1.613-1.076a2.7,2.7,0,0,1-2.33,1.309A2.407,2.407,0,0,1,92.8,28.449l6.328-2.617Zm-6.453,1.578a2.6,2.6,0,0,1,2.474-2.761,1.832,1.832,0,0,1,1.757,1ZM87.316,31.46H89.4V17.55H87.316ZM83.91,23.34h-.072a3.279,3.279,0,0,0-2.492-1.058,4.737,4.737,0,0,0,0,9.465,3.226,3.226,0,0,0,2.492-1.076h.072v.681c0,1.811-.968,2.779-2.528,2.779A2.619,2.619,0,0,1,79,32.446l-1.811.753A4.51,4.51,0,0,0,81.382,36c2.438,0,4.5-1.434,4.5-4.93v-8.5H83.91Zm-2.384,6.543a2.878,2.878,0,0,1,0-5.736,2.667,2.667,0,0,1,2.528,2.886,2.645,2.645,0,0,1-2.528,2.85ZM108.655,17.55h-4.975V31.46h2.076V26.19h2.9a4.327,4.327,0,1,0,0-8.64Zm.053,6.7h-2.953V19.486h2.953a2.385,2.385,0,1,1,0,4.768Zm12.832-2a3.9,3.9,0,0,0-3.705,2.13l1.844.77a1.968,1.968,0,0,1,1.9-1.02,2,2,0,0,1,2.183,1.79v.143a4.6,4.6,0,0,0-2.165-.537c-1.986,0-4.009,1.092-4.009,3.132a3.213,3.213,0,0,0,3.454,3.06,2.931,2.931,0,0,0,2.649-1.36h.071v1.074h2V26.1C125.763,23.634,123.92,22.256,121.54,22.256Zm-.25,7.624c-.681,0-1.629-.34-1.629-1.181,0-1.074,1.181-1.485,2.2-1.485a3.7,3.7,0,0,1,1.9.465,2.517,2.517,0,0,1-2.469,2.2Zm11.775-7.319-2.38,6.031h-.071l-2.47-6.031h-2.237l3.7,8.429L127.5,35.678h2.165l5.709-13.118Zm-18.7,8.9h2.076V17.55h-2.076Z" transform="translate(-6.467 -5.718)" fill="#fff"/>
    <path id="Path_103" data-name="Path 103" d="M10.488,7.546a2.228,2.228,0,0,0-.515,1.563V33.718a2.227,2.227,0,0,0,.515,1.563l.082.08L24.356,21.577v-.325L10.57,7.465Z" transform="translate(-9.969 -6.798)" fill="#37cdfe"/>
    <path id="Path_104" data-name="Path 104" d="M27.493,25.243l-4.595-4.6V20.32l4.6-4.6.1.059,5.444,3.093c1.555.883,1.555,2.329,0,3.213L27.6,25.184Z" transform="translate(-8.512 -5.867)" fill="#f5d50a"/>
    <path id="Path_105" data-name="Path 105" d="M29,24.7,24.3,20,10.435,33.869a1.81,1.81,0,0,0,2.312.068Z" transform="translate(-9.916 -5.385)" fill="#f43a3b"/>
    <path id="Path_106" data-name="Path 106" d="M29,16.752,12.748,7.516a1.81,1.81,0,0,0-2.312.068L24.3,21.452Z" transform="translate(-9.916 -6.836)" fill="#43fe4d"/>
    <path id="Path_107" data-name="Path 107" d="M28.9,24.132,12.748,33.309a1.853,1.853,0,0,1-2.229.012l-.083.083.082.08h0a1.852,1.852,0,0,0,2.229-.012L29,24.235Z" transform="translate(-9.916 -4.92)" opacity="0.2"/>
    <path id="Path_108" data-name="Path 108" d="M10.488,32.477a2.228,2.228,0,0,1-.515-1.563v.163a2.228,2.228,0,0,0,.515,1.563l.083-.083Z" transform="translate(-9.969 -4.155)" opacity="0.12"/>
    <path id="Path_109" data-name="Path 109" d="M32.577,21.445,27.029,24.6l.1.1,5.444-3.093A1.953,1.953,0,0,0,33.743,20a2.073,2.073,0,0,1-1.166,1.444Z" transform="translate(-8.046 -5.385)" opacity="0.12"/>
    <path id="Path_110" data-name="Path 110" d="M12.8,7.678,34.5,20.007a2.071,2.071,0,0,1,1.166,1.444A1.952,1.952,0,0,0,34.5,19.844L12.8,7.515c-1.555-.884-2.827-.15-2.827,1.632v.163C9.973,7.528,11.245,6.794,12.8,7.678Z" transform="translate(-9.969 -6.835)" fill="#fff" opacity="0.25"/>
  </g>
</svg>
