<svg xmlns="http://www.w3.org/2000/svg" width="16.463" height="15.085" viewBox="0 0 16.463 15.085">
  <g id="Group_23835" data-name="Group 23835" transform="translate(-19193 8833.024)">
    <g id="edit" transform="translate(19193 -8838.295)">
      <g id="Group_15497" data-name="Group 15497" transform="translate(0 5.28)">
        <g id="Group_15496" data-name="Group 15496" transform="translate(0 0)">
          <path id="Path_43180" data-name="Path 43180" d="M12.7,44.548a.793.793,0,0,0-.793.793v2.492a.794.794,0,0,1-.793.793H2.38a.794.794,0,0,1-.793-.793V37.518a.794.794,0,0,1,.793-.793h4.61a.793.793,0,0,0,0-1.587H2.38A2.383,2.383,0,0,0,0,37.518V47.834a2.383,2.383,0,0,0,2.38,2.38h8.728a2.383,2.383,0,0,0,2.38-2.38V45.341A.793.793,0,0,0,12.7,44.548Z" transform="translate(0 -35.138)" fill="#fff"/>
        </g>
      </g>
    </g>
    <path id="Path_56064" data-name="Path 56064" d="M20748.461,3581.94l3.846,3.726,7.732-8.657" transform="translate(-1551.705 -12408.904)" fill="none" stroke="#fff" stroke-linecap="round" stroke-linejoin="round" stroke-width="1.6"/>
  </g>
</svg>
