<svg xmlns="http://www.w3.org/2000/svg" width="26.473" height="23.085" viewBox="0 0 26.473 23.085">
  <g id="Group_23116" data-name="Group 23116" transform="translate(-809.275 -4164.925)">
    <rect id="Rectangle_16591" data-name="Rectangle 16591" width="26.41" height="22.92" transform="translate(809.338 4165)" fill="none"/>
    <path id="Path_55962" data-name="Path 55962" d="M143.594,141.916l-1.69,2.675a.537.537,0,0,1-.727.174,21.551,21.551,0,0,1-7.383-7.383.537.537,0,0,1,.175-.727l2.674-1.69-2.868-5.734-4.643,1.857a22.9,22.9,0,0,0,18.338,18.338l1.857-4.644Zm-5.8-1.149a20.034,20.034,0,0,0,3.488,2.8l1.666-2.637a.537.537,0,0,1,.695-.193l6.61,3.305a.537.537,0,0,1,.258.679l-2.2,5.509a.537.537,0,0,1-.59.33A23.974,23.974,0,0,1,128,130.844a.537.537,0,0,1,.33-.59l5.509-2.2a.537.537,0,0,1,.679.258l3.305,6.61a.537.537,0,0,1-.193.695l-2.637,1.666a20.036,20.036,0,0,0,2.8,3.488Z" transform="translate(681.54 4037.185)" fill="#39bb9d" stroke="#39bb9d" stroke-width="0.5"/>
  </g>
</svg>
