<svg xmlns="http://www.w3.org/2000/svg" width="26.41" height="22.92" viewBox="0 0 26.41 22.92">
  <g id="Group_23121" data-name="Group 23121" transform="translate(-1305 -4187)">
    <rect id="Rectangle_16592" data-name="Rectangle 16592" width="26.41" height="22.92" transform="translate(1305 4187)" fill="none"/>
    <path id="Path_55792" data-name="Path 55792" d="M145.464,144H120.946a.946.946,0,0,0-.946.946v20.8a.946.946,0,0,0,.946.946h24.518a.946.946,0,0,0,.946-.946v-20.8A.946.946,0,0,0,145.464,144Zm-2.554,1.891-9.706,7.2-9.706-7.2ZM121.891,164.8V147l10.7,8.049a.945.945,0,0,0,1.229,0l10.7-8.049v17.8Zm0,0" transform="translate(1185 4043)" fill="#39bb9d"/>
  </g>
</svg>
