<svg xmlns="http://www.w3.org/2000/svg" width="25.01" height="33.472" viewBox="0 0 25.01 33.472">
  <g id="Group_17125" data-name="Group 17125" transform="translate(-100.655 -590.492)">
    <path id="Path_47178" data-name="Path 47178" d="M34.656,33.462H39.09V0H36.076a1.42,1.42,0,0,0-1.42,1.42Z" transform="translate(65.999 590.492)" fill="#013b82"/>
    <path id="Path_47179" data-name="Path 47179" d="M121.543,33.792V.343H102.5V33.782Z" transform="translate(2.59 590.172)" fill="#0095da"/>
    <path id="Path_47180" data-name="Path 47180" d="M391.571,32.961V1.175a.832.832,0,0,0-.832-.832h-.97v33.45h.97A.831.831,0,0,0,391.571,32.961Z" transform="translate(-265.907 590.172)" fill="#39bb9d"/>
    <path id="Path_47181" data-name="Path 47181" d="M156.922,51.416H142.455a.485.485,0,0,1-.485-.485V46.774a.485.485,0,0,1,.485-.485h14.467a.485.485,0,0,1,.485.485v4.157A.485.485,0,0,1,156.922,51.416Z" transform="translate(-34.302 547.229)" fill="#fff"/>
  </g>
</svg>
