<svg xmlns="http://www.w3.org/2000/svg" width="17.501" height="17.501" viewBox="0 0 17.501 17.501">
  <g id="help-web-button" transform="translate(-0.008)">
    <path id="Path_43168" data-name="Path 43168" d="M8.759,0a8.751,8.751,0,1,0,8.75,8.746A8.749,8.749,0,0,0,8.759,0Zm.624,13.615a1.03,1.03,0,0,1-.706.272,1.066,1.066,0,0,1-.722-.268.94.94,0,0,1-.309-.75.966.966,0,0,1,.3-.719,1.008,1.008,0,0,1,.733-.292,1,1,0,0,1,1.011,1.011A.948.948,0,0,1,9.382,13.615Zm2.534-6.283a3.094,3.094,0,0,1-.557.75Q11.038,8.4,10.2,9.144a4.788,4.788,0,0,0-.37.37,1.506,1.506,0,0,0-.207.292,1.406,1.406,0,0,0-.105.265q-.037.132-.112.465a.755.755,0,0,1-.807.706.827.827,0,0,1-.594-.231.906.906,0,0,1-.24-.685,2.525,2.525,0,0,1,.177-.987A2.5,2.5,0,0,1,8.412,8.6a10.728,10.728,0,0,1,.787-.75q.434-.38.628-.573a1.94,1.94,0,0,0,.325-.431,1.037,1.037,0,0,0,.132-.516,1.2,1.2,0,0,0-.4-.916,1.474,1.474,0,0,0-1.042-.373,1.441,1.441,0,0,0-1.1.377,3,3,0,0,0-.6,1.109q-.231.767-.875.767a.861.861,0,0,1-.641-.268.82.82,0,0,1-.261-.58,2.455,2.455,0,0,1,.414-1.306,3.185,3.185,0,0,1,1.208-1.1,3.8,3.8,0,0,1,1.852-.435,3.952,3.952,0,0,1,1.737.363,2.815,2.815,0,0,1,1.164.987,2.422,2.422,0,0,1,.41,1.357A2.09,2.09,0,0,1,11.917,7.333Z" fill="#828282"/>
  </g>
</svg>
