<svg xmlns="http://www.w3.org/2000/svg" width="34.51" height="29.382" viewBox="0 0 34.51 29.382"><path d="M272.782,2.678a.446.446,0,0,1-.446-.446V.446a.446.446,0,1,1,.893,0V2.232A.446.446,0,0,1,272.782,2.678Zm0,0" transform="translate(-248.985)" fill="#39bb9d"/><path d="M426.568,184.893h-1.785a.446.446,0,0,1,0-.893h1.785a.446.446,0,0,1,0,.893Zm0,0" transform="translate(-392.505 -173.734)" fill="#39bb9d"/><path d="M27.615,191.556a6.361,6.361,0,0,0-1.257.126A5.185,5.185,0,0,0,19.1,188a6.921,6.921,0,1,0-13.01,4.724,5.769,5.769,0,0,0,.173,11.535H27.615a6.349,6.349,0,0,0,0-12.7Zm0,0" transform="translate(-0.499 -174.872)" fill="#0095da"/><g transform="translate(15.31 2.226)"><path d="M138.121,49.785,136.336,48" transform="translate(-135.884 -47.548)" fill="#39bb9d"/><path d="M130.473,42.586a.446.446,0,0,1-.316-.131l-1.785-1.785a.446.446,0,1,1,.631-.631l1.785,1.785a.446.446,0,0,1-.316.762Zm0,0" transform="translate(-128.236 -39.902)" fill="#39bb9d"/><path d="M392.336,49.785,394.121,48" transform="translate(-377.601 -47.548)" fill="#39bb9d"/><path d="M384.782,42.586a.446.446,0,0,1-.316-.762l1.785-1.785a.446.446,0,1,1,.631.631L385.1,42.455A.446.446,0,0,1,384.782,42.586Zm0,0" transform="translate(-370.047 -39.902)" fill="#39bb9d"/></g><path d="M173.171,78.418A6.418,6.418,0,1,1,166.754,72,6.418,6.418,0,0,1,173.171,78.418Zm0,0" transform="translate(-143.283 -67.258)" fill="#39bb9d" stroke="#f6f6f6" stroke-width="2"/></svg>