<svg id="Group_15403" data-name="Group 15403" xmlns="http://www.w3.org/2000/svg" width="45.402" height="45.402" viewBox="0 0 45.402 45.402">
  <path id="Path_22406" data-name="Path 22406" d="M2721.767-5346.474a22.9,22.9,0,0,1-.188,2.933c-.246,1.9-.472,3.813-.647,5.723q-.271,2.768-.389,5.543c-.013.291-.02.576-.025.867-.033.841-.045,1.689-.045,2.531v1.457a2.35,2.35,0,0,1-2.351,2.35h-1.457c-2.195,0-4.383.1-6.571.26-2.707.194-5.4.5-8.093.849a23.072,23.072,0,0,1-2.933.188,22.706,22.706,0,0,1-22.648-24.311,22.787,22.787,0,0,1,21.036-21.036A22.706,22.706,0,0,1,2721.767-5346.474Z" transform="translate(-2676.364 5369.176)" fill="#013b82"/>
  <rect id="Rectangle_12802" data-name="Rectangle 12802" width="3.342" height="13.677" rx="1.671" transform="translate(21.462 20.098)" fill="#fff" stroke="#fff" stroke-width="2"/>
  <g id="Group_11678" data-name="Group 11678" transform="translate(21.469 11.607)">
    <rect id="Rectangle_12803" data-name="Rectangle 12803" width="3.515" height="3.515" rx="1.757" transform="translate(0)" fill="#fff" stroke="#fff" stroke-width="2"/>
  </g>
</svg>
