<svg xmlns="http://www.w3.org/2000/svg" width="59.382" height="59.383" viewBox="0 0 59.382 59.383">
  <g id="Group_11679" data-name="Group 11679" transform="translate(0 -55)">
    <path id="Path_22406" data-name="Path 22406" d="M2735.747-5339.483a30.052,30.052,0,0,1-.246,3.836c-.322,2.49-.618,4.987-.846,7.485q-.356,3.621-.509,7.249c-.017.382-.025.753-.034,1.135-.042,1.1-.059,2.21-.059,3.311v1.9a3.073,3.073,0,0,1-3.074,3.074h-1.905c-2.871,0-5.733.128-8.6.339-3.54.255-7.062.652-10.585,1.11a30.158,30.158,0,0,1-3.836.246,29.7,29.7,0,0,1-29.621-31.8,29.8,29.8,0,0,1,27.512-27.513A29.7,29.7,0,0,1,2735.747-5339.483Z" transform="translate(-2676.365 5424.176)" fill="#013b82"/>
    <rect id="Rectangle_12802" data-name="Rectangle 12802" width="4.371" height="17.888" rx="2.186" transform="translate(28.07 81.287)" fill="#fff" stroke="#fff" stroke-width="2"/>
    <g id="Group_11678" data-name="Group 11678" transform="translate(28.08 70.182)">
      <rect id="Rectangle_12803" data-name="Rectangle 12803" width="4.949" height="4.949" rx="2.474" transform="translate(0)" fill="#fff" stroke="#fff" stroke-width="2"/>
    </g>
  </g>
</svg>
