<svg id="instagram" xmlns="http://www.w3.org/2000/svg" width="19.041" height="19.045" viewBox="0 0 19.041 19.045">
  <path id="Path_7544" data-name="Path 7544" d="M19.441,5.6A6.959,6.959,0,0,0,19,3.289,4.879,4.879,0,0,0,16.212.5,6.977,6.977,0,0,0,13.9.06C12.882.011,12.558,0,9.973,0S7.063.011,6.048.056A6.961,6.961,0,0,0,3.737.5,4.647,4.647,0,0,0,2.048,1.6a4.689,4.689,0,0,0-1.1,1.685A6.978,6.978,0,0,0,.508,5.6C.46,6.615.449,6.939.449,9.524S.46,12.434.5,13.449a6.959,6.959,0,0,0,.443,2.31,4.878,4.878,0,0,0,2.787,2.787,6.978,6.978,0,0,0,2.31.443c1.016.045,1.339.056,3.925.056s2.909-.011,3.925-.056a6.957,6.957,0,0,0,2.31-.443,4.871,4.871,0,0,0,2.787-2.787,6.982,6.982,0,0,0,.443-2.31c.045-1.016.056-1.339.056-3.925s0-2.909-.048-3.925Zm-1.715,7.776a5.22,5.22,0,0,1-.327,1.767,3.159,3.159,0,0,1-1.808,1.808,5.239,5.239,0,0,1-1.767.327c-1,.045-1.306.056-3.847.056s-2.846-.011-3.847-.056a5.217,5.217,0,0,1-1.767-.327,2.931,2.931,0,0,1-1.094-.711,2.961,2.961,0,0,1-.711-1.094,5.239,5.239,0,0,1-.327-1.767c-.045-1-.056-1.306-.056-3.847s.011-2.846.056-3.847a5.217,5.217,0,0,1,.327-1.767,2.9,2.9,0,0,1,.714-1.094,2.956,2.956,0,0,1,1.094-.711,5.242,5.242,0,0,1,1.767-.327c1-.045,1.306-.056,3.847-.056s2.846.011,3.847.056a5.22,5.22,0,0,1,1.767.327,2.928,2.928,0,0,1,1.094.711A2.96,2.96,0,0,1,17.4,3.918a5.241,5.241,0,0,1,.327,1.767c.045,1,.056,1.306.056,3.847s-.011,2.839-.056,3.843Zm0,0" transform="translate(-0.449 0)" fill="#da4081"/>
  <path id="Path_7545" data-name="Path 7545" d="M129.841,124.5a4.892,4.892,0,1,0,4.892,4.892A4.894,4.894,0,0,0,129.841,124.5Zm0,8.066a3.174,3.174,0,1,1,3.174-3.174A3.174,3.174,0,0,1,129.841,132.566Zm0,0" transform="translate(-120.317 -119.868)" fill="#da4081"/>
  <path id="Path_7546" data-name="Path 7546" d="M364.734,89.744a1.142,1.142,0,1,1-1.142-1.142A1.142,1.142,0,0,1,364.734,89.744Zm0,0" transform="translate(-348.982 -85.305)" fill="#da4081"/>
</svg>
