<svg xmlns="http://www.w3.org/2000/svg" xmlns:xlink="http://www.w3.org/1999/xlink" width="34" height="43" viewBox="0 0 34 43">
  <defs>
    <filter id="Rectangle_11305" x="10" y="4" width="15" height="14" filterUnits="userSpaceOnUse">
      <feOffset dx="-2" dy="2" input="SourceAlpha"/>
      <feGaussianBlur stdDeviation="2" result="blur"/>
      <feFlood flood-color="#0ab4ff" flood-opacity="0.361"/>
      <feComposite operator="in" in2="blur"/>
      <feComposite in="SourceGraphic"/>
    </filter>
    <filter id="Rectangle_12621" x="15" y="4" width="14" height="14" filterUnits="userSpaceOnUse">
      <feOffset dx="-2" dy="2" input="SourceAlpha"/>
      <feGaussianBlur stdDeviation="2" result="blur-2"/>
      <feFlood flood-color="#0ab4ff" flood-opacity="0.361"/>
      <feComposite operator="in" in2="blur-2"/>
      <feComposite in="SourceGraphic"/>
    </filter>
    <filter id="Rectangle_12622" x="20" y="4" width="14" height="14" filterUnits="userSpaceOnUse">
      <feOffset dx="-2" dy="2" input="SourceAlpha"/>
      <feGaussianBlur stdDeviation="2" result="blur-3"/>
      <feFlood flood-color="#0ab4ff" flood-opacity="0.361"/>
      <feComposite operator="in" in2="blur-3"/>
      <feComposite in="SourceGraphic"/>
    </filter>
  </defs>
  <g id="Group_15237" data-name="Group 15237" transform="translate(-669 -1695.835)">
    <path id="Rectangle_12623" data-name="Rectangle 12623" d="M8,0H22a8,8,0,0,1,8,8V29a8,8,0,0,1-8,8H0a0,0,0,0,1,0,0V8A8,8,0,0,1,8,0Z" transform="translate(669 1701.835)" fill="#0095da"/>
    <path id="Rectangle_11304" data-name="Rectangle 11304" d="M8.5,0h5A8.5,8.5,0,0,1,22,8.5V17a0,0,0,0,1,0,0H8.5A8.5,8.5,0,0,1,0,8.5v0A8.5,8.5,0,0,1,8.5,0Z" transform="translate(681 1695.835)" fill="#39bb9d"/>
    <g id="Group_15200" data-name="Group 15200" transform="translate(686.503 1703.501)">
      <g transform="matrix(1, 0, 0, 1, -17.5, -7.67)" filter="url(#Rectangle_11305)">
        <rect id="Rectangle_11305-2" data-name="Rectangle 11305" width="2" height="3" rx="1" transform="translate(21 8) rotate(90)" fill="#fff"/>
      </g>
      <g transform="matrix(1, 0, 0, 1, -17.5, -7.67)" filter="url(#Rectangle_12621)">
        <rect id="Rectangle_12621-2" data-name="Rectangle 12621" width="2" height="2" rx="1" transform="translate(25 8) rotate(90)" fill="#fff"/>
      </g>
      <g transform="matrix(1, 0, 0, 1, -17.5, -7.67)" filter="url(#Rectangle_12622)">
        <rect id="Rectangle_12622-2" data-name="Rectangle 12622" width="2" height="2" rx="1" transform="translate(30 8) rotate(90)" fill="#fff"/>
      </g>
    </g>
    <rect id="Rectangle_12633" data-name="Rectangle 12633" width="11" height="2" rx="1" transform="translate(674 1717.835)" fill="#fff"/>
    <rect id="Rectangle_12634" data-name="Rectangle 12634" width="18" height="2" rx="1" transform="translate(674 1724.835)" fill="#fff"/>
  </g>
</svg>
