<svg id="Group_832" data-name="Group 832" xmlns="http://www.w3.org/2000/svg" width="17.614" height="17.614" viewBox="0 0 17.614 17.614">
  <g id="Linkedin" transform="translate(0 0)">
    <path id="Path_41" data-name="Path 41" d="M32.614,30.614H28.995V24.45c0-1.69-.642-2.635-1.98-2.635-1.455,0-2.216.983-2.216,2.635v6.164H21.312V18.871H24.8v1.582a4.1,4.1,0,0,1,3.541-1.941c2.491,0,4.274,1.521,4.274,4.667ZM17.151,17.334a2.167,2.167,0,1,1,2.15-2.167A2.159,2.159,0,0,1,17.151,17.334Zm-1.8,13.28h3.637V18.871H15.35Z" transform="translate(-15 -13)" fill="#da4081" fill-rule="evenodd"/>
  </g>
</svg>
