<svg xmlns="http://www.w3.org/2000/svg" width="19" height="19" viewBox="0 0 19 19">
  <path id="_1389029" data-name="1389029" d="M19,9.611v6.42A2.972,2.972,0,0,1,16.031,19H2.969A2.972,2.972,0,0,1,0,16.031V2.969A2.972,2.972,0,0,1,2.969,0H9.426a.742.742,0,1,1,0,1.484H2.969A1.486,1.486,0,0,0,1.484,2.969V16.031a1.486,1.486,0,0,0,1.484,1.484H16.031a1.486,1.486,0,0,0,1.484-1.484V9.611a.742.742,0,0,1,1.484,0ZM10.137,6.894a.764.764,0,0,0,.047.085c.056.087.187.285.336.489L8.085,9.9a.742.742,0,0,0,1.049,1.05l1.344-1.344c.032.058.063.117.091.174a1.961,1.961,0,0,1,.2.842,3.648,3.648,0,0,1-1.255,2.426l-.068.059a.752.752,0,0,0-.076.076l-.059.068A3.651,3.651,0,0,1,6.885,14.51,2,2,0,0,1,5.7,14.116l-.042-.035-.072-.055a3.208,3.208,0,0,1-.315-.277,2.217,2.217,0,0,1-.747-1.6A3.649,3.649,0,0,1,5.783,9.726l.069-.059a.752.752,0,0,0,.075-.075l.059-.068A4.226,4.226,0,0,1,7.858,8.334a.742.742,0,0,0-.353-1.442,5.676,5.676,0,0,0-2.587,1.6c-.013.013-.025.026-.037.039l-.042.049-.049.042-.039.037a5.078,5.078,0,0,0-1.708,3.494A3.673,3.673,0,0,0,4.225,14.8a4.714,4.714,0,0,0,.461.405l.024.018a.718.718,0,0,0,.067.055,3.5,3.5,0,0,0,2.108.716,5.081,5.081,0,0,0,3.494-1.708c.013-.013.025-.026.037-.04l.042-.049.049-.042.04-.037a5.079,5.079,0,0,0,1.708-3.494,3.433,3.433,0,0,0-.348-1.488L11.9,9.125c-.052-.1-.18-.352-.336-.6l2.395-2.395a.742.742,0,0,0-1.05-1.05L11.585,6.4c-.044-.064-.088-.129-.128-.19a1.945,1.945,0,0,1-.184-.806A3.649,3.649,0,0,1,12.528,2.98l.069-.059a.734.734,0,0,0,.076-.076l.059-.068a3.652,3.652,0,0,1,2.427-1.255,2,2,0,0,1,1.182.394l.042.034.072.055a3.26,3.26,0,0,1,.315.277,2.217,2.217,0,0,1,.747,1.6A3.649,3.649,0,0,1,16.26,6.305l-.069.059a.737.737,0,0,0-.075.075l-.059.068a4.035,4.035,0,0,1-1.927,1.16.742.742,0,1,0,.314,1.451,5.491,5.491,0,0,0,2.68-1.579c.013-.013.025-.026.037-.039l.042-.049.049-.042.039-.037A5.078,5.078,0,0,0,19,3.879a3.673,3.673,0,0,0-1.182-2.647,4.709,4.709,0,0,0-.461-.405L17.333.809a.758.758,0,0,0-.067-.055A3.5,3.5,0,0,0,15.158.037a5.081,5.081,0,0,0-3.494,1.708c-.013.013-.025.026-.037.04l-.042.049-.049.042-.04.037A5.078,5.078,0,0,0,9.789,5.407a3.433,3.433,0,0,0,.348,1.488Zm0,0" fill="#7c878e"/>
</svg>
