<svg id="_1424" data-name="1424" xmlns="http://www.w3.org/2000/svg" width="26" height="26" viewBox="0 0 26 26">
  <path id="Path_47171" data-name="Path 47171" d="M18,17.759v3.366A1.877,1.877,0,0,1,16.125,23H4.875A1.877,1.877,0,0,1,3,21.125V9.875A1.877,1.877,0,0,1,4.875,8H8.3l3-3H4.875A4.874,4.874,0,0,0,0,9.875v11.25A4.874,4.874,0,0,0,4.875,26h11.25A4.874,4.874,0,0,0,21,21.125V14.758Z" fill="#fff"/>
  <g id="Group_17012" data-name="Group 17012">
    <path id="Path_47172" data-name="Path 47172" d="M22.581,0H12.322c-1.886,0-1.755.51-.76,1.5l3.22,3.22-5.52,5.519a2.926,2.926,0,0,0,0,4.141l2.41,2.411a2.93,2.93,0,0,0,4.14,0l5.52-5.52,3.16,3.16c1.1,1.1,1.507,1.129,1.507-.757V3.419C26-.018,26.024,0,22.581,0Z" fill="#fff"/>
  </g>
</svg>
