<svg xmlns="http://www.w3.org/2000/svg" width="18.991" height="24.931" viewBox="0 0 18.991 24.931">
  <g id="_2258853" data-name="2258853" transform="translate(-61)">
    <path id="Path_43358" data-name="Path 43358" d="M79.153,5.175,74.458.733A2.668,2.668,0,0,0,72.617,0H63.678A2.681,2.681,0,0,0,61,2.678V22.253a2.681,2.681,0,0,0,2.678,2.678H77.312a2.681,2.681,0,0,0,2.678-2.678V7.12A2.689,2.689,0,0,0,79.153,5.175Zm-1.419.669H74.1a.244.244,0,0,1-.243-.243V2.173ZM77.312,23.47H63.678a1.219,1.219,0,0,1-1.217-1.217V2.678a1.219,1.219,0,0,1,1.217-1.217h8.716V5.6a1.706,1.706,0,0,0,1.7,1.7H78.53V22.253A1.219,1.219,0,0,1,77.312,23.47Z" transform="translate(0 0)" fill="#7c878e"/>
    <path id="Path_43359" data-name="Path 43359" d="M139.443,200H128.73a.73.73,0,1,0,0,1.461h10.713a.73.73,0,0,0,0-1.461Z" transform="translate(-63.738 -190.261)" fill="#7c878e"/>
    <path id="Path_43360" data-name="Path 43360" d="M139.443,280H128.73a.73.73,0,0,0,0,1.461h10.713a.73.73,0,0,0,0-1.461Z" transform="translate(-63.738 -266.366)" fill="#7c878e"/>
    <path id="Path_43361" data-name="Path 43361" d="M132.271,360H128.73a.73.73,0,1,0,0,1.461h3.541a.73.73,0,1,0,0-1.461Z" transform="translate(-63.738 -342.47)" fill="#7c878e"/>
  </g>
</svg>
