<svg id="_2991112" data-name="2991112" xmlns="http://www.w3.org/2000/svg" width="14.136" height="18.558" viewBox="0 0 14.136 18.558">
  <path id="Path_10194" data-name="Path 10194" d="M74.977,4.509,70.627.159A.544.544,0,0,0,70.243,0H62.631A1.633,1.633,0,0,0,61,1.631v15.3a1.633,1.633,0,0,0,1.631,1.631H73.5a1.633,1.633,0,0,0,1.631-1.631V4.893A.549.549,0,0,0,74.977,4.509Zm-4.19-2.652L73.28,4.35H71.33a.544.544,0,0,1-.544-.544ZM73.5,17.471H62.631a.544.544,0,0,1-.544-.544V1.631a.544.544,0,0,1,.544-.544H69.7V3.806A1.633,1.633,0,0,0,71.33,5.437h2.718v11.49A.544.544,0,0,1,73.5,17.471Z" transform="translate(-61 0)" fill="#013b82"/>
  <path id="Path_10196" data-name="Path 10196" d="M158.068,272h-6.524a.544.544,0,0,0,0,1.087h6.524a.544.544,0,0,0,0-1.087Z" transform="translate(-147.738 -262.141)" fill="#013b82"/>
  <path id="Path_10197" data-name="Path 10197" d="M158.068,332h-6.524a.544.544,0,0,0,0,1.087h6.524a.544.544,0,0,0,0-1.087Z" transform="translate(-147.738 -319.966)" fill="#013b82"/>
  <path id="Path_10198" data-name="Path 10198" d="M155.893,392h-4.35a.544.544,0,0,0,0,1.087h4.35a.544.544,0,0,0,0-1.087Z" transform="translate(-147.738 -377.792)" fill="#013b82"/>
</svg>
