<svg xmlns="http://www.w3.org/2000/svg" width="13.519" height="13.521" viewBox="0 0 13.519 13.521">
  <g id="arrow-refresh-transfer-user_interface-interface" data-name="arrow-refresh-transfer-user interface-interface" transform="translate(-4 -3.995)">
    <path id="Path_45004" data-name="Path 45004" d="M17.28,33.224a.705.705,0,0,0-.533-.247h-.028a.732.732,0,0,0-.716.632,5.227,5.227,0,0,1-3.855,4.268,5.327,5.327,0,0,1-5.744-2.1.241.241,0,0,1,.2-.379h1.26a.483.483,0,1,0,0-.966H4v3.863a.483.483,0,1,0,.966,0V37a.241.241,0,0,1,.433-.147,6.76,6.76,0,0,0,12.04-3.071.7.7,0,0,0-.159-.563Z" transform="translate(0 -21.985)" fill="#013b82"/>
    <path id="Path_45005" data-name="Path 45005" d="M13.9,9.066H17.76V5.2a.483.483,0,0,0-.966,0V6.493a.241.241,0,0,1-.433.147A6.76,6.76,0,0,0,4.327,9.677.725.725,0,1,0,5.76,9.89a5.309,5.309,0,0,1,9.6-2.169.241.241,0,0,1-.2.379H13.9a.483.483,0,0,0,0,.966Z" transform="translate(-0.241 0)" fill="#013b82"/>
  </g>
</svg>
