<svg xmlns="http://www.w3.org/2000/svg" width="19.879" height="23.5" viewBox="0 0 19.879 23.5">
  <g id="_1008001" data-name="1008001" transform="translate(-39.451)">
    <g id="Group_16331" data-name="Group 16331" transform="translate(39.451)">
      <g id="Group_16330" data-name="Group 16330">
        <path id="Path_45027" data-name="Path 45027" d="M56.418,2.911A9.939,9.939,0,0,0,39.451,9.939c0,5.371,5.078,9.838,7.806,12.238.379.333.707.622.967.865a1.713,1.713,0,0,0,2.331,0c.261-.244.588-.532.967-.865,2.728-2.4,7.806-6.867,7.806-12.238A9.875,9.875,0,0,0,56.418,2.911Zm-5.8,18.232c-.387.341-.722.635-1,.893a.332.332,0,0,1-.452,0c-.276-.258-.61-.552-1-.893-2.565-2.256-7.339-6.456-7.339-11.2a8.563,8.563,0,0,1,17.125,0C57.953,14.688,53.179,18.887,50.614,21.143Z" transform="translate(-39.451)" fill="#00053e"/>
      </g>
    </g>
    <g id="Group_16333" data-name="Group 16333" transform="translate(45.01 5.184)">
      <g id="Group_16332" data-name="Group 16332">
        <path id="Path_45028" data-name="Path 45028" d="M164.95,112.938a4.38,4.38,0,1,0,4.38,4.38A4.385,4.385,0,0,0,164.95,112.938Zm0,7.384a3,3,0,1,1,3-3A3.007,3.007,0,0,1,164.95,120.322Z" transform="translate(-160.57 -112.938)" fill="#00053e"/>
      </g>
    </g>
  </g>
</svg>
