<svg xmlns="http://www.w3.org/2000/svg" width="14.435" height="25.2" viewBox="0 0 14.435 25.2">
  <g id="Group_22003" data-name="Group 22003" transform="translate(-4736.44 12195.494)">
    <g id="Group_22002" data-name="Group 22002" transform="translate(4736.44 -12195.494)">
      <path id="Path_55617" data-name="Path 55617" d="M31.426,30.05h0a.788.788,0,0,1-.76-.584,43.346,43.346,0,0,0-3.913-9.61c-1.414-2.686-2.533-4.805-2.533-7.788a7.217,7.217,0,1,1,14.435,0c0,2.983-1.118,5.1-2.533,7.788a42.123,42.123,0,0,0-3.913,9.61.788.788,0,0,1-.783.584Zm0-23.9a5.948,5.948,0,0,0-5.96,5.918c0,2.669,1,4.57,2.387,7.2a45.214,45.214,0,0,1,3.572,8.285A45.213,45.213,0,0,1,35,19.268c1.4-2.63,2.387-4.528,2.387-7.2A5.948,5.948,0,0,0,31.426,6.15Z" transform="translate(-24.22 -4.85)" fill="#ffde82"/>
      <path id="Path_55618" data-name="Path 55618" d="M41.585,25.488a3.279,3.279,0,1,1,3.293-3.276A3.279,3.279,0,0,1,41.585,25.488Zm0-5.3a2.021,2.021,0,1,0,2.035,2.021A2.021,2.021,0,0,0,41.585,20.191Z" transform="translate(-34.379 -14.994)" fill="#ffde82"/>
    </g>
  </g>
</svg>
