<svg xmlns="http://www.w3.org/2000/svg" width="52" height="51" viewBox="0 0 52 51">
  <g id="Group_22793" data-name="Group 22793" transform="translate(-968 -6621)">
    <ellipse id="Ellipse_1094" data-name="Ellipse 1094" cx="26" cy="25.5" rx="26" ry="25.5" transform="translate(968 6621)" fill="#0095da"/>
    <path id="mail-inbox-app" d="M16.866,48H2.239A2.241,2.241,0,0,0,0,50.239v1.847L8.216,58.2a2.225,2.225,0,0,0,2.672,0L19.1,52.086V50.239A2.241,2.241,0,0,0,16.866,48Zm.746,3.336L10,57a.742.742,0,0,1-.891,0L1.493,51.336v-1.1a.747.747,0,0,1,.746-.746H16.866a.747.747,0,0,1,.746.746Zm0,3.72,1.493-1.11v7.338a2.241,2.241,0,0,1-2.239,2.239H2.239A2.241,2.241,0,0,1,0,61.284V53.946l1.493,1.11v6.228a.747.747,0,0,0,.746.746H16.866a.747.747,0,0,0,.746-.746Z" transform="translate(984 6591)" fill="#fff"/>
  </g>
</svg>
