<svg xmlns="http://www.w3.org/2000/svg" width="25.116" height="20.407" viewBox="0 0 25.116 20.407">
  <path id="mail-inbox-app" d="M22.173,48H2.943A2.947,2.947,0,0,0,0,50.943v2.428l10.8,8.034a2.925,2.925,0,0,0,3.513,0l10.8-8.034V50.943A2.947,2.947,0,0,0,22.173,48Zm.981,4.385-10.01,7.446a.975.975,0,0,1-1.171,0L1.962,52.385V50.943a.982.982,0,0,1,.981-.981H22.173a.982.982,0,0,1,.981.981Zm0,4.891,1.962-1.459v9.647a2.947,2.947,0,0,1-2.943,2.943H2.943A2.947,2.947,0,0,1,0,65.463V55.817l1.962,1.459v8.187a.982.982,0,0,0,.981.981H22.173a.982.982,0,0,0,.981-.981Z" transform="translate(0 -48)" fill="#fff"/>
</svg>
