<svg xmlns="http://www.w3.org/2000/svg" width="20.086" height="20.086" viewBox="0 0 20.086 20.086">
  <g id="_2223611" data-name="2223611" transform="translate(-9 -8)">
    <path id="Path_45186" data-name="Path 45186" d="M25.738,8H22.391a.837.837,0,0,0,0,1.674h3.348a1.676,1.676,0,0,1,1.674,1.674V24.738a1.676,1.676,0,0,1-1.674,1.674H12.348a1.676,1.676,0,0,1-1.674-1.674V11.348a1.676,1.676,0,0,1,1.674-1.674H15.7A.837.837,0,0,0,15.7,8H12.348A3.352,3.352,0,0,0,9,11.348V24.738a3.352,3.352,0,0,0,3.348,3.348H25.738a3.352,3.352,0,0,0,3.348-3.348V11.348A3.352,3.352,0,0,0,25.738,8Z" transform="translate(0 0)" fill="#00053e"/>
    <path id="Path_45187" data-name="Path 45187" d="M23.237,27.253a.837.837,0,0,0,.015,1.183L26,31.112a1.674,1.674,0,0,0,1.187.49,1.654,1.654,0,0,0,1.173-.482l2.756-2.684a.837.837,0,1,0-1.168-1.2l-2.771,2.684-2.756-2.684a.837.837,0,0,0-1.184.015Z" transform="translate(-8.141 -11.049)" fill="#00053e"/>
  </g>
</svg>
