<svg xmlns="http://www.w3.org/2000/svg" width="92" height="92" viewBox="0 0 92 92">
  <g id="Group_15403" data-name="Group 15403" transform="translate(-915 -3047.047)">
    <circle id="Ellipse_1027" data-name="Ellipse 1027" cx="46" cy="46" r="46" transform="translate(915 3047.047)" fill="#e3eef4" opacity="0.41"/>
    <g id="copy" transform="translate(939.641 3073.352)">
      <path id="Path_42969" data-name="Path 42969" d="M33.664,42.157H10.77A4.775,4.775,0,0,1,6,37.387V8.77A4.775,4.775,0,0,1,10.77,4H33.664a4.775,4.775,0,0,1,4.77,4.77V37.387A4.775,4.775,0,0,1,33.664,42.157ZM10.77,5.908A2.865,2.865,0,0,0,7.908,8.77V37.387a2.865,2.865,0,0,0,2.862,2.862H33.664a2.865,2.865,0,0,0,2.862-2.862V8.77a2.865,2.865,0,0,0-2.862-2.862Z" transform="translate(4.539 3.631)" fill="#7c878e" stroke="#7c878e" stroke-width="0.5"/>
      <path id="Path_42970" data-name="Path 42970" d="M7.677,40.065H5.77A4.775,4.775,0,0,1,1,35.3V4.77A4.775,4.775,0,0,1,5.77,0H28.664a4.775,4.775,0,0,1,4.77,4.77.954.954,0,0,1-1.908,0,2.865,2.865,0,0,0-2.862-2.862H5.77A2.865,2.865,0,0,0,2.908,4.77V35.3A2.865,2.865,0,0,0,5.77,38.157H7.677a.954.954,0,0,1,0,1.908Z" fill="#7c878e" stroke="#7c878e" stroke-width="0.5"/>
      <path id="Path_42971" data-name="Path 42971" d="M26.217,17.908H10.954a.954.954,0,1,1,0-1.908H26.217a.954.954,0,1,1,0,1.908Z" transform="translate(8.171 14.526)" fill="#7c878e" stroke="#7c878e" stroke-width="0.5"/>
      <path id="Path_42972" data-name="Path 42972" d="M26.217,21.908H10.954a.954.954,0,1,1,0-1.908H26.217a.954.954,0,1,1,0,1.908Z" transform="translate(8.171 18.157)" fill="#7c878e" stroke="#7c878e" stroke-width="0.5"/>
      <path id="Path_42973" data-name="Path 42973" d="M26.217,13.908H10.954a.954.954,0,1,1,0-1.908H26.217a.954.954,0,1,1,0,1.908Z" transform="translate(8.171 10.894)" fill="#7c878e" stroke="#7c878e" stroke-width="0.5"/>
      <path id="Path_42974" data-name="Path 42974" d="M26.217,9.908H10.954a.954.954,0,1,1,0-1.908H26.217a.954.954,0,1,1,0,1.908Z" transform="translate(8.171 7.263)" fill="#7c878e" stroke="#7c878e" stroke-width="0.5"/>
    </g>
  </g>
</svg>
