<svg xmlns="http://www.w3.org/2000/svg" width="18.746" height="13.691" viewBox="0 0 18.746 13.691">
  <g id="Group_15637" data-name="Group 15637" transform="translate(-1611.735 -508.024)">
    <path id="Path_43251" data-name="Path 43251" d="M149.138,236.828H140a4.906,4.906,0,0,0,0,9.811h5.349l3.234,3.63a.747.747,0,0,0,1.3-.5v-3.192a4.915,4.915,0,0,0-.746-9.753Zm3.31,5.008a3.314,3.314,0,0,1-3.31,3.31.746.746,0,0,0-.746.746v1.92l-2.153-2.417a.746.746,0,0,0-.557-.25H140a3.414,3.414,0,0,1,0-6.825h9.14A3.32,3.32,0,0,1,152.448,241.836Z" transform="translate(1476.541 271.196)" fill="#00053e"/>
    <ellipse id="Ellipse_1070" data-name="Ellipse 1070" cx="0.925" cy="0.925" rx="0.925" ry="0.925" transform="translate(1624.459 513.433) rotate(-67.486)" fill="#00053e"/>
    <ellipse id="Ellipse_1071" data-name="Ellipse 1071" cx="0.925" cy="0.925" rx="0.925" ry="0.925" transform="translate(1620.184 512.006)" fill="#00053e"/>
    <ellipse id="Ellipse_1072" data-name="Ellipse 1072" cx="0.925" cy="0.925" rx="0.925" ry="0.925" transform="matrix(0.987, -0.16, 0.16, 0.987, 1615.494, 512.166)" fill="#00053e"/>
  </g>
</svg>
