<svg id="Group_11679" data-name="Group 11679" xmlns="http://www.w3.org/2000/svg" width="21.132" height="21.132" viewBox="0 0 21.132 21.132">
  <path id="Path_22406" data-name="Path 22406" d="M2697.5-5358.609a10.691,10.691,0,0,1-.087,1.365c-.115.886-.22,1.774-.3,2.664q-.127,1.288-.181,2.58c-.006.136-.009.268-.012.4-.015.392-.021.787-.021,1.178v.678a1.094,1.094,0,0,1-1.094,1.094h-.678c-1.022,0-2.04.045-3.059.121-1.26.091-2.513.232-3.767.4a10.776,10.776,0,0,1-1.365.087,10.568,10.568,0,0,1-10.541-11.315,10.606,10.606,0,0,1,9.791-9.791A10.568,10.568,0,0,1,2697.5-5358.609Z" transform="translate(-2676.365 5369.176)" fill="#0095da"/>
  <rect id="Rectangle_12802" data-name="Rectangle 12802" width="1.556" height="6.366" rx="0.778" transform="translate(9.989 9.355)" fill="#fff"/>
  <path id="Rectangle_12802_-_Outline" data-name="Rectangle 12802 - Outline" d="M.134-1A1.135,1.135,0,0,1,1.267.134v4.81A1.135,1.135,0,0,1,.134,6.078,1.135,1.135,0,0,1-1,4.944V.134A1.135,1.135,0,0,1,.134-1Zm0,6.366a.422.422,0,0,0,.422-.422V.134a.422.422,0,0,0-.844,0v4.81A.422.422,0,0,0,.134,5.366Z" transform="translate(10.633 9.999)" fill="#fff"/>
  <g id="Group_11678" data-name="Group 11678" transform="translate(9.637 5.047)">
    <rect id="Rectangle_12803" data-name="Rectangle 12803" width="1.761" height="1.761" rx="0.88" transform="translate(0.356 0.356)" fill="#fff"/>
    <path id="Rectangle_12803_-_Outline" data-name="Rectangle 12803 - Outline" d="M.236-1A1.238,1.238,0,0,1,1.473.236,1.238,1.238,0,0,1,.236,1.473,1.238,1.238,0,0,1-1,.236,1.238,1.238,0,0,1,.236-1Zm0,1.761A.525.525,0,1,0-.288.236.525.525,0,0,0,.236.761Z" transform="translate(1 1)" fill="#fff"/>
  </g>
</svg>
