<svg xmlns="http://www.w3.org/2000/svg" width="17.655" height="21.187" viewBox="0 0 17.655 21.187">
  <g id="Group_15627" data-name="Group 15627" transform="translate(-1746.463 -37.814)">
    <path id="Path_43229" data-name="Path 43229" d="M38.439,14.93a5.912,5.912,0,0,1-2.1-4.524V7.945a6.184,6.184,0,0,0-5.3-6.108V.883a.883.883,0,0,0-1.766,0v.953a6.183,6.183,0,0,0-5.3,6.108v2.461a5.919,5.919,0,0,1-2.108,4.531,1.544,1.544,0,0,0,1,2.718H37.442a1.545,1.545,0,0,0,1-2.725Zm0,0" transform="translate(1725.131 37.814)" fill="#000f4b"/>
    <path id="Path_43230" data-name="Path 43230" d="M159.532,450.648A3.316,3.316,0,0,0,162.775,448h-6.486A3.315,3.315,0,0,0,159.532,450.648Zm0,0" transform="translate(1595.758 -391.647)" fill="#000f4b"/>
  </g>
</svg>
