<svg xmlns="http://www.w3.org/2000/svg" width="33.369" height="28.41" viewBox="0 0 33.369 28.41">
  <g id="Group_23432" data-name="Group 23432" transform="translate(-653.46 -1899.772)">
    <path id="Path_42881" data-name="Path 42881" d="M272.768,2.59a.431.431,0,0,1-.432-.432V.432a.432.432,0,1,1,.863,0V2.158A.432.432,0,0,1,272.768,2.59Zm0,0" transform="translate(403.703 1899.772)" fill="#39bb9d"/>
    <path id="Path_42882" data-name="Path 42882" d="M426.494,184.863h-1.726a.432.432,0,1,1,0-.863h1.726a.432.432,0,1,1,0,.863Zm0,0" transform="translate(259.903 1725.699)" fill="#39bb9d"/>
    <path id="Path_42883" data-name="Path 42883" d="M26.718,191.287a6.152,6.152,0,0,0-1.216.122,5.013,5.013,0,0,0-7.021-3.564A6.692,6.692,0,1,0,5.9,192.412a5.578,5.578,0,0,0,.168,11.153H26.718a6.139,6.139,0,0,0,0-12.278Zm0,0" transform="translate(652.961 1724.617)" fill="#0095da"/>
    <g id="Group_15217" data-name="Group 15217" transform="translate(668.264 1901.925)">
      <path id="Path_42884" data-name="Path 42884" d="M138.062,49.726,136.336,48" transform="translate(-135.899 -47.563)" fill="#39bb9d"/>
      <path id="Path_42885" data-name="Path 42885" d="M130.4,42.5a.431.431,0,0,1-.305-.126l-1.726-1.726a.432.432,0,1,1,.61-.61L130.7,41.76a.432.432,0,0,1-.305.737Zm0,0" transform="translate(-128.236 -39.902)" fill="#39bb9d"/>
      <path id="Path_42886" data-name="Path 42886" d="M392.336,49.726,394.062,48" transform="translate(-378.088 -47.563)" fill="#39bb9d"/>
      <path id="Path_42887" data-name="Path 42887" d="M384.768,42.5a.432.432,0,0,1-.305-.737l1.726-1.726a.432.432,0,1,1,.61.61l-1.726,1.726A.432.432,0,0,1,384.768,42.5Zm0,0" transform="translate(-370.519 -39.902)" fill="#39bb9d"/>
    </g>
    <path id="Path_42880" data-name="Path 42880" d="M172.747,78.205A6.205,6.205,0,1,1,166.541,72,6.205,6.205,0,0,1,172.747,78.205Zm0,0" transform="translate(509.613 1832.358)" fill="#39bb9d" stroke="#f6f6f6" stroke-width="2"/>
  </g>
</svg>
