<svg xmlns="http://www.w3.org/2000/svg" width="15.775" height="15.775" viewBox="0 0 15.775 15.775">
  <g id="_483947" data-name="483947" transform="translate(0)">
    <g id="Group_2995" data-name="Group 2995" transform="translate(0)">
      <path id="Path_10223" data-name="Path 10223" d="M14.509,10.355A8.957,8.957,0,0,1,11.7,9.907a1.286,1.286,0,0,0-1.25.264L8.672,11.509A9.8,9.8,0,0,1,4.265,7.1l1.3-1.728a1.275,1.275,0,0,0,.314-1.292,8.97,8.97,0,0,1-.45-2.817A1.267,1.267,0,0,0,4.163,0h-2.9A1.267,1.267,0,0,0,0,1.266,14.526,14.526,0,0,0,14.509,15.775a1.267,1.267,0,0,0,1.266-1.266V11.62A1.267,1.267,0,0,0,14.509,10.355Z" fill="#013b82"/>
    </g>
  </g>
</svg>
