<svg xmlns="http://www.w3.org/2000/svg" width="15.25" height="15.25" viewBox="0 0 15.25 15.25">
  <path id="Path_55957" data-name="Path 55957" d="M138.284,137.185l-1.115,1.765a.354.354,0,0,1-.48.115,14.218,14.218,0,0,1-4.871-4.87.354.354,0,0,1,.116-.48L133.7,132.6l-1.892-3.783-3.063,1.225a15.106,15.106,0,0,0,12.1,12.1l1.225-3.063Zm-3.828-.758a13.217,13.217,0,0,0,2.3,1.849l1.1-1.74a.354.354,0,0,1,.458-.128l4.361,2.18a.354.354,0,0,1,.17.448l-1.453,3.635a.354.354,0,0,1-.389.218,15.816,15.816,0,0,1-13.009-13.009.354.354,0,0,1,.218-.389l3.635-1.453a.354.354,0,0,1,.448.17l2.18,4.361a.354.354,0,0,1-.128.458l-1.74,1.1a13.217,13.217,0,0,0,1.848,2.3Z" transform="translate(-127.811 -127.823)" fill="#343434" stroke="#343434" stroke-width="0.35"/>
</svg>
