<svg xmlns="http://www.w3.org/2000/svg" width="38" height="38" viewBox="0 0 38 38">
  <g id="Union_15" data-name="Union 15" transform="translate(1 1)" fill="#0095da">
    <path d="M 20.07546997070312 36.5 L 19.57546997070312 36.5 L 16.20015907287598 36.5 L 15.70016002655029 36.5 L 15.70016002655029 36 L 15.70016002655029 20.07546997070312 L 0 20.07546997070312 L -0.5 20.07546997070312 L -0.5 19.57546997070312 L -0.5 16.20015907287598 L -0.5 15.70016002655029 L 0 15.70016002655029 L 15.70016002655029 15.70016002655029 L 15.70016002655029 0 L 15.70016002655029 -0.5 L 16.20015907287598 -0.5 L 19.57546997070312 -0.5 L 20.07546997070312 -0.5 L 20.07546997070312 0 L 20.07546997070312 15.70016002655029 L 36 15.70016002655029 L 36.5 15.70016002655029 L 36.5 16.20015907287598 L 36.5 19.57546997070312 L 36.5 20.07546997070312 L 36 20.07546997070312 L 20.07546997070312 20.07546997070312 L 20.07546997070312 36 L 20.07546997070312 36.5 Z" stroke="none"/>
    <path d="M 19.57546997070312 36 L 19.57546997070312 19.57546997070312 L 36 19.57546997070312 L 36 16.20015907287598 L 19.57546997070312 16.20015907287598 L 19.57546997070312 0 L 16.20015907287598 0 L 16.20015907287598 16.20015907287598 L 0 16.20015907287598 L 0 19.57546997070312 L 16.20015907287598 19.57546997070312 L 16.20015907287598 36 L 19.57546997070312 36 M 20.57546997070312 37 L 15.20016002655029 37 L 15.20016002655029 20.57546997070312 L -1 20.57546997070312 L -1 15.20016002655029 L 15.20016002655029 15.20016002655029 L 15.20016002655029 -1 L 20.57546997070312 -1 L 20.57546997070312 15.20016002655029 L 37 15.20016002655029 L 37 20.57546997070312 L 20.57546997070312 20.57546997070312 L 20.57546997070312 37 Z" stroke="none" fill="#0095da"/>
  </g>
</svg>
