<svg xmlns="http://www.w3.org/2000/svg" width="17.005" height="17" viewBox="0 0 17.005 17">
  <g id="_992660" data-name="992660" transform="translate(0 -0.069)">
    <g id="Group_15573" data-name="Group 15573" transform="translate(0 0.07)">
      <g id="Group_15572" data-name="Group 15572" transform="translate(0 0)">
        <path id="Path_43192" data-name="Path 43192" d="M14.518,2.556a8.5,8.5,0,1,0,0,12.027A8.515,8.515,0,0,0,14.518,2.556Zm-.931,11.1a7.187,7.187,0,1,1,0-10.164A7.2,7.2,0,0,1,13.587,13.651Z" transform="translate(0 -0.07)" fill="#cb1e63"/>
      </g>
    </g>
    <g id="Group_15575" data-name="Group 15575" transform="translate(5.554 5.541)">
      <g id="Group_15574" data-name="Group 15574">
        <path id="Path_43193" data-name="Path 43193" d="M173.025,169.662,171.16,167.8l1.865-1.862a.659.659,0,1,0-.931-.932l-1.866,1.864-1.866-1.864a.659.659,0,1,0-.931.932l1.865,1.862-1.865,1.862a.659.659,0,0,0,.931.932l1.866-1.864,1.866,1.864a.659.659,0,1,0,.931-.932Z" transform="translate(-167.236 -164.813)" fill="#cb1e63"/>
      </g>
    </g>
  </g>
</svg>
