<svg xmlns="http://www.w3.org/2000/svg" width="16.334" height="16.06" viewBox="0 0 16.334 16.06">
  <g id="edit" transform="translate(0 -4.296)">
    <g id="Group_15497" data-name="Group 15497" transform="translate(0 5.28)">
      <g id="Group_15496" data-name="Group 15496" transform="translate(0 0)">
        <path id="Path_43180" data-name="Path 43180" d="M12.7,44.548a.793.793,0,0,0-.793.793v2.492a.794.794,0,0,1-.793.793H2.38a.794.794,0,0,1-.793-.793V37.518a.794.794,0,0,1,.793-.793h4.61a.793.793,0,0,0,0-1.587H2.38A2.383,2.383,0,0,0,0,37.518V47.834a2.383,2.383,0,0,0,2.38,2.38h8.728a2.383,2.383,0,0,0,2.38-2.38V45.341A.793.793,0,0,0,12.7,44.548Z" transform="translate(0 -35.138)" fill="#fff"/>
      </g>
    </g>
    <g id="Group_15499" data-name="Group 15499" transform="translate(4.57 4.296)">
      <g id="Group_15498" data-name="Group 15498" transform="translate(0 0)">
        <path id="Path_43181" data-name="Path 43181" d="M154.141,5.179a3.054,3.054,0,0,0-4.289-.007l-5.372,5.372a4.141,4.141,0,0,0-1.216,2.941v1.777a.793.793,0,0,0,.793.793h1.777a4.141,4.141,0,0,0,2.941-1.216l5.365-5.365A3.043,3.043,0,0,0,154.141,5.179Zm-6.485,8.537a2.564,2.564,0,0,1-1.82.752h-.984v-.984a2.563,2.563,0,0,1,.751-1.819l3.541-3.541,2.052,2.052Zm5.363-5.363-.7.7L150.267,7l.7-.7a1.451,1.451,0,0,1,2.052,2.052Z" transform="translate(-143.265 -4.296)" fill="#fff"/>
      </g>
    </g>
  </g>
</svg>
