<svg xmlns="http://www.w3.org/2000/svg" xmlns:xlink="http://www.w3.org/1999/xlink" width="20" height="20" viewBox="0 0 20 20">
  <defs>
    <clipPath id="clip-path">
      <path id="Path_55884" data-name="Path 55884" d="M-6072.29,6339.845l.132-.681.971-.635,2.662-.247,2.629.116,1.388.47.505.876.712,3.9-2.382,2.987-2.12.622-2.556.3-1.676-2s-.664-2.031-.654-2.243-.224-2.1-.224-2.1Z" transform="translate(6072.902 -6338.283)" fill="#fff"/>
    </clipPath>
  </defs>
  <g id="Group_22919" data-name="Group 22919" transform="translate(6109.384 -6264.616)">
    <circle id="Ellipse_1094" data-name="Ellipse 1094" cx="10" cy="10" r="10" transform="translate(-6109.384 6264.616)" fill="#0095da"/>
    <g id="Mask_Group_20813" data-name="Mask Group 20813" transform="translate(-6103.991 6270.456)" clip-path="url(#clip-path)">
      <path id="Path_55883" data-name="Path 55883" d="M8.59,15.178a6.59,6.59,0,1,1,6.59-6.59A6.6,6.6,0,0,1,8.59,15.178Zm0-12.238a5.648,5.648,0,1,0,5.648,5.648A5.655,5.655,0,0,0,8.59,2.94Zm.333,9.276,3.295-3.295a.471.471,0,0,0-.666-.666L8.59,11.218,5.628,8.256a.471.471,0,0,0-.666.666l3.295,3.295a.47.47,0,0,0,.666,0Zm0-3.295,3.295-3.295a.471.471,0,0,0-.666-.666L8.59,7.924,5.628,4.961a.471.471,0,0,0-.666.666L8.257,8.922a.47.47,0,0,0,.666,0Z" transform="translate(-3.929 -4.015)" fill="#fff"/>
    </g>
  </g>
</svg>
