<svg xmlns="http://www.w3.org/2000/svg" width="17.687" height="17.686" viewBox="0 0 17.687 17.686">
  <path id="share" d="M13.582,9.878A3.692,3.692,0,0,0,10.6,11.4L7.231,9.716a3.654,3.654,0,0,0,.177-1.073A3.654,3.654,0,0,0,7.231,7.57L10.6,5.884A3.689,3.689,0,1,0,9.878,3.7a3.653,3.653,0,0,0,.177,1.073L6.684,6.463a3.7,3.7,0,1,0,0,4.36l3.371,1.686a3.653,3.653,0,0,0-.177,1.073,3.7,3.7,0,1,0,3.7-3.7Zm0-8.643A2.469,2.469,0,1,1,11.113,3.7,2.472,2.472,0,0,1,13.582,1.235ZM3.7,11.113A2.469,2.469,0,1,1,6.174,8.643,2.472,2.472,0,0,1,3.7,11.113Zm9.878,4.939a2.469,2.469,0,1,1,2.469-2.469A2.472,2.472,0,0,1,13.582,16.051Z" transform="translate(0.2 0.2)" fill="#7c878e" stroke="#7c878e" stroke-width="0.4"/>
</svg>
