<svg xmlns="http://www.w3.org/2000/svg" width="17.687" height="17.687" viewBox="0 0 17.687 17.687">
  <path id="share" d="M3.7,9.878A3.692,3.692,0,0,1,6.684,11.4l3.371-1.686a3.654,3.654,0,0,1-.177-1.073,3.654,3.654,0,0,1,.177-1.073L6.684,5.884A3.689,3.689,0,1,1,7.408,3.7a3.654,3.654,0,0,1-.177,1.073L10.6,6.463a3.7,3.7,0,1,1,0,4.36L7.231,12.509a3.653,3.653,0,0,1,.177,1.073,3.7,3.7,0,1,1-3.7-3.7Zm0-8.643A2.469,2.469,0,1,0,6.174,3.7,2.472,2.472,0,0,0,3.7,1.235Zm9.878,9.878a2.469,2.469,0,1,0-2.469-2.469A2.472,2.472,0,0,0,13.582,11.112ZM3.7,16.051a2.469,2.469,0,1,0-2.469-2.469A2.472,2.472,0,0,0,3.7,16.051Z" transform="translate(0.2 0.2)" fill="#7c878e" stroke="#7c878e" stroke-width="0.4"/>
</svg>
