<svg xmlns="http://www.w3.org/2000/svg" width="11.944" height="11.527" viewBox="0 0 11.944 11.527">
  <g id="_54937" data-name="54937" transform="translate(0.001 -10.648)">
    <g id="_x38__37_" transform="translate(-0.001 10.648)">
      <g id="Group_15745" data-name="Group 15745">
        <path id="Path_43363" data-name="Path 43363" d="M11.531,20.539H6.591a.412.412,0,0,0,0,.824l4.94-.012a.4.4,0,0,0,.412-.4A.412.412,0,0,0,11.531,20.539ZM5.768,11.472h5.763a.412.412,0,0,0,0-.823H5.768a.412.412,0,0,0,0,.824Zm.694,6.71a.412.412,0,0,0-.585,0l-2.168,2.5V10.648H2.886V20.692L.705,18.183a.414.414,0,0,0-.585.587l2.858,3.289a.407.407,0,0,0,.313.117.407.407,0,0,0,.313-.117l2.858-3.289A.415.415,0,0,0,6.463,18.183Zm5.069-5.062H5.768a.41.41,0,1,0,0,.82h5.763a.41.41,0,1,0,0-.82Zm0,2.472H5.768a.412.412,0,0,0-.412.412.406.406,0,0,0,.412.405l5.763.007a.412.412,0,0,0,0-.824Zm0,2.473H8.238a.412.412,0,0,0-.412.412.4.4,0,0,0,.412.4h3.293a.4.4,0,0,0,.412-.4A.412.412,0,0,0,11.531,18.066Z" transform="translate(0.001 -10.648)" fill="#013b82"/>
      </g>
    </g>
  </g>
</svg>
