<svg id="download_2_" data-name="download (2)" xmlns="http://www.w3.org/2000/svg" width="15.866" height="25.2" viewBox="0 0 15.866 25.2">
  <g id="Group_424" data-name="Group 424" transform="translate(0 0)">
    <g id="Group_423" data-name="Group 423" transform="translate(0 0)">
      <g id="Group_422" data-name="Group 422">
        <path id="Path_532" data-name="Path 532" d="M9.375,707.153a2.333,2.333,0,0,0-2.333,2.333l0,13.309a4.2,4.2,0,1,0,4.67,0l0-13.309A2.333,2.333,0,0,0,9.375,707.153Zm-.467,10.733h.933v6.836a1.633,1.633,0,1,1-.933,0Z" transform="translate(-5.175 -705.287)" fill="#ffde82"/>
        <path id="Path_533" data-name="Path 533" d="M17.635,710.867a1.4,1.4,0,0,1-2.8,0c0-.773,1.4-2.333,1.4-2.333S17.635,710.094,17.635,710.867Z" transform="translate(-1.769 -704.8)" fill="#ffde82"/>
        <path id="Path_534" data-name="Path 534" d="M14.875,708.107a1.4,1.4,0,0,1-2.8,0c0-.773,1.4-2.333,1.4-2.333S14.875,707.334,14.875,708.107Z" transform="translate(-2.742 -705.773)" fill="#ffde82"/>
      </g>
    </g>
  </g>
</svg>
