<svg xmlns="http://www.w3.org/2000/svg" width="20.958" height="17.033" viewBox="0 0 20.958 17.033">
  <path id="Path_46" data-name="Path 46" d="M30.813,20.242A12.229,12.229,0,0,1,12,31.1a8.645,8.645,0,0,0,6.366-1.781,4.3,4.3,0,0,1-4.016-2.986,4.312,4.312,0,0,0,1.941-.073,4.305,4.305,0,0,1-3.449-4.271,4.278,4.278,0,0,0,1.948.537,4.3,4.3,0,0,1-1.331-5.74,12.206,12.206,0,0,0,8.862,4.493,4.3,4.3,0,0,1,7.327-3.923,8.6,8.6,0,0,0,2.73-1.043,4.308,4.308,0,0,1-1.89,2.379,8.588,8.588,0,0,0,2.47-.677,8.729,8.729,0,0,1-2.145,2.226" transform="translate(-12 -16)" fill="#da4081" fill-rule="evenodd"/>
</svg>
