<svg xmlns="http://www.w3.org/2000/svg" width="16.559" height="21.739" viewBox="0 0 16.559 21.739">
  <g id="_2258853" data-name="2258853" transform="translate(-61)">
    <path id="Path_43358" data-name="Path 43358" d="M76.829,4.512,72.735.639A2.326,2.326,0,0,0,71.13,0H63.335A2.338,2.338,0,0,0,61,2.335V19.4a2.338,2.338,0,0,0,2.335,2.335H75.224A2.338,2.338,0,0,0,77.559,19.4V6.208A2.345,2.345,0,0,0,76.829,4.512ZM75.592,5.1h-3.17a.213.213,0,0,1-.212-.212V1.9Zm-.368,15.37H63.335A1.063,1.063,0,0,1,62.274,19.4V2.335a1.063,1.063,0,0,1,1.061-1.061h7.6V4.883a1.488,1.488,0,0,0,1.486,1.486h3.864V19.4A1.063,1.063,0,0,1,75.224,20.465Z" transform="translate(0 0)" fill="#00053e"/>
    <path id="Path_43359" data-name="Path 43359" d="M137.978,200h-9.341a.637.637,0,1,0,0,1.274h9.341a.637.637,0,0,0,0-1.274Z" transform="translate(-64.155 -191.508)" fill="#00053e"/>
    <path id="Path_43360" data-name="Path 43360" d="M137.978,280h-9.341a.637.637,0,0,0,0,1.274h9.341a.637.637,0,0,0,0-1.274Z" transform="translate(-64.155 -268.111)" fill="#00053e"/>
    <path id="Path_43361" data-name="Path 43361" d="M131.725,360h-3.088a.637.637,0,1,0,0,1.274h3.088a.637.637,0,1,0,0-1.274Z" transform="translate(-64.155 -344.715)" fill="#00053e"/>
  </g>
</svg>
