<svg version="1.2" baseProfile="tiny-ps" xmlns="http://www.w3.org/2000/svg" viewBox="0 0 33 31" width="33" height="31">
	<title>view-more-svg</title>
	<style>
		tspan { white-space:pre }
		.shp0 { fill: none;stroke: #da4081;stroke-linecap:round;stroke-linejoin:round;stroke-width: 1.5 } 
	</style>
	<g id="Component_15_1">
		<g id="Icon_feather-arrow-right-circle">
			<path id="Path_12358" class="shp0" d="M31.75 15.75C31.75 21.82 28.1 27.29 22.49 29.61C16.89 31.93 10.43 30.65 6.14 26.36C1.85 22.07 0.57 15.61 2.89 10.01C5.21 4.4 10.68 0.75 16.75 0.75C18.72 0.75 20.67 1.14 22.49 1.89C24.31 2.65 25.96 3.75 27.36 5.14C28.75 6.54 29.85 8.19 30.61 10.01C31.36 11.83 31.75 13.78 31.75 15.75L31.75 15.75Z" />
			<g id="Group_10644">
				<path id="Path_12359" class="shp0" d="M16.75 21.75L22.75 15.75L16.75 9.75" />
				<path id="Path_12360" class="shp0" d="M10.75 15.75L22.75 15.75" />
			</g>
		</g>
		<g id="Group_10645" style="opacity: 0">
			<path id="Path_12359-2" class="shp0" d="M-14.25 21.75L-8.25 15.75L-14.25 9.75" />
			<path id="Path_12360-2" class="shp0" d="M-20.25 15.75L-8.25 15.75" />
		</g>
	</g>
</svg>