<svg id="Group_11592" data-name="Group 11592" xmlns="http://www.w3.org/2000/svg" width="25.192" height="25.203" viewBox="0 0 25.192 25.203">
  <path id="Op_component_1" data-name="Op component 1" d="M1529.084,54.391A6.084,6.084,0,1,0,1523,48.308,6.086,6.086,0,0,0,1529.084,54.391Zm0-10.407a4.324,4.324,0,1,1-4.322,4.324A4.32,4.32,0,0,1,1529.084,43.984Z" transform="translate(-1516.488 -35.706)" fill="#ffde82"/>
  <path id="Op_component_2" data-name="Op component 2" d="M1529.6,39.87v-2.8a.89.89,0,1,0-1.781,0v2.8a.89.89,0,1,0,1.781,0Z" transform="translate(-1516.114 -36.176)" fill="#ffde82"/>
  <rect id="Op_component_3" data-name="Op component 3" width="1.778" height="4.581" rx="0.83" transform="translate(11.707 20.623)" fill="#ffde82"/>
  <path id="Op_component_4" data-name="Op component 4" d="M1535.183,42.86l1.977-1.977a.891.891,0,1,0-1.26-1.26l-1.976,1.977a.892.892,0,0,0,0,1.26.891.891,0,0,0,1.259,0Z" transform="translate(-1515.659 -35.928)" fill="#ffde82"/>
  <path id="Op_component_5" data-name="Op component 5" d="M1520.4,56.386a.87.87,0,0,0,.63.261.908.908,0,0,0,.63-.261l1.976-1.977a.891.891,0,0,0-1.26-1.26l-1.976,1.977A.893.893,0,0,0,1520.4,56.386Z" transform="translate(-1516.711 -34.876)" fill="#ffde82"/>
  <path id="Op_component_6" data-name="Op component 6" d="M1540.663,47.933a.881.881,0,0,0-.891-.891h-2.8a.891.891,0,0,0,0,1.782h2.8A.894.894,0,0,0,1540.663,47.933Z" transform="translate(-1515.471 -35.331)" fill="#ffde82"/>
  <path id="Op_component_7" data-name="Op component 7" d="M1517.849,48.823h2.8a.891.891,0,0,0,0-1.782h-2.8a.881.881,0,0,0-.89.891A.894.894,0,0,0,1517.849,48.823Z" transform="translate(-1516.958 -35.331)" fill="#ffde82"/>
  <path id="Op_component_8" data-name="Op component 8" d="M1536.529,56.647a.907.907,0,0,0,.63-.261.892.892,0,0,0,0-1.26l-1.977-1.977a.891.891,0,0,0-1.259,1.26l1.976,1.977A.907.907,0,0,0,1536.529,56.647Z" transform="translate(-1515.659 -34.876)" fill="#ffde82"/>
  <path id="Op_component_9" data-name="Op component 9" d="M1523.639,42.86a.892.892,0,0,0,0-1.26l-1.976-1.977a.891.891,0,1,0-1.26,1.26l1.976,1.977a.891.891,0,0,0,1.26,0Z" transform="translate(-1516.711 -35.928)" fill="#ffde82"/>
</svg>
