<svg id="download_2_" data-name="download (2)" xmlns="http://www.w3.org/2000/svg" width="14.531" height="23.078" viewBox="0 0 14.531 23.078">
  <g id="Group_424" data-name="Group 424" transform="translate(0 0)">
    <g id="Group_423" data-name="Group 423" transform="translate(0 0)">
      <g id="Group_422" data-name="Group 422">
        <path id="Path_532" data-name="Path 532" d="M9.021,707.153a2.137,2.137,0,0,0-2.137,2.137l0,12.189a3.847,3.847,0,1,0,4.277,0l0-12.189A2.137,2.137,0,0,0,9.021,707.153Zm-.427,9.83h.855v6.26a1.5,1.5,0,1,1-.855,0Z" transform="translate(-5.175 -705.444)" fill="#ffde82"/>
        <path id="Path_533" data-name="Path 533" d="M17.4,710.67a1.282,1.282,0,0,1-2.564,0c0-.708,1.282-2.137,1.282-2.137S17.4,709.962,17.4,710.67Z" transform="translate(-2.869 -705.114)" fill="#ffde82"/>
        <path id="Path_534" data-name="Path 534" d="M14.639,707.91a1.282,1.282,0,0,1-2.564,0c0-.708,1.282-2.137,1.282-2.137S14.639,707.2,14.639,707.91Z" transform="translate(-3.528 -705.773)" fill="#ffde82"/>
      </g>
    </g>
  </g>
</svg>
