<svg xmlns="http://www.w3.org/2000/svg" width="21.228" height="21.665" viewBox="0 0 21.228 21.665">
  <path id="Path_397" data-name="Path 397" d="M27.407,12.408a3.806,3.806,0,0,0-2.176-.607c-1.358,0-2.491.567-2.755,1.321h-.113c-.257-.759-1.394-1.331-2.758-1.331a3.8,3.8,0,0,0-2.177.61v6.383a2.881,2.881,0,0,1-5.762,0,.636.636,0,0,1,1.271,0,1.61,1.61,0,0,0,3.22,0V12.411a3.8,3.8,0,0,0-2.178-.61c-1.358,0-2.491.567-2.755,1.321h-.113c-.257-.759-1.394-1.331-2.758-1.331A3.808,3.808,0,0,0,6.18,12.4c.415-4.526,4.673-8.124,9.978-8.392V3.531a.636.636,0,0,1,1.271,0v.475C22.738,4.274,27,7.877,27.407,12.408ZM13.062,1.017a8.227,8.227,0,0,0-1.426,1.221.691.691,0,1,0,1.222.645A8.227,8.227,0,0,0,13.062,1.017ZM15.862,0a8.227,8.227,0,0,0-1.426,1.221.691.691,0,0,0,1.222.645A8.225,8.225,0,0,0,15.862,0Zm3.3,0a8.227,8.227,0,0,0-1.426,1.221.691.691,0,1,0,1.222.645A8.225,8.225,0,0,0,19.163,0Zm2.629.946a8.227,8.227,0,0,0-1.426,1.221.691.691,0,0,0,1.222.645A8.225,8.225,0,0,0,21.792.946Z" transform="translate(-6.18)" fill="#ffde82"/>
</svg>
