<svg xmlns="http://www.w3.org/2000/svg" width="27.336" height="20.205" viewBox="0 0 27.336 20.205">
  <g id="Group_11729" data-name="Group 11729" transform="translate(-1456.744 -173.307)">
    <path id="Path_49" data-name="Path 49" d="M13.535,9.353H2.524v1.6H13.535a2.233,2.233,0,0,1,2.23,2.23,1.988,1.988,0,0,1-1.986,1.986,1.763,1.763,0,0,1-1.762-1.761h-1.6a3.367,3.367,0,0,0,3.363,3.363,3.592,3.592,0,0,0,3.588-3.588A3.836,3.836,0,0,0,13.535,9.353Z" transform="translate(1458.632 176.739)" fill="#ffde82"/>
    <path id="Path_50" data-name="Path 50" d="M21.908,2.04A5.061,5.061,0,0,0,16.853,7.1h1.6a3.458,3.458,0,0,1,3.454-3.454,3.831,3.831,0,0,1,3.827,3.827A4.237,4.237,0,0,1,21.5,11.7H0v1.6H21.5a5.841,5.841,0,0,0,5.834-5.834A5.434,5.434,0,0,0,21.908,2.04Z" transform="translate(1456.744 171.268)" fill="#ffde82"/>
    <path id="Path_51" data-name="Path 51" d="M10.706,3.128A2.844,2.844,0,0,0,7.865,5.97h1.6A1.241,1.241,0,0,1,10.706,4.73a1.42,1.42,0,0,1,1.418,1.418,1.615,1.615,0,0,1-1.613,1.613H2.524v1.6h7.987a3.218,3.218,0,0,0,3.215-3.215A3.023,3.023,0,0,0,10.706,3.128Z" transform="translate(1458.632 172.082)" fill="#ffde82"/>
  </g>
</svg>
